;PTH Drill file created by EasyEDA 
M48
;Holesize 1 = 0.050 INCH
T01C0.050
;Holesize 2 = 0.126 INCH
T02C0.126
;Holesize 3 = 0.036 INCH
T03C0.036
;Holesize 4 = 0.028 INCH
T04C0.028
;Holesize 5 = 0.035 INCH
T05C0.035
INCH,00.0000
%
G05
G90
T01
X002300Y022900
X002300Y021900
X002300Y020900
T02
X009300Y021900
T03
X002200Y015800
X002200Y016800
X002200Y017800
X002200Y014800
X002200Y013800
X012500Y014700
X013500Y014700
X012500Y015700
X013500Y015700
X012500Y016700
X013500Y016700
X012500Y017700
X013500Y017700
T04
X011500Y020800
X013500Y020800
X013500Y022800
X011500Y022800
T05
X009000Y017900
X009000Y014900
X004800Y016800
X004800Y013800
M30
