G04 ---------------------------- Layer name :TOP SILK LAYER*
G04 easyEDA 0.1*
G04 Scale: 100 percent, Rotated: No, Reflected: No *
G04 Dimensions in inches *
G04 leading zeros omitted , absolute positions ,2 integer and 4 * 
%FSLAX24Y24*%
%MOIN*%
G90*
G70D02*

%ADD10C,0.010000*%
%ADD11C,0.009000*%
%ADD12C,0.007000*%

%LPD*%
%LNVIA PAD TRACK COPPERAREA*%
G54D10*
G01X14000Y13350D02*
G01X14000Y19050D01*
G01X14000Y13350D02*
G01X4250Y13350D01*
G01X14000Y19050D02*
G01X4250Y19050D01*
G01X4250Y13350D01*
G01X10800Y18500D02*
G01X8700Y18500D01*
G01X8700Y16550D01*
G01X10800Y16550D01*
G01X10800Y16550D02*
G01X10800Y18500D01*
G01X10800Y14350D02*
G01X10800Y15850D01*
G01X9300Y15850D01*
G01X9300Y14350D01*
G01X10800Y14350D01*
G01X12800Y14200D02*
G01X12200Y14200D01*
G01X12000Y14400D01*
G01X12000Y15000D01*
G01X12200Y15200D01*
G01X12000Y15400D01*
G01X12000Y16000D01*
G01X12200Y16200D01*
G01X12000Y16400D01*
G01X12000Y17000D01*
G01X12200Y17200D01*
G01X12000Y17400D01*
G01X12000Y18000D01*
G01X12200Y18200D01*
G01X12800Y18200D01*
G01X13000Y18000D01*
G01X13200Y18200D01*
G01X13800Y18200D01*
G01X14000Y18000D01*
G01X14000Y17400D01*
G01X13800Y17200D01*
G01X14000Y17000D01*
G01X14000Y16400D01*
G01X13800Y16200D01*
G01X14000Y16000D01*
G01X14000Y15400D01*
G01X13800Y15200D01*
G01X14000Y15000D01*
G01X14000Y14400D01*
G01X13800Y14200D01*
G01X13200Y14200D01*
G01X13000Y14400D01*
G01X12800Y14200D01*
G01X12700Y14200D01*
G01X7550Y24150D02*
G01X7550Y19650D01*
G01X4050Y19650D01*
G01X4050Y24150D01*
G01X7550Y24150D01*
G01X2780Y18140D02*
G01X2780Y13440D01*
G01X1619Y13440D01*
G01X1600Y13459D01*
G01X1600Y18119D01*
G01X2760Y18119D01*
G54D11*
G01X11000Y20300D02*
G01X14000Y20300D01*
G01X14000Y23300D01*
G01X11000Y23300D01*
G01X11000Y20300D01*
G54D10*
G01X9300Y17400D02*
G01X9300Y15400D01*
G01X9300Y15400D02*
G01X9000Y15400D01*
G01X9000Y15400D02*
G01X8700Y15400D01*
G01X8700Y15400D02*
G01X8700Y17400D01*
G01X8700Y17400D02*
G01X9000Y17400D01*
G01X9000Y17400D02*
G01X9300Y17400D01*
G01X9000Y15400D02*
G01X9000Y15300D01*
G01X9000Y17400D02*
G01X9000Y17500D01*
G01X5100Y16300D02*
G01X5100Y14300D01*
G01X5100Y14300D02*
G01X4800Y14300D01*
G01X4800Y14300D02*
G01X4500Y14300D01*
G01X4500Y14300D02*
G01X4500Y16300D01*
G01X4500Y16300D02*
G01X4800Y16300D01*
G01X4800Y16300D02*
G01X5100Y16300D01*
G01X4800Y14300D02*
G01X4800Y14200D01*
G01X4800Y16300D02*
G01X4800Y16400D01*
G54D12*
G01X100Y17713D02*
G01X140Y17734D01*
G01X201Y17794D01*
G01X201Y17365D01*
G01X357Y17692D02*
G01X357Y17713D01*
G01X378Y17755D01*
G01X398Y17775D01*
G01X440Y17794D01*
G01X521Y17794D01*
G01X561Y17775D01*
G01X582Y17755D01*
G01X603Y17713D01*
G01X603Y17673D01*
G01X582Y17632D01*
G01X542Y17569D01*
G01X336Y17365D01*
G01X623Y17365D01*
G01X407Y16842D02*
G01X386Y16884D01*
G01X344Y16925D01*
G01X305Y16944D01*
G01X223Y16944D01*
G01X182Y16925D01*
G01X140Y16884D01*
G01X119Y16842D01*
G01X100Y16782D01*
G01X100Y16680D01*
G01X119Y16617D01*
G01X140Y16577D01*
G01X182Y16536D01*
G01X223Y16515D01*
G01X305Y16515D01*
G01X344Y16536D01*
G01X386Y16577D01*
G01X407Y16617D01*
G01X407Y16680D01*
G01X305Y16680D02*
G01X407Y16680D01*
G01X542Y16944D02*
G01X542Y16515D01*
G01X542Y16944D02*
G01X828Y16515D01*
G01X828Y16944D02*
G01X828Y16515D01*
G01X963Y16944D02*
G01X963Y16515D01*
G01X963Y16944D02*
G01X1105Y16944D01*
G01X1167Y16925D01*
G01X1209Y16884D01*
G01X1228Y16842D01*
G01X1250Y16782D01*
G01X1250Y16680D01*
G01X1228Y16617D01*
G01X1209Y16577D01*
G01X1167Y16536D01*
G01X1105Y16515D01*
G01X963Y16515D01*
G01X344Y16094D02*
G01X140Y16094D01*
G01X119Y15911D01*
G01X140Y15932D01*
G01X201Y15951D01*
G01X263Y15951D01*
G01X325Y15932D01*
G01X365Y15890D01*
G01X386Y15830D01*
G01X386Y15788D01*
G01X365Y15726D01*
G01X325Y15686D01*
G01X263Y15665D01*
G01X201Y15665D01*
G01X140Y15686D01*
G01X119Y15707D01*
G01X100Y15748D01*
G01X242Y15244D02*
G01X242Y14815D01*
G01X100Y15244D02*
G01X386Y15244D01*
G01X521Y15244D02*
G01X807Y14815D01*
G01X807Y15244D02*
G01X521Y14815D01*
G01X100Y14394D02*
G01X100Y13965D01*
G01X100Y14394D02*
G01X284Y14394D01*
G01X344Y14375D01*
G01X365Y14355D01*
G01X386Y14313D01*
G01X386Y14273D01*
G01X365Y14232D01*
G01X344Y14211D01*
G01X284Y14190D01*
G01X100Y14190D01*
G01X242Y14190D02*
G01X386Y13965D01*
G01X521Y14394D02*
G01X807Y13965D01*
G01X807Y14394D02*
G01X521Y13965D01*
G01X357Y22942D02*
G01X336Y22984D01*
G01X294Y23025D01*
G01X255Y23044D01*
G01X173Y23044D01*
G01X132Y23025D01*
G01X90Y22984D01*
G01X69Y22942D01*
G01X50Y22882D01*
G01X50Y22780D01*
G01X69Y22717D01*
G01X90Y22677D01*
G01X132Y22636D01*
G01X173Y22615D01*
G01X255Y22615D01*
G01X294Y22636D01*
G01X336Y22677D01*
G01X357Y22717D01*
G01X357Y22780D01*
G01X255Y22780D02*
G01X357Y22780D01*
G01X492Y22902D02*
G01X492Y22615D01*
G01X492Y22819D02*
G01X553Y22882D01*
G01X594Y22902D01*
G01X655Y22902D01*
G01X696Y22882D01*
G01X717Y22819D01*
G01X717Y22615D01*
G01X1096Y23044D02*
G01X1096Y22615D01*
G01X1096Y22840D02*
G01X1055Y22882D01*
G01X1015Y22902D01*
G01X953Y22902D01*
G01X913Y22882D01*
G01X871Y22840D01*
G01X851Y22780D01*
G01X851Y22738D01*
G01X871Y22677D01*
G01X913Y22636D01*
G01X953Y22615D01*
G01X1015Y22615D01*
G01X1055Y22636D01*
G01X1096Y22677D01*
G01X50Y22052D02*
G01X173Y21765D01*
G01X294Y22052D02*
G01X173Y21765D01*
G01X532Y22052D02*
G01X492Y22032D01*
G01X451Y21990D01*
G01X430Y21930D01*
G01X430Y21888D01*
G01X451Y21827D01*
G01X492Y21786D01*
G01X532Y21765D01*
G01X594Y21765D01*
G01X634Y21786D01*
G01X676Y21827D01*
G01X696Y21888D01*
G01X696Y21930D01*
G01X676Y21990D01*
G01X634Y22032D01*
G01X594Y22052D01*
G01X532Y22052D01*
G01X830Y22052D02*
G01X830Y21848D01*
G01X851Y21786D01*
G01X892Y21765D01*
G01X953Y21765D01*
G01X994Y21786D01*
G01X1055Y21848D01*
G01X1055Y22052D02*
G01X1055Y21765D01*
G01X1253Y22194D02*
G01X1253Y21848D01*
G01X1273Y21786D01*
G01X1313Y21765D01*
G01X1355Y21765D01*
G01X1190Y22052D02*
G01X1334Y22052D01*
G01X50Y21202D02*
G01X173Y20915D01*
G01X294Y21202D02*
G01X173Y20915D01*
G01X430Y21344D02*
G01X451Y21325D01*
G01X471Y21344D01*
G01X451Y21365D01*
G01X430Y21344D01*
G01X451Y21202D02*
G01X451Y20915D01*
G01X605Y21202D02*
G01X605Y20915D01*
G01X605Y21119D02*
G01X667Y21182D01*
G01X709Y21202D01*
G01X769Y21202D01*
G01X811Y21182D01*
G01X830Y21119D01*
G01X830Y20915D01*
G01X7781Y14550D02*
G01X8164Y14550D01*
G01X7781Y14550D02*
G01X7781Y14786D01*
G01X7964Y14550D02*
G01X7964Y14694D01*
G01X8164Y14550D02*
G01X8164Y14786D01*
G01X7836Y15161D02*
G01X7800Y15125D01*
G01X7781Y15069D01*
G01X7781Y14996D01*
G01X7800Y14942D01*
G01X7836Y14905D01*
G01X7873Y14905D01*
G01X7909Y14925D01*
G01X7927Y14942D01*
G01X7944Y14978D01*
G01X7981Y15088D01*
G01X8000Y15125D01*
G01X8018Y15142D01*
G01X8056Y15161D01*
G01X8109Y15161D01*
G01X8144Y15125D01*
G01X8164Y15069D01*
G01X8164Y14996D01*
G01X8144Y14942D01*
G01X8109Y14905D01*
G01X7781Y15280D02*
G01X8164Y15280D01*
G01X7781Y15280D02*
G01X7781Y15444D01*
G01X7800Y15498D01*
G01X7818Y15517D01*
G01X7856Y15534D01*
G01X7909Y15534D01*
G01X7944Y15517D01*
G01X7964Y15498D01*
G01X7981Y15444D01*
G01X7981Y15280D01*
G01X7781Y15746D02*
G01X7800Y15692D01*
G01X7836Y15673D01*
G01X7873Y15673D01*
G01X7909Y15692D01*
G01X7927Y15728D01*
G01X7944Y15801D01*
G01X7964Y15855D01*
G01X8000Y15892D01*
G01X8036Y15909D01*
G01X8090Y15909D01*
G01X8127Y15892D01*
G01X8144Y15873D01*
G01X8164Y15819D01*
G01X8164Y15746D01*
G01X8144Y15692D01*
G01X8127Y15673D01*
G01X8090Y15655D01*
G01X8036Y15655D01*
G01X8000Y15673D01*
G01X7964Y15709D01*
G01X7944Y15765D01*
G01X7927Y15836D01*
G01X7909Y15873D01*
G01X7873Y15892D01*
G01X7836Y15892D01*
G01X7800Y15873D01*
G01X7781Y15819D01*
G01X7781Y15746D01*
G01X7873Y16048D02*
G01X7856Y16048D01*
G01X7818Y16065D01*
G01X7800Y16084D01*
G01X7781Y16121D01*
G01X7781Y16194D01*
G01X7800Y16230D01*
G01X7818Y16248D01*
G01X7856Y16265D01*
G01X7890Y16265D01*
G01X7927Y16248D01*
G01X7981Y16211D01*
G01X8164Y16030D01*
G01X8164Y16284D01*
G01X7836Y16623D02*
G01X7800Y16605D01*
G01X7781Y16550D01*
G01X7781Y16513D01*
G01X7800Y16459D01*
G01X7856Y16423D01*
G01X7944Y16405D01*
G01X8036Y16405D01*
G01X8109Y16423D01*
G01X8144Y16459D01*
G01X8164Y16513D01*
G01X8164Y16532D01*
G01X8144Y16586D01*
G01X8109Y16623D01*
G01X8056Y16640D01*
G01X8036Y16640D01*
G01X7981Y16623D01*
G01X7944Y16586D01*
G01X7927Y16532D01*
G01X7927Y16513D01*
G01X7944Y16459D01*
G01X7981Y16423D01*
G01X8036Y16405D01*
G01X7836Y16978D02*
G01X7800Y16961D01*
G01X7781Y16905D01*
G01X7781Y16869D01*
G01X7800Y16815D01*
G01X7856Y16778D01*
G01X7944Y16761D01*
G01X8036Y16761D01*
G01X8109Y16778D01*
G01X8144Y16815D01*
G01X8164Y16869D01*
G01X8164Y16888D01*
G01X8144Y16942D01*
G01X8109Y16978D01*
G01X8056Y16996D01*
G01X8036Y16996D01*
G01X7981Y16978D01*
G01X7944Y16942D01*
G01X7927Y16888D01*
G01X7927Y16869D01*
G01X7944Y16815D01*
G01X7981Y16778D01*
G01X8036Y16761D01*
G01X7781Y17505D02*
G01X7800Y17452D01*
G01X7856Y17415D01*
G01X7944Y17396D01*
G01X8000Y17396D01*
G01X8090Y17415D01*
G01X8144Y17452D01*
G01X8164Y17505D01*
G01X8164Y17542D01*
G01X8144Y17596D01*
G01X8090Y17634D01*
G01X8000Y17652D01*
G01X7944Y17652D01*
G01X7856Y17634D01*
G01X7800Y17596D01*
G01X7781Y17542D01*
G01X7781Y17505D01*
G01X7856Y17771D02*
G01X7836Y17807D01*
G01X7781Y17863D01*
G01X8164Y17863D01*
G01X11300Y21900D02*
G01X3055Y15844D02*
G01X3381Y15844D01*
G01X3443Y15823D01*
G01X3464Y15803D01*
G01X3484Y15761D01*
G01X3484Y15721D01*
G01X3464Y15680D01*
G01X3443Y15659D01*
G01X3381Y15638D01*
G01X3340Y15638D01*
G01X3156Y15998D02*
G01X3135Y15998D01*
G01X3094Y16019D01*
G01X3075Y16040D01*
G01X3055Y16080D01*
G01X3055Y16163D01*
G01X3075Y16203D01*
G01X3094Y16223D01*
G01X3135Y16244D01*
G01X3177Y16244D01*
G01X3218Y16223D01*
G01X3280Y16182D01*
G01X3484Y15978D01*
G01X3484Y16265D01*
G01X11356Y24042D02*
G01X11335Y24084D01*
G01X11294Y24125D01*
G01X11255Y24144D01*
G01X11172Y24144D01*
G01X11131Y24125D01*
G01X11090Y24084D01*
G01X11069Y24042D01*
G01X11050Y23982D01*
G01X11050Y23880D01*
G01X11069Y23817D01*
G01X11090Y23777D01*
G01X11131Y23736D01*
G01X11172Y23715D01*
G01X11255Y23715D01*
G01X11294Y23736D01*
G01X11335Y23777D01*
G01X11356Y23817D01*
G01X11593Y24002D02*
G01X11552Y23982D01*
G01X11511Y23940D01*
G01X11492Y23880D01*
G01X11492Y23838D01*
G01X11511Y23777D01*
G01X11552Y23736D01*
G01X11593Y23715D01*
G01X11655Y23715D01*
G01X11696Y23736D01*
G01X11736Y23777D01*
G01X11757Y23838D01*
G01X11757Y23880D01*
G01X11736Y23940D01*
G01X11696Y23982D01*
G01X11655Y24002D01*
G01X11593Y24002D01*
G01X11893Y24002D02*
G01X11893Y23715D01*
G01X11893Y23919D02*
G01X11953Y23982D01*
G01X11994Y24002D01*
G01X12056Y24002D01*
G01X12097Y23982D01*
G01X12118Y23919D01*
G01X12118Y23715D01*
G01X12415Y24144D02*
G01X12375Y24144D01*
G01X12335Y24125D01*
G01X12314Y24063D01*
G01X12314Y23715D01*
G01X12252Y24002D02*
G01X12396Y24002D01*
G01X12551Y24144D02*
G01X12572Y24125D01*
G01X12592Y24144D01*
G01X12572Y24165D01*
G01X12551Y24144D01*
G01X12572Y24002D02*
G01X12572Y23715D01*
G01X12972Y24002D02*
G01X12972Y23675D01*
G01X12952Y23613D01*
G01X12931Y23592D01*
G01X12890Y23573D01*
G01X12830Y23573D01*
G01X12789Y23592D01*
G01X12972Y23940D02*
G01X12931Y23982D01*
G01X12890Y24002D01*
G01X12830Y24002D01*
G01X12789Y23982D01*
G01X12747Y23940D01*
G01X12727Y23880D01*
G01X12727Y23838D01*
G01X12747Y23777D01*
G01X12789Y23736D01*
G01X12830Y23715D01*
G01X12890Y23715D01*
G01X12931Y23736D01*
G01X12972Y23777D01*
G01X13107Y24002D02*
G01X13107Y23798D01*
G01X13127Y23736D01*
G01X13168Y23715D01*
G01X13230Y23715D01*
G01X13271Y23736D01*
G01X13332Y23798D01*
G01X13332Y24002D02*
G01X13332Y23715D01*
G01X13468Y24002D02*
G01X13468Y23715D01*
G01X13468Y23880D02*
G01X13488Y23940D01*
G01X13528Y23982D01*
G01X13569Y24002D01*
G01X13631Y24002D01*
G01X13765Y23880D02*
G01X14011Y23880D01*
G01X14011Y23919D01*
G01X13990Y23961D01*
G01X13971Y23982D01*
G01X13930Y24002D01*
G01X13868Y24002D01*
G01X13827Y23982D01*
G01X13786Y23940D01*
G01X13765Y23880D01*
G01X13765Y23838D01*
G01X13786Y23777D01*
G01X13827Y23736D01*
G01X13868Y23715D01*
G01X13930Y23715D01*
G01X13971Y23736D01*
G01X14011Y23777D01*
G01X9735Y16500D02*
G01X9715Y16540D01*
G01X9655Y16602D01*
G01X10084Y16602D01*
G01X9655Y16859D02*
G01X9675Y16798D01*
G01X9735Y16757D01*
G01X9839Y16736D01*
G01X9900Y16736D01*
G01X10002Y16757D01*
G01X10064Y16798D01*
G01X10084Y16859D01*
G01X10084Y16901D01*
G01X10064Y16961D01*
G01X10002Y17003D01*
G01X9900Y17023D01*
G01X9839Y17023D01*
G01X9735Y17003D01*
G01X9675Y16961D01*
G01X9655Y16901D01*
G01X9655Y16859D01*
G01X9655Y17159D02*
G01X10084Y17159D01*
G01X9797Y17363D02*
G01X10002Y17159D01*
G01X9919Y17240D02*
G01X10084Y17384D01*
G01X5535Y15400D02*
G01X5515Y15440D01*
G01X5455Y15501D01*
G01X5884Y15501D01*
G01X5455Y15759D02*
G01X5475Y15698D01*
G01X5535Y15657D01*
G01X5639Y15636D01*
G01X5700Y15636D01*
G01X5802Y15657D01*
G01X5864Y15698D01*
G01X5884Y15759D01*
G01X5884Y15801D01*
G01X5864Y15861D01*
G01X5802Y15903D01*
G01X5700Y15923D01*
G01X5639Y15923D01*
G01X5535Y15903D01*
G01X5475Y15861D01*
G01X5455Y15801D01*
G01X5455Y15759D01*
G01X5455Y16059D02*
G01X5884Y16059D01*
G01X5597Y16263D02*
G01X5802Y16059D01*
G01X5719Y16140D02*
G01X5884Y16284D01*
G54D10*
G75*
G01X13000Y21800D02*
G03X13000Y21800I-500J0D01*
G01*

M00*
M02*