G04 ---------------------------- Layer name :TOP LAYER*
G04 easyEDA 0.1*
G04 Scale: 100 percent, Rotated: No, Reflected: No *
G04 Dimensions in inches *
G04 leading zeros omitted , absolute positions ,2 integer and 4 * 
%FSLAX24Y24*%
%MOIN*%
G90*
G70D02*

%ADD11R,0.144000X0.080000*%
%ADD12C,0.300000*%
%ADD14C,0.055000*%
%ADD16C,0.074000*%
%ADD18R,0.060000X0.060000*%
%ADD19C,0.060000*%
%ADD21C,0.066000*%

%LPD*%
%LNVIA PAD TRACK COPPERAREA*%
G54D11*
G01X2300Y22900D03*
G01X2300Y21900D03*
G01X2300Y20900D03*
G54D12*
G01X9300Y21900D03*
G54D14*
G01X11500Y20800D03*
G01X13500Y20800D03*
G01X13500Y22800D03*
G01X11500Y22800D03*
G54D16*
G01X9000Y17900D03*
G01X9000Y14900D03*
G01X4800Y16800D03*
G01X4800Y13800D03*
G54D18*
G01X12500Y14700D03*
G54D19*
G01X13500Y14700D03*
G01X12500Y15700D03*
G01X13500Y15700D03*
G01X12500Y16700D03*
G01X13500Y16700D03*
G54D18*
G01X12500Y17700D03*
G54D19*
G01X13500Y17700D03*
G54D11*
G01X2300Y22900D03*
G01X2300Y21900D03*
G01X2300Y20900D03*
G54D12*
G01X9300Y21900D03*
G54D14*
G01X11500Y20800D03*
G01X13500Y20800D03*
G01X13500Y22800D03*
G01X11500Y22800D03*
G54D16*
G01X9000Y17900D03*
G01X9000Y14900D03*
G01X4800Y16800D03*
G01X4800Y13800D03*
G54D18*
G01X12500Y14700D03*
G54D19*
G01X13500Y14700D03*
G01X12500Y15700D03*
G01X13500Y15700D03*
G01X12500Y16700D03*
G01X13500Y16700D03*
G54D18*
G01X12500Y17700D03*
G54D19*
G01X13500Y17700D03*
G54D21*
G01X2469Y15800D02*
G01X1930Y15800D01*
G01X2469Y16800D02*
G01X1930Y16800D01*
G01X2469Y17800D02*
G01X1930Y17800D01*
G01X2469Y14800D02*
G01X1930Y14800D01*
G01X2469Y13800D02*
G01X1930Y13800D01*

M00*
M02*