<?xml version="1.0" encoding="UTF-8" standalone="no"?>
<!DOCTYPE svg PUBLIC "-//W3C//DTD SVG 1.1//EN" "http://www.w3.org/Graphics/SVG/1.1/DTD/svg11.dtd">
<svg version="1.1" xmlns="http://www.w3.org/2000/svg" xmlns:xlink="http://www.w3.org/1999/xlink" preserveAspectRatio="xMidYMid meet" viewBox="0 0 640 640" width="48" height="48"><defs><path d="M507.6 474.66C506.28 476.39 504.93 478.1 503.55 479.79C482.97 504.97 455.25 525.42 421.04 540.63C420.87 540.7 420.7 540.78 420.54 540.86C366.56 566.62 303.42 570.14 242.85 550.81C189.67 533.5 146.41 499.98 114.25 451.18C90.36 412.88 77.84 371.25 76.95 327.35C76.93 326.28 76.93 325.21 76.92 324.14C79.44 324.14 99.58 324.14 102.09 324.14C111.56 324.14 116.3 312.7 109.61 306C105.03 301.43 68.45 264.85 63.88 260.28C59.73 256.13 53.01 256.13 48.86 260.28C44.28 264.85 7.7 301.43 3.13 306C-3.56 312.7 1.18 324.14 10.64 324.14C13.16 324.14 33.33 324.14 35.85 324.14C36.18 377.11 50.88 427.21 79.57 473.13C79.66 473.27 79.75 473.4 79.83 473.53C117.25 530.41 167.82 569.54 230.26 589.87C260.18 599.41 290.66 604.16 320.68 604.16C361.49 604.16 401.45 595.39 437.96 578.01C480.73 558.96 515.15 532.54 540.27 499.49C547.13 490.47 545.37 477.59 536.35 470.74C527.33 463.88 514.45 465.64 507.6 474.66Z" id="b3fI1lgOZK"></path><path d="M604.15 319.92C604.15 314.29 603.98 308.6 603.65 303.01C601.03 258.67 587.83 215.02 565.46 176.76C543.65 139.45 513.08 107.09 477.06 83.16C440.43 58.83 398.03 43.18 354.43 37.91C305.97 32.05 256.69 38.7 211.91 57.13C168 75.21 128.94 104.35 98.96 141.43C91.83 150.23 93.2 163.16 102.01 170.28C110.82 177.41 123.74 176.04 130.87 167.23C132.4 165.34 133.96 163.47 135.55 161.62C160.55 132.55 192.21 109.62 227.53 95.08C265.83 79.32 308 73.64 349.5 78.65C386.78 83.16 423.03 96.54 454.35 117.34C485.19 137.83 511.36 165.54 530.03 197.47C549.16 230.18 560.45 267.51 562.69 305.43C562.83 307.84 562.93 310.27 563.01 312.7C563.08 315.11 563.11 317.52 563.11 319.92C560.59 319.92 540.43 319.92 537.91 319.92C528.44 319.92 523.7 331.36 530.4 338.05C534.97 342.63 571.55 379.21 576.12 383.78C580.27 387.93 587 387.93 591.15 383.78C595.72 379.21 632.3 342.63 636.87 338.05C643.56 331.36 638.82 319.92 629.36 319.92C624.31 319.92 606.67 319.92 604.15 319.92Z" id="b4jyjmJov"></path></defs><g><g><g><use xlink:href="#b3fI1lgOZK" opacity="1" fill="#000000" fill-opacity="1"></use><g><use xlink:href="#b3fI1lgOZK" opacity="1" fill-opacity="0" stroke="#000000" stroke-width="1" stroke-opacity="0"></use></g></g><g><use xlink:href="#b4jyjmJov" opacity="1" fill="#000000" fill-opacity="1"></use><g><use xlink:href="#b4jyjmJov" opacity="1" fill-opacity="0" stroke="#000000" stroke-width="1" stroke-opacity="0"></use></g></g></g></g></svg>