<?xml version="1.0" encoding="UTF-8" standalone="no"?>
<!DOCTYPE svg PUBLIC "-//W3C//DTD SVG 1.1//EN" "http://www.w3.org/Graphics/SVG/1.1/DTD/svg11.dtd">
<svg version="1.1" xmlns="http://www.w3.org/2000/svg" xmlns:xlink="http://www.w3.org/1999/xlink" preserveAspectRatio="xMidYMid meet" viewBox="0 0 48 48" width="48" height="48"><defs><path d="M39.61 37.85L39.62 37.93L39.63 38.01L39.64 38.09L39.64 38.16L39.64 38.24L39.64 38.32L39.63 38.39L39.62 38.47L39.61 38.54L39.59 38.61L39.57 38.69L39.55 38.76L39.53 38.83L39.5 38.9L39.47 38.97L39.43 39.04L39.39 39.1L39.35 39.17L39.31 39.23L39.27 39.29L39.22 39.35L39.17 39.41L39.12 39.47L39.06 39.52L39 39.58L38.94 39.63L38.88 39.68L38.82 39.73L38.75 39.77L38.68 39.81L38.61 39.86L38.54 39.89L38.46 39.93L38.38 39.96L38.3 39.99L38.22 40.02L38.14 40.05L38.05 40.07L38.04 40.07L38.03 40.07L38.01 40.08L38 40.08L37.98 40.08L37.97 40.09L37.96 40.09L37.94 40.09L37.93 40.1L37.91 40.1L37.9 40.1L37.89 40.1L37.87 40.11L37.86 40.11L37.85 40.11L37.83 40.11L37.82 40.11L37.8 40.12L37.79 40.12L37.78 40.12L37.76 40.12L37.75 40.12L37.73 40.12L37.72 40.12L37.71 40.13L37.69 40.13L37.68 40.13L37.66 40.13L37.65 40.13L37.64 40.13L37.62 40.13L37.61 40.13L37.6 40.13L37.58 40.13L37.57 40.13L37.55 40.13L37.54 40.13L37.53 40.13L37.51 40.14L37.5 40.14L37.43 40.13L37.36 40.13L37.29 40.13L37.22 40.12L37.15 40.11L37.08 40.1L37.01 40.08L36.95 40.07L36.88 40.05L36.81 40.03L36.75 40.01L36.68 39.99L36.62 39.96L36.56 39.94L36.5 39.91L36.44 39.88L36.38 39.85L36.32 39.81L36.26 39.78L36.21 39.74L36.15 39.7L36.1 39.66L36.05 39.62L36 39.58L35.95 39.53L35.9 39.49L35.86 39.44L35.81 39.39L35.77 39.34L35.73 39.29L35.69 39.24L35.65 39.18L35.62 39.12L35.59 39.07L35.56 39.01L35.53 38.95L35.5 38.89L35.48 38.83L35.45 38.76L35.43 38.7L32.97 30.39L29.46 28.56L26.13 30.29L26.13 33.99L32.87 40.08L32.93 40.13L32.99 40.19L33.04 40.25L33.09 40.31L33.14 40.38L33.19 40.44L33.23 40.51L33.27 40.58L33.3 40.65L33.34 40.72L33.37 40.79L33.39 40.86L33.42 40.93L33.44 41L33.45 41.07L33.47 41.15L33.48 41.22L33.49 41.29L33.49 41.37L33.49 41.44L33.49 41.52L33.49 41.59L33.48 41.67L33.47 41.74L33.45 41.81L33.44 41.89L33.42 41.96L33.39 42.03L33.37 42.1L33.34 42.17L33.3 42.24L33.27 42.31L33.23 42.38L33.19 42.44L33.14 42.51L33.09 42.57L33.04 42.63L32.99 42.69L32.93 42.75L32.87 42.81L32.83 42.84L32.8 42.87L32.77 42.89L32.74 42.92L32.7 42.94L32.67 42.97L32.64 42.99L32.6 43.01L32.57 43.04L32.53 43.06L32.49 43.08L32.46 43.1L32.42 43.12L32.39 43.14L32.35 43.16L32.31 43.17L32.27 43.19L32.24 43.21L32.2 43.22L32.16 43.23L32.12 43.25L32.08 43.26L32.04 43.27L32 43.29L31.96 43.3L31.92 43.31L31.88 43.32L31.84 43.33L31.8 43.33L31.76 43.34L31.72 43.35L31.68 43.35L31.64 43.36L31.6 43.36L31.56 43.37L31.52 43.37L31.48 43.37L31.43 43.37L31.39 43.38L31.35 43.38L31.31 43.38L31.27 43.37L31.23 43.37L31.19 43.37L31.15 43.37L31.11 43.36L31.06 43.36L31.02 43.35L30.98 43.35L30.94 43.34L30.9 43.33L30.86 43.33L30.82 43.32L30.78 43.31L30.74 43.3L30.7 43.29L30.66 43.27L30.62 43.26L30.58 43.25L30.55 43.23L30.51 43.22L30.47 43.21L30.43 43.19L30.39 43.17L30.36 43.16L30.32 43.14L30.28 43.12L30.25 43.1L30.21 43.08L30.17 43.06L30.14 43.04L30.1 43.01L30.07 42.99L30.03 42.97L30 42.94L29.97 42.92L29.93 42.89L29.9 42.87L29.87 42.84L29.84 42.81L26.13 39.46L26.13 44.32L26.13 44.4L26.12 44.48L26.11 44.56L26.1 44.64L26.09 44.71L26.07 44.79L26.04 44.86L26.02 44.93L25.99 45.01L25.96 45.08L25.93 45.14L25.89 45.21L25.85 45.28L25.81 45.34L25.76 45.4L25.72 45.47L25.67 45.52L25.61 45.58L25.56 45.64L25.5 45.69L25.44 45.74L25.38 45.79L25.32 45.84L25.25 45.88L25.18 45.93L25.11 45.97L25.04 46.01L24.97 46.04L24.9 46.07L24.82 46.1L24.74 46.13L24.66 46.16L24.58 46.18L24.5 46.2L24.42 46.22L24.33 46.23L24.25 46.24L24.16 46.25L24.07 46.25L23.99 46.26L23.9 46.25L23.81 46.25L23.72 46.24L23.64 46.23L23.56 46.22L23.47 46.2L23.39 46.18L23.31 46.16L23.23 46.13L23.15 46.1L23.08 46.07L23 46.04L22.93 46.01L22.86 45.97L22.79 45.93L22.72 45.88L22.66 45.84L22.59 45.79L22.53 45.74L22.47 45.69L22.42 45.64L22.36 45.58L22.31 45.52L22.26 45.47L22.21 45.4L22.17 45.34L22.12 45.28L22.08 45.21L22.05 45.14L22.01 45.08L21.98 45.01L21.95 44.93L21.93 44.86L21.91 44.79L21.89 44.71L21.87 44.64L21.86 44.56L21.85 44.48L21.85 44.4L21.84 44.32L21.84 39.49L18.16 42.81L18.13 42.84L18.1 42.87L18.07 42.89L18.03 42.92L18 42.94L17.97 42.97L17.93 42.99L17.9 43.01L17.86 43.04L17.83 43.06L17.79 43.08L17.75 43.1L17.72 43.12L17.68 43.14L17.64 43.16L17.61 43.17L17.57 43.19L17.53 43.21L17.49 43.22L17.45 43.23L17.42 43.25L17.38 43.26L17.34 43.27L17.3 43.29L17.26 43.3L17.22 43.31L17.18 43.32L17.14 43.33L17.1 43.33L17.06 43.34L17.02 43.35L16.98 43.35L16.94 43.36L16.89 43.36L16.85 43.37L16.81 43.37L16.77 43.37L16.73 43.37L16.69 43.38L16.65 43.38L16.61 43.38L16.57 43.37L16.52 43.37L16.48 43.37L16.44 43.37L16.4 43.36L16.36 43.36L16.32 43.35L16.28 43.35L16.24 43.34L16.2 43.33L16.16 43.33L16.12 43.32L16.08 43.31L16.04 43.3L16 43.29L15.96 43.27L15.92 43.26L15.88 43.25L15.84 43.23L15.8 43.22L15.77 43.21L15.73 43.19L15.69 43.17L15.65 43.16L15.62 43.14L15.58 43.12L15.54 43.1L15.51 43.08L15.47 43.06L15.43 43.04L15.4 43.01L15.36 42.99L15.33 42.97L15.3 42.94L15.26 42.92L15.23 42.89L15.2 42.87L15.17 42.84L15.13 42.81L15.07 42.75L15.01 42.69L14.96 42.63L14.91 42.57L14.86 42.51L14.81 42.44L14.77 42.38L14.73 42.31L14.7 42.24L14.66 42.17L14.63 42.1L14.61 42.03L14.58 41.96L14.56 41.88L14.55 41.81L14.53 41.74L14.52 41.66L14.51 41.59L14.51 41.52L14.51 41.44L14.51 41.37L14.51 41.29L14.52 41.22L14.53 41.15L14.55 41.07L14.56 41L14.58 40.93L14.61 40.86L14.63 40.79L14.66 40.71L14.7 40.65L14.73 40.58L14.77 40.51L14.81 40.44L14.86 40.38L14.91 40.31L14.96 40.25L15.01 40.19L15.07 40.13L15.13 40.08L21.84 34.01L21.84 30.28L18.54 28.56L15.04 30.39L12.57 38.7L12.55 38.76L12.53 38.83L12.5 38.89L12.47 38.95L12.45 39.01L12.41 39.07L12.38 39.12L12.35 39.18L12.31 39.24L12.27 39.29L12.23 39.34L12.19 39.39L12.14 39.44L12.1 39.49L12.05 39.53L12 39.58L11.95 39.62L11.9 39.66L11.85 39.7L11.79 39.74L11.74 39.78L11.68 39.81L11.62 39.85L11.56 39.88L11.5 39.91L11.44 39.94L11.38 39.96L11.32 39.99L11.25 40.01L11.19 40.03L11.12 40.05L11.06 40.07L10.99 40.08L10.92 40.1L10.85 40.11L10.78 40.12L10.71 40.13L10.64 40.13L10.57 40.13L10.5 40.14L10.49 40.14L10.47 40.14L10.46 40.13L10.45 40.13L10.43 40.13L10.42 40.13L10.41 40.13L10.39 40.13L10.38 40.13L10.36 40.13L10.35 40.13L10.34 40.13L10.32 40.13L10.31 40.13L10.29 40.13L10.28 40.12L10.27 40.12L10.25 40.12L10.24 40.12L10.22 40.12L10.21 40.12L10.2 40.12L10.18 40.11L10.17 40.11L10.16 40.11L10.14 40.11L10.13 40.11L10.11 40.1L10.1 40.1L10.09 40.1L10.07 40.1L10.06 40.09L10.04 40.09L10.03 40.09L10.02 40.08L10 40.08L9.99 40.08L9.97 40.08L9.96 40.07L9.95 40.07L9.86 40.05L9.78 40.02L9.7 39.99L9.62 39.96L9.54 39.93L9.47 39.89L9.39 39.86L9.32 39.81L9.25 39.77L9.18 39.73L9.12 39.68L9.06 39.63L9 39.58L8.94 39.52L8.88 39.47L8.83 39.41L8.78 39.35L8.73 39.29L8.69 39.23L8.65 39.17L8.61 39.1L8.57 39.04L8.53 38.97L8.5 38.9L8.48 38.83L8.45 38.76L8.43 38.69L8.41 38.61L8.39 38.54L8.38 38.47L8.37 38.39L8.36 38.32L8.36 38.24L8.36 38.16L8.36 38.09L8.37 38.01L8.38 37.93L8.39 37.85L8.41 37.78L8.43 37.7L9.79 33.12L5.13 35.55L5.1 35.57L5.08 35.58L5.05 35.59L5.02 35.6L5 35.61L4.97 35.63L4.95 35.64L4.92 35.65L4.89 35.66L4.87 35.67L4.84 35.68L4.81 35.69L4.79 35.7L4.76 35.7L4.74 35.71L4.71 35.72L4.68 35.73L4.65 35.74L4.63 35.74L4.6 35.75L4.57 35.76L4.55 35.76L4.52 35.77L4.49 35.77L4.47 35.78L4.44 35.78L4.41 35.79L4.38 35.79L4.36 35.79L4.33 35.8L4.3 35.8L4.28 35.8L4.25 35.8L4.22 35.81L4.19 35.81L4.17 35.81L4.14 35.81L4.11 35.81L4.08 35.81L4.06 35.81L4 35.81L3.95 35.81L3.89 35.81L3.84 35.8L3.78 35.8L3.73 35.79L3.67 35.78L3.62 35.77L3.56 35.76L3.51 35.75L3.46 35.74L3.4 35.72L3.35 35.71L3.3 35.69L3.25 35.67L3.2 35.65L3.15 35.63L3.1 35.61L3.05 35.59L3 35.56L2.95 35.54L2.91 35.51L2.86 35.48L2.81 35.45L2.77 35.42L2.72 35.39L2.68 35.36L2.64 35.33L2.6 35.29L2.55 35.26L2.51 35.22L2.48 35.19L2.44 35.15L2.4 35.11L2.36 35.07L2.33 35.02L2.3 34.98L2.26 34.94L2.23 34.89L2.2 34.85L2.16 34.78L2.12 34.7L2.08 34.63L2.05 34.56L2.02 34.49L2 34.41L1.98 34.34L1.96 34.27L1.94 34.19L1.93 34.12L1.92 34.04L1.92 33.97L1.91 33.89L1.91 33.82L1.92 33.74L1.93 33.67L1.94 33.6L1.95 33.52L1.97 33.45L1.99 33.38L2.01 33.31L2.03 33.24L2.06 33.17L2.1 33.1L2.13 33.03L2.17 32.96L2.21 32.9L2.25 32.84L2.3 32.77L2.35 32.71L2.4 32.65L2.45 32.6L2.51 32.54L2.57 32.49L2.63 32.43L2.7 32.38L2.77 32.33L2.84 32.29L2.91 32.25L2.98 32.2L7.62 29.79L2.59 28.57L2.51 28.55L2.43 28.52L2.35 28.49L2.27 28.46L2.19 28.43L2.11 28.39L2.04 28.36L1.97 28.31L1.9 28.27L1.83 28.23L1.77 28.18L1.71 28.13L1.65 28.08L1.59 28.02L1.53 27.97L1.48 27.91L1.43 27.85L1.38 27.79L1.34 27.73L1.29 27.67L1.25 27.6L1.22 27.54L1.18 27.47L1.15 27.4L1.12 27.33L1.1 27.26L1.08 27.19L1.06 27.11L1.04 27.04L1.03 26.97L1.02 26.89L1.01 26.82L1.01 26.74L1.01 26.66L1.01 26.59L1.02 26.51L1.03 26.43L1.04 26.35L1.06 26.28L1.08 26.2L1.1 26.12L1.13 26.05L1.16 25.97L1.2 25.9L1.23 25.83L1.27 25.77L1.32 25.7L1.36 25.64L1.41 25.57L1.46 25.51L1.51 25.45L1.57 25.4L1.62 25.34L1.68 25.29L1.74 25.24L1.81 25.19L1.87 25.15L1.94 25.11L2.01 25.07L2.08 25.03L2.15 24.99L2.23 24.96L2.3 24.93L2.38 24.9L2.45 24.87L2.53 24.85L2.61 24.83L2.69 24.81L2.77 24.8L2.86 24.79L2.94 24.78L3.02 24.77L3.11 24.77L3.19 24.77L3.28 24.77L3.36 24.78L3.45 24.79L3.53 24.8L3.62 24.81L3.7 24.83L12.87 27.05L16.4 25.21L16.4 21.75L12.91 19.94L3.7 22.17L3.69 22.17L3.67 22.18L3.66 22.18L3.65 22.18L3.63 22.19L3.62 22.19L3.6 22.19L3.59 22.19L3.58 22.2L3.56 22.2L3.55 22.2L3.54 22.2L3.52 22.21L3.51 22.21L3.49 22.21L3.48 22.21L3.47 22.21L3.45 22.22L3.44 22.22L3.42 22.22L3.41 22.22L3.4 22.22L3.38 22.22L3.37 22.23L3.35 22.23L3.34 22.23L3.33 22.23L3.31 22.23L3.3 22.23L3.28 22.23L3.27 22.23L3.26 22.23L3.24 22.23L3.23 22.23L3.22 22.24L3.2 22.24L3.19 22.24L3.17 22.24L3.16 22.24L3.15 22.24L3.08 22.24L3.01 22.23L2.94 22.23L2.87 22.22L2.8 22.21L2.73 22.2L2.66 22.19L2.59 22.17L2.53 22.15L2.46 22.13L2.4 22.11L2.33 22.09L2.27 22.07L2.21 22.04L2.14 22.01L2.08 21.98L2.02 21.95L1.97 21.92L1.91 21.88L1.85 21.84L1.8 21.8L1.75 21.76L1.7 21.72L1.65 21.68L1.6 21.64L1.55 21.59L1.5 21.54L1.46 21.49L1.42 21.44L1.38 21.39L1.34 21.34L1.3 21.28L1.27 21.23L1.23 21.17L1.2 21.11L1.17 21.05L1.15 20.99L1.12 20.93L1.1 20.87L1.08 20.8L1.06 20.72L1.04 20.65L1.03 20.57L1.02 20.49L1.01 20.42L1.01 20.34L1.01 20.26L1.01 20.19L1.02 20.11L1.03 20.04L1.04 19.96L1.06 19.89L1.08 19.81L1.1 19.74L1.12 19.67L1.15 19.6L1.18 19.53L1.22 19.47L1.25 19.4L1.29 19.33L1.34 19.27L1.38 19.21L1.43 19.15L1.48 19.09L1.53 19.03L1.59 18.98L1.65 18.92L1.71 18.87L1.77 18.82L1.83 18.77L1.9 18.73L1.97 18.69L2.04 18.65L2.11 18.61L2.19 18.57L2.27 18.54L2.35 18.51L2.43 18.48L2.51 18.45L2.59 18.43L7.64 17.21L2.99 14.8L2.91 14.76L2.84 14.71L2.77 14.67L2.7 14.62L2.64 14.57L2.57 14.52L2.51 14.46L2.46 14.41L2.4 14.35L2.35 14.29L2.3 14.23L2.25 14.17L2.21 14.11L2.17 14.04L2.13 13.97L2.1 13.91L2.07 13.84L2.04 13.77L2.01 13.7L1.99 13.63L1.97 13.55L1.95 13.48L1.94 13.41L1.93 13.33L1.92 13.26L1.91 13.19L1.91 13.11L1.91 13.04L1.92 12.96L1.93 12.89L1.94 12.81L1.96 12.74L1.97 12.66L2 12.59L2.02 12.52L2.05 12.44L2.08 12.37L2.12 12.3L2.15 12.23L2.2 12.16L2.24 12.09L2.29 12.02L2.34 11.96L2.39 11.9L2.45 11.84L2.51 11.78L2.57 11.73L2.63 11.68L2.69 11.63L2.76 11.58L2.83 11.54L2.89 11.49L2.96 11.45L3.04 11.42L3.11 11.38L3.18 11.35L3.26 11.32L3.34 11.3L3.42 11.27L3.49 11.25L3.57 11.24L3.65 11.22L3.74 11.21L3.82 11.2L3.9 11.19L3.98 11.19L4.06 11.19L4.15 11.19L4.23 11.19L4.31 11.2L4.4 11.21L4.48 11.22L4.56 11.24L4.64 11.26L4.72 11.28L4.81 11.31L4.89 11.34L4.97 11.37L5.04 11.41L5.12 11.44L9.78 13.86L8.43 9.3L8.41 9.22L8.39 9.15L8.38 9.07L8.37 8.99L8.36 8.92L8.36 8.84L8.36 8.76L8.36 8.69L8.37 8.61L8.38 8.54L8.39 8.46L8.41 8.39L8.43 8.31L8.45 8.24L8.48 8.17L8.5 8.1L8.53 8.03L8.57 7.97L8.61 7.9L8.65 7.83L8.69 7.77L8.73 7.71L8.78 7.65L8.83 7.59L8.88 7.53L8.94 7.48L9 7.42L9.06 7.37L9.12 7.32L9.18 7.27L9.25 7.23L9.32 7.19L9.39 7.15L9.47 7.11L9.54 7.07L9.62 7.04L9.7 7.01L9.78 6.98L9.86 6.95L9.95 6.93L10.03 6.91L10.12 6.9L10.2 6.89L10.29 6.88L10.37 6.87L10.46 6.87L10.54 6.87L10.63 6.87L10.71 6.88L10.8 6.89L10.88 6.9L10.96 6.91L11.04 6.93L11.12 6.95L11.2 6.97L11.27 7L11.35 7.03L11.43 7.06L11.5 7.09L11.57 7.13L11.64 7.17L11.71 7.21L11.78 7.25L11.84 7.3L11.91 7.34L11.97 7.39L12.03 7.44L12.08 7.5L12.14 7.56L12.19 7.61L12.24 7.67L12.29 7.74L12.33 7.8L12.38 7.87L12.41 7.93L12.45 8L12.49 8.08L12.52 8.15L12.54 8.22L12.57 8.3L15.02 16.58L18.54 18.4L21.84 16.68L21.84 12.99L15.13 6.93L15.07 6.87L15.01 6.81L14.96 6.75L14.91 6.69L14.86 6.62L14.81 6.56L14.77 6.49L14.73 6.42L14.7 6.36L14.66 6.29L14.63 6.22L14.61 6.15L14.58 6.07L14.56 6L14.55 5.93L14.53 5.85L14.52 5.78L14.51 5.71L14.51 5.63L14.51 5.56L14.51 5.48L14.51 5.41L14.52 5.34L14.53 5.26L14.55 5.19L14.56 5.12L14.58 5.04L14.61 4.97L14.63 4.9L14.66 4.83L14.7 4.76L14.73 4.69L14.77 4.63L14.81 4.56L14.86 4.49L14.91 4.43L14.96 4.37L15.01 4.31L15.07 4.25L15.13 4.19L15.2 4.14L15.26 4.08L15.33 4.03L15.4 3.99L15.47 3.94L15.54 3.9L15.62 3.86L15.69 3.83L15.77 3.8L15.84 3.77L15.92 3.74L16 3.71L16.08 3.69L16.16 3.68L16.24 3.66L16.32 3.65L16.4 3.64L16.48 3.63L16.57 3.63L16.65 3.62L16.73 3.63L16.81 3.63L16.89 3.64L16.98 3.65L17.06 3.66L17.14 3.68L17.22 3.69L17.3 3.71L17.38 3.74L17.45 3.77L17.53 3.8L17.61 3.83L17.68 3.86L17.75 3.9L17.83 3.94L17.9 3.99L17.97 4.03L18.03 4.08L18.1 4.14L18.16 4.19L21.84 7.52L21.84 2.68L21.85 2.6L21.85 2.52L21.86 2.44L21.87 2.36L21.89 2.29L21.91 2.21L21.93 2.14L21.95 2.07L21.98 2L22.01 1.93L22.05 1.86L22.08 1.79L22.12 1.72L22.17 1.66L22.21 1.6L22.26 1.54L22.31 1.48L22.36 1.42L22.42 1.36L22.47 1.31L22.53 1.26L22.59 1.21L22.66 1.16L22.72 1.12L22.79 1.07L22.86 1.03L22.93 1L23 0.96L23.08 0.93L23.15 0.9L23.23 0.87L23.31 0.84L23.39 0.82L23.47 0.8L23.56 0.78L23.64 0.77L23.72 0.76L23.81 0.75L23.9 0.75L23.99 0.74L24.07 0.75L24.16 0.75L24.25 0.76L24.33 0.77L24.42 0.78L24.5 0.8L24.58 0.82L24.66 0.84L24.74 0.87L24.82 0.9L24.9 0.93L24.97 0.96L25.04 1L25.11 1.03L25.18 1.07L25.25 1.12L25.32 1.16L25.38 1.21L25.44 1.26L25.5 1.31L25.56 1.36L25.61 1.42L25.67 1.48L25.72 1.54L25.76 1.6L25.81 1.66L25.85 1.72L25.89 1.79L25.93 1.86L25.96 1.93L25.99 2L26.02 2.07L26.04 2.14L26.07 2.21L26.09 2.29L26.1 2.36L26.11 2.44L26.12 2.52L26.13 2.6L26.13 2.68L26.13 7.54L29.84 4.19L29.9 4.14L29.97 4.08L30.03 4.03L30.1 3.99L30.17 3.94L30.25 3.9L30.32 3.86L30.39 3.83L30.47 3.8L30.55 3.77L30.62 3.74L30.7 3.71L30.78 3.69L30.86 3.68L30.94 3.66L31.02 3.65L31.11 3.64L31.19 3.63L31.27 3.63L31.35 3.62L31.43 3.63L31.52 3.63L31.6 3.64L31.68 3.65L31.76 3.66L31.84 3.68L31.92 3.69L32 3.71L32.08 3.74L32.16 3.77L32.23 3.8L32.31 3.83L32.39 3.86L32.46 3.9L32.53 3.94L32.6 3.99L32.67 4.03L32.74 4.08L32.8 4.14L32.87 4.19L32.93 4.25L32.99 4.31L33.04 4.37L33.09 4.43L33.14 4.49L33.19 4.56L33.23 4.63L33.27 4.69L33.3 4.76L33.34 4.83L33.37 4.9L33.39 4.97L33.42 5.04L33.44 5.12L33.45 5.19L33.47 5.26L33.48 5.34L33.49 5.41L33.49 5.48L33.49 5.56L33.49 5.63L33.49 5.71L33.48 5.78L33.47 5.85L33.45 5.93L33.44 6L33.42 6.07L33.39 6.15L33.37 6.22L33.34 6.29L33.3 6.36L33.27 6.42L33.23 6.49L33.19 6.56L33.14 6.62L33.09 6.69L33.04 6.75L32.99 6.81L32.93 6.87L32.87 6.93L26.13 13.01L26.13 16.66L29.46 18.4L32.98 16.58L35.43 8.3L35.46 8.22L35.48 8.15L35.52 8.08L35.55 8L35.59 7.93L35.63 7.87L35.67 7.8L35.71 7.74L35.76 7.67L35.81 7.61L35.86 7.56L35.92 7.5L35.98 7.45L36.04 7.39L36.1 7.34L36.16 7.3L36.23 7.25L36.29 7.21L36.36 7.17L36.43 7.13L36.5 7.09L36.58 7.06L36.65 7.03L36.73 7L36.81 6.98L36.88 6.95L36.96 6.93L37.04 6.91L37.13 6.9L37.21 6.89L37.29 6.88L37.37 6.87L37.46 6.87L37.54 6.87L37.63 6.87L37.71 6.88L37.8 6.89L37.88 6.9L37.97 6.91L38.05 6.93L38.14 6.95L38.22 6.98L38.3 7.01L38.38 7.04L38.46 7.07L38.54 7.11L38.61 7.15L38.68 7.19L38.75 7.23L38.82 7.27L38.88 7.32L38.94 7.37L39 7.42L39.06 7.48L39.12 7.53L39.17 7.59L39.22 7.65L39.27 7.71L39.31 7.77L39.35 7.83L39.39 7.9L39.43 7.97L39.47 8.03L39.5 8.1L39.53 8.17L39.55 8.24L39.57 8.31L39.59 8.39L39.61 8.46L39.62 8.54L39.63 8.61L39.64 8.69L39.64 8.76L39.64 8.84L39.64 8.92L39.63 8.99L39.62 9.07L39.61 9.15L39.59 9.22L39.57 9.3L38.22 13.86L42.88 11.44L42.96 11.41L43.03 11.37L43.11 11.34L43.19 11.31L43.27 11.28L43.36 11.26L43.44 11.24L43.52 11.22L43.6 11.21L43.69 11.2L43.77 11.19L43.85 11.19L43.93 11.19L44.02 11.19L44.1 11.19L44.18 11.2L44.26 11.21L44.34 11.22L44.42 11.24L44.5 11.25L44.58 11.27L44.66 11.3L44.74 11.32L44.81 11.35L44.89 11.38L44.96 11.42L45.03 11.46L45.1 11.49L45.17 11.54L45.24 11.58L45.31 11.63L45.37 11.68L45.43 11.73L45.49 11.78L45.55 11.84L45.6 11.9L45.66 11.96L45.71 12.02L45.76 12.09L45.8 12.16L45.84 12.23L45.88 12.3L45.92 12.37L45.95 12.44L45.98 12.52L46 12.59L46.03 12.66L46.04 12.74L46.06 12.81L46.07 12.89L46.08 12.96L46.09 13.04L46.09 13.11L46.09 13.19L46.08 13.26L46.07 13.33L46.06 13.41L46.05 13.48L46.03 13.55L46.01 13.63L45.99 13.7L45.96 13.77L45.93 13.84L45.9 13.91L45.87 13.97L45.83 14.04L45.79 14.11L45.75 14.17L45.7 14.23L45.65 14.29L45.6 14.35L45.54 14.41L45.49 14.46L45.43 14.52L45.36 14.57L45.3 14.62L45.23 14.67L45.16 14.71L45.09 14.76L45.01 14.8L40.36 17.21L45.41 18.43L45.49 18.45L45.57 18.48L45.65 18.51L45.73 18.54L45.81 18.57L45.89 18.61L45.96 18.65L46.03 18.69L46.1 18.73L46.17 18.77L46.23 18.82L46.29 18.87L46.35 18.92L46.41 18.98L46.47 19.03L46.52 19.09L46.57 19.15L46.62 19.21L46.66 19.27L46.71 19.33L46.75 19.4L46.78 19.47L46.82 19.53L46.85 19.6L46.88 19.67L46.9 19.74L46.92 19.81L46.94 19.89L46.96 19.96L46.97 20.04L46.98 20.11L46.99 20.19L46.99 20.26L46.99 20.34L46.99 20.42L46.98 20.49L46.97 20.57L46.96 20.65L46.94 20.72L46.92 20.8L46.9 20.87L46.88 20.93L46.85 20.99L46.83 21.05L46.8 21.11L46.77 21.17L46.73 21.23L46.7 21.28L46.66 21.34L46.62 21.39L46.58 21.44L46.54 21.49L46.5 21.54L46.45 21.59L46.4 21.64L46.35 21.68L46.3 21.72L46.25 21.76L46.2 21.8L46.15 21.84L46.09 21.88L46.03 21.92L45.98 21.95L45.92 21.98L45.86 22.01L45.79 22.04L45.73 22.07L45.67 22.09L45.6 22.11L45.54 22.13L45.47 22.15L45.41 22.17L45.34 22.19L45.27 22.2L45.2 22.21L45.13 22.22L45.06 22.23L44.99 22.23L44.92 22.24L44.85 22.24L44.84 22.24L44.83 22.24L44.81 22.24L44.8 22.24L44.78 22.24L44.77 22.23L44.76 22.23L44.74 22.23L44.73 22.23L44.72 22.23L44.7 22.23L44.69 22.23L44.67 22.23L44.66 22.23L44.65 22.23L44.63 22.23L44.62 22.22L44.6 22.22L44.59 22.22L44.58 22.22L44.56 22.22L44.55 22.22L44.53 22.21L44.52 22.21L44.51 22.21L44.49 22.21L44.48 22.21L44.47 22.2L44.45 22.2L44.44 22.2L44.42 22.2L44.41 22.19L44.4 22.19L44.38 22.19L44.37 22.19L44.35 22.18L44.34 22.18L44.33 22.18L44.31 22.17L44.3 22.17L35.09 19.94L31.6 21.75L31.6 25.21L35.13 27.05L44.3 24.83L44.38 24.81L44.47 24.8L44.56 24.78L44.64 24.78L44.73 24.77L44.81 24.77L44.9 24.77L44.98 24.77L45.06 24.78L45.15 24.79L45.23 24.8L45.31 24.81L45.39 24.83L45.47 24.85L45.55 24.87L45.63 24.9L45.7 24.93L45.78 24.96L45.85 24.99L45.92 25.03L45.99 25.07L46.06 25.11L46.13 25.15L46.19 25.19L46.26 25.24L46.32 25.29L46.38 25.34L46.44 25.4L46.49 25.45L46.54 25.51L46.59 25.57L46.64 25.64L46.69 25.7L46.73 25.77L46.77 25.83L46.8 25.9L46.84 25.97L46.87 26.05L46.9 26.12L46.92 26.2L46.94 26.28L46.96 26.35L46.97 26.43L46.98 26.51L46.99 26.59L46.99 26.66L46.99 26.74L46.99 26.82L46.98 26.89L46.97 26.97L46.96 27.04L46.94 27.11L46.93 27.19L46.9 27.26L46.88 27.33L46.85 27.4L46.82 27.47L46.78 27.54L46.75 27.6L46.71 27.67L46.66 27.73L46.62 27.79L46.57 27.85L46.52 27.91L46.47 27.97L46.41 28.02L46.36 28.08L46.3 28.13L46.23 28.18L46.17 28.23L46.1 28.27L46.03 28.31L45.96 28.36L45.89 28.39L45.81 28.43L45.73 28.46L45.65 28.49L45.57 28.52L45.49 28.55L45.41 28.57L40.38 29.79L45.02 32.2L45.09 32.24L45.16 32.29L45.24 32.33L45.3 32.38L45.37 32.43L45.43 32.48L45.49 32.54L45.55 32.59L45.6 32.65L45.65 32.71L45.7 32.77L45.75 32.84L45.79 32.9L45.83 32.96L45.87 33.03L45.91 33.1L45.94 33.17L45.97 33.24L45.99 33.31L46.01 33.38L46.03 33.45L46.05 33.52L46.06 33.6L46.07 33.67L46.08 33.74L46.09 33.82L46.09 33.89L46.09 33.97L46.08 34.04L46.07 34.12L46.06 34.19L46.04 34.27L46.03 34.34L46 34.41L45.98 34.49L45.95 34.56L45.92 34.63L45.88 34.7L45.84 34.78L45.8 34.85L45.77 34.89L45.74 34.94L45.7 34.98L45.67 35.02L45.64 35.07L45.6 35.11L45.56 35.15L45.53 35.18L45.49 35.22L45.45 35.26L45.41 35.29L45.36 35.33L45.32 35.36L45.28 35.39L45.23 35.42L45.19 35.45L45.14 35.48L45.1 35.51L45.05 35.54L45 35.56L44.95 35.59L44.9 35.61L44.85 35.63L44.8 35.65L44.75 35.67L44.7 35.69L44.65 35.71L44.6 35.72L44.54 35.74L44.49 35.75L44.44 35.76L44.38 35.77L44.33 35.78L44.27 35.79L44.22 35.8L44.16 35.8L44.11 35.81L44.05 35.81L44 35.81L43.94 35.81L43.92 35.81L43.89 35.81L43.86 35.81L43.83 35.81L43.81 35.81L43.78 35.81L43.75 35.8L43.73 35.8L43.7 35.8L43.67 35.8L43.64 35.79L43.62 35.79L43.59 35.79L43.56 35.78L43.53 35.78L43.51 35.77L43.48 35.77L43.45 35.76L43.43 35.76L43.4 35.75L43.37 35.74L43.35 35.74L43.32 35.73L43.29 35.72L43.27 35.71L43.24 35.7L43.21 35.7L43.19 35.69L43.16 35.68L43.13 35.67L43.11 35.66L43.08 35.65L43.05 35.64L43.03 35.63L43 35.61L42.98 35.6L42.95 35.59L42.93 35.58L42.9 35.57L42.87 35.55L38.21 33.12L39.57 37.7L39.59 37.78L39.61 37.85ZM20.69 25.21L24 26.94L27.32 25.21L27.32 21.75L24 20.02L20.68 21.75L20.69 25.21Z" id="c11DioQEMZ"></path></defs><g><g><g><use xlink:href="#c11DioQEMZ" opacity="1" fill="#000000" fill-opacity="1"></use><g><use xlink:href="#c11DioQEMZ" opacity="1" fill-opacity="0" stroke="#000000" stroke-width="1" stroke-opacity="0"></use></g></g></g></g></svg>