<?xml version="1.0" encoding="UTF-8" standalone="no"?>
<!DOCTYPE svg PUBLIC "-//W3C//DTD SVG 1.1//EN" "http://www.w3.org/Graphics/SVG/1.1/DTD/svg11.dtd">
<svg version="1.1" xmlns="http://www.w3.org/2000/svg" xmlns:xlink="http://www.w3.org/1999/xlink" preserveAspectRatio="xMidYMid meet" viewBox="0 0 48 48" width="48" height="48"><defs><path d="M21.13 23.86C21.15 21.7 22.38 19.93 24.03 19.69C25.58 19.62 26.89 21.4 26.88 23.57C26.87 24.84 26.82 35 26.81 36.26C26.8 38.43 25.47 40.35 23.91 40.43C23.14 40.32 22.48 40.04 21.94 39.3C21.39 38.55 21.17 37.63 21.07 36.56C21.08 35.28 21.13 25.13 21.13 23.86Z" id="bcQzNX4jx"></path><path d="M17.06 11.03C17.07 6.37 19.71 2.56 23.28 2.07C26.62 1.93 29.47 5.81 29.47 10.49C29.46 13.22 29.42 35.15 29.41 37.88C29.41 42.56 26.54 46.69 23.19 46.84C21.53 46.58 20.1 45.98 18.91 44.36C17.72 42.74 17.25 40.76 17.01 38.44C17.02 35.68 17.07 13.78 17.06 11.03Z" id="c3HIH300n8"></path></defs><g><g><g><use xlink:href="#bcQzNX4jx" opacity="1" fill="#000000" fill-opacity="0"></use><g><use xlink:href="#bcQzNX4jx" opacity="1" fill-opacity="0" stroke="#000000" stroke-width="1" stroke-opacity="0"></use></g></g><g><use xlink:href="#c3HIH300n8" opacity="1" fill="#000000" fill-opacity="1"></use><g><use xlink:href="#c3HIH300n8" opacity="1" fill-opacity="0" stroke="#000000" stroke-width="1" stroke-opacity="0"></use></g></g></g></g></svg>