<?xml version="1.0" encoding="UTF-8" standalone="no"?>
<!DOCTYPE svg PUBLIC "-//W3C//DTD SVG 1.1//EN" "http://www.w3.org/Graphics/SVG/1.1/DTD/svg11.dtd">
<svg version="1.1" xmlns="http://www.w3.org/2000/svg" xmlns:xlink="http://www.w3.org/1999/xlink" preserveAspectRatio="xMidYMid meet" viewBox="0 0 48 48" width="48" height="48"><defs><path d="M36.18 0.03L36.34 0.06L36.5 0.11L36.65 0.17L36.8 0.24L36.94 0.32L37.07 0.42L37.2 0.52L37.31 0.64L37.42 0.76L37.51 0.89L37.6 1.03L37.68 1.18L37.74 1.34L44.09 19.43L44.26 19.98L44.4 20.52L44.5 21.07L44.56 21.62L44.59 22.18L44.59 22.72L44.55 23.27L44.47 23.81L44.36 24.35L44.21 24.88L44.03 25.4L43.82 25.91L43.57 26.41L43.29 26.9L42.98 27.38L42.63 27.83L42.26 28.26L41.87 28.66L41.46 29.03L41.03 29.38L40.58 29.69L40.11 29.97L39.62 30.22L39.12 30.44L38.6 30.63L38.07 30.78L37.53 30.91L36.98 30.99L36.42 31.05L35.85 31.06L35.28 31.05L34.71 30.99L34.16 30.91L33.62 30.78L33.09 30.63L32.58 30.44L32.07 30.22L31.59 29.97L31.12 29.69L30.67 29.38L30.23 29.03L29.82 28.66L29.43 28.26L29.06 27.83L28.72 27.38L28.4 26.9L28.12 26.41L27.87 25.91L27.66 25.4L27.48 24.88L27.33 24.35L27.22 23.81L27.15 23.27L27.11 22.72L27.1 22.18L27.13 21.62L27.19 21.07L27.29 20.52L27.43 19.98L27.6 19.43L33.96 1.34L34.02 1.18L34.09 1.03L34.18 0.89L34.27 0.76L34.38 0.64L34.5 0.52L34.62 0.42L34.75 0.32L34.89 0.24L35.04 0.17L35.19 0.11L35.35 0.06L35.51 0.03L35.68 0.01L35.85 0L36.02 0.01L36.18 0.03ZM31.23 21.31L31.14 21.87L31.11 22.43L31.16 22.98L31.27 23.53L31.44 24.06L31.68 24.57L31.99 25.06L32.35 25.51L32.75 25.91L33.19 26.25L33.67 26.53L34.18 26.76L34.71 26.92L35.27 27.02L35.85 27.06L36.42 27.02L36.98 26.92L37.51 26.76L38.02 26.53L38.5 26.25L38.94 25.91L39.34 25.51L39.7 25.06L40.01 24.57L40.25 24.06L40.43 23.53L40.54 22.98L40.58 22.43L40.56 21.87L40.47 21.31L40.31 20.76L35.85 8.06L31.39 20.76L31.23 21.31Z" id="aL2FlU6UR"></path><path d="M20.91 21.53L21.04 21.57L21.18 21.62L21.32 21.69L21.47 21.78L21.61 21.88L21.76 22L21.91 22.14L22.06 22.29L22.22 22.46L22.37 22.64L22.53 22.84L27.81 37.88L27.98 38.42L28.11 38.97L28.19 39.52L28.24 40.07L28.24 40.63L28.2 41.18L28.13 41.73L28.01 42.27L27.85 42.8L27.66 43.32L27.43 43.83L27.15 44.32L26.84 44.79L26.5 45.24L26.13 45.66L25.73 46.05L25.3 46.41L24.85 46.73L24.38 47.02L23.88 47.27L23.37 47.49L22.85 47.67L22.31 47.81L21.76 47.92L21.21 47.98L20.64 48L20.08 47.98L19.52 47.92L18.97 47.81L18.43 47.67L17.91 47.49L17.4 47.27L16.91 47.02L16.43 46.73L15.98 46.41L15.56 46.05L15.16 45.66L14.78 45.24L14.44 44.79L14.13 44.32L13.86 43.83L13.62 43.32L13.43 42.8L13.27 42.27L13.16 41.73L13.08 41.18L13.04 40.63L13.05 40.07L13.09 39.52L13.17 38.97L13.3 38.42L13.47 37.88L18.75 22.84L18.82 22.66L18.91 22.49L19.02 22.33L19.13 22.18L19.26 22.04L19.41 21.92L19.56 21.81L19.72 21.72L19.89 21.64L20.07 21.58L20.26 21.53L20.45 21.5L20.64 21.5L20.77 21.5L20.91 21.53ZM17.1 39.77L17.04 40.33L17.08 40.9L17.2 41.45L17.41 41.98L17.71 42.47L18.08 42.92L18.51 43.3L18.99 43.59L19.51 43.81L20.06 43.95L20.64 43.99L21.22 43.95L21.77 43.81L22.29 43.59L22.77 43.3L23.2 42.92L23.57 42.47L23.87 41.98L24.08 41.45L24.2 40.9L24.24 40.33L24.18 39.77L24.03 39.21L20.64 29.55L17.25 39.21L17.1 39.77Z" id="a1u3LfaDOF"></path><path d="M10.03 3.09L10.26 3.17L10.48 3.27L10.69 3.4L10.88 3.55L11.05 3.73L11.2 3.92L11.32 4.14L11.42 4.37L15.31 15.44L15.48 16.01L15.59 16.59L15.65 17.17L15.65 17.75L15.6 18.33L15.49 18.9L15.33 19.45L15.11 20L14.85 20.52L14.53 21.02L14.16 21.48L13.76 21.91L13.32 22.29L12.85 22.63L12.34 22.92L11.82 23.16L11.27 23.35L10.7 23.49L10.12 23.57L9.53 23.6L8.94 23.57L8.36 23.49L7.79 23.35L7.24 23.16L6.72 22.92L6.22 22.63L5.74 22.29L5.3 21.91L4.9 21.48L4.53 21.02L4.21 20.52L3.95 20L3.73 19.45L3.57 18.9L3.46 18.33L3.41 17.75L3.41 17.17L3.47 16.59L3.58 16.01L3.75 15.44L7.64 4.37L7.74 4.14L7.86 3.92L8.01 3.73L8.18 3.55L8.37 3.4L8.58 3.27L8.8 3.17L9.03 3.09L9.28 3.04L9.53 3.03L9.78 3.04L10.03 3.09ZM7.42 17.27L7.43 17.77L7.56 18.25L7.8 18.7L8.14 19.08L8.56 19.36L9.02 19.53L9.53 19.59L10.04 19.53L10.5 19.36L10.92 19.08L11.26 18.7L11.5 18.25L11.63 17.77L11.64 17.27L11.53 16.77L9.53 11.08L7.53 16.77L7.42 17.27Z" id="aq24dUoky"></path></defs><g><g><g><use xlink:href="#aL2FlU6UR" opacity="1" fill="#000000" fill-opacity="1"></use><g><use xlink:href="#aL2FlU6UR" opacity="1" fill-opacity="0" stroke="#000000" stroke-width="1" stroke-opacity="0"></use></g></g><g><use xlink:href="#a1u3LfaDOF" opacity="1" fill="#000000" fill-opacity="1"></use><g><use xlink:href="#a1u3LfaDOF" opacity="1" fill-opacity="0" stroke="#000000" stroke-width="1" stroke-opacity="0"></use></g></g><g><use xlink:href="#aq24dUoky" opacity="1" fill="#000000" fill-opacity="1"></use><g><use xlink:href="#aq24dUoky" opacity="1" fill-opacity="0" stroke="#000000" stroke-width="1" stroke-opacity="0"></use></g></g></g></g></svg>