<?xml version="1.0" encoding="UTF-8" standalone="no"?>
<!DOCTYPE svg PUBLIC "-//W3C//DTD SVG 1.1//EN" "http://www.w3.org/Graphics/SVG/1.1/DTD/svg11.dtd">
<svg version="1.1" xmlns="http://www.w3.org/2000/svg" xmlns:xlink="http://www.w3.org/1999/xlink" preserveAspectRatio="xMidYMid meet" viewBox="0 0 640 640" width="48" height="48"><defs><path d="M338.97 0.77L348.31 1.72L357.53 3.04L366.63 4.72L375.61 6.74L384.45 9.12L393.15 11.83L401.7 14.87L410.09 18.23L418.32 21.91L426.37 25.9L434.25 30.18L441.94 34.76L449.44 39.62L456.73 44.76L463.82 50.17L470.68 55.83L477.33 61.76L483.74 67.93L489.91 74.34L495.83 80.98L501.5 87.85L506.91 94.94L512.05 102.23L516.91 109.73L521.49 117.42L525.77 125.29L529.76 133.35L533.43 141.58L536.8 149.97L539.84 158.52L542.55 167.22L544.92 176.06L546.95 185.04L548.63 194.14L549.95 203.36L550.9 212.69L551.47 222.13L551.67 231.67L551.49 240.78L550.96 249.8L550.1 258.73L548.89 267.56L547.36 276.28L545.5 284.88L543.33 293.37L540.84 301.73L538.06 309.95L534.97 318.03L531.6 325.97L527.94 333.75L524 341.37L519.8 348.83L515.33 356.11L510.6 363.21L505.62 370.13L500.4 376.85L494.94 383.38L489.25 389.7L483.33 395.8L477.2 401.69L470.85 407.35L464.3 412.78L457.55 417.97L450.61 422.91L443.48 427.6L436.18 432.04L428.7 436.21L421.05 440.1L413.25 443.72L405.29 447.06L397.19 450.1L388.95 452.85L380.57 455.29L372.07 457.42L363.45 459.24L354.72 460.73L345.87 461.89L336.93 462.71L336.93 512.62L376.37 512.62L379.23 512.68L382.06 512.85L384.85 513.14L387.61 513.53L390.34 514.03L393.03 514.64L395.67 515.35L398.28 516.16L400.84 517.07L403.35 518.08L405.82 519.18L408.23 520.38L410.59 521.66L412.89 523.03L415.14 524.49L417.32 526.02L419.44 527.64L421.5 529.34L423.49 531.12L425.41 532.96L427.25 534.88L429.03 536.87L430.73 538.93L432.35 541.05L433.88 543.23L435.34 545.48L436.71 547.78L437.99 550.14L439.19 552.55L440.29 555.02L441.3 557.53L442.21 560.09L443.02 562.7L443.73 565.34L444.34 568.03L444.84 570.76L445.23 573.52L445.52 576.31L445.69 579.14L445.75 581.99L445.75 619.68L445.73 620.52L445.68 621.35L445.6 622.16L445.48 622.97L445.34 623.77L445.16 624.56L444.95 625.34L444.71 626.1L444.45 626.85L444.15 627.59L443.83 628.31L443.48 629.02L443.1 629.71L442.7 630.38L442.28 631.04L441.83 631.68L441.35 632.3L440.86 632.9L440.34 633.49L439.8 634.05L439.23 634.59L438.65 635.11L438.05 635.61L437.43 636.08L436.79 636.53L436.13 636.96L435.46 637.36L434.77 637.73L434.06 638.08L433.34 638.4L432.6 638.7L431.85 638.96L431.09 639.2L430.31 639.41L429.52 639.59L428.72 639.73L427.91 639.85L427.09 639.93L426.26 639.98L425.43 640L214.57 640L213.74 639.98L212.91 639.93L212.09 639.85L211.28 639.73L210.48 639.59L209.69 639.41L208.91 639.2L208.15 638.96L207.4 638.7L206.66 638.4L205.94 638.08L205.23 637.73L204.54 637.36L203.87 636.96L203.21 636.53L202.57 636.08L201.95 635.61L201.35 635.11L200.77 634.59L200.2 634.05L199.66 633.49L199.14 632.9L198.65 632.3L198.17 631.68L197.72 631.04L197.3 630.38L196.9 629.71L196.52 629.02L196.17 628.31L195.85 627.59L195.55 626.85L195.29 626.1L195.05 625.34L194.84 624.56L194.66 623.77L194.52 622.97L194.4 622.16L194.32 621.35L194.27 620.52L194.25 619.68L194.25 581.99L194.31 579.14L194.48 576.31L194.77 573.52L195.16 570.76L195.66 568.03L196.27 565.34L196.98 562.7L197.79 560.09L198.7 557.53L199.71 555.02L200.81 552.55L202.01 550.14L203.29 547.78L204.66 545.48L206.12 543.23L207.65 541.05L209.27 538.93L210.97 536.87L212.75 534.88L214.59 532.96L216.51 531.12L218.5 529.34L220.56 527.64L222.68 526.02L224.86 524.49L227.11 523.03L229.41 521.66L231.77 520.38L234.18 519.18L236.65 518.08L239.16 517.07L241.72 516.16L244.33 515.35L246.97 514.64L249.66 514.03L252.39 513.53L255.15 513.14L257.94 512.85L260.77 512.68L263.63 512.62L296.29 512.62L296.29 462.13L287.59 461.08L278.99 459.7L270.5 458.01L262.12 456.02L253.86 453.72L245.73 451.13L237.73 448.25L229.87 445.08L222.15 441.64L214.59 437.93L207.18 433.96L199.93 429.73L192.85 425.24L185.95 420.51L179.23 415.55L172.7 410.35L166.36 404.92L160.22 399.27L154.29 393.4L148.57 387.33L143.07 381.06L137.79 374.59L132.75 367.93L127.94 361.09L123.37 354.07L119.06 346.87L115 339.52L111.2 332L107.68 324.33L104.42 316.52L101.45 308.56L98.76 300.47L96.37 292.25L94.27 283.91L92.48 275.46L91.01 266.89L89.85 258.23L89.01 249.46L88.5 240.61L88.33 231.67L88.53 222.13L89.1 212.69L90.05 203.36L91.37 194.14L93.05 185.04L95.08 176.06L97.45 167.22L100.16 158.52L103.2 149.97L106.57 141.58L110.24 133.35L114.23 125.29L118.51 117.42L123.09 109.73L127.95 102.23L133.09 94.94L138.5 87.85L144.17 80.98L150.09 74.34L156.26 67.93L162.67 61.76L169.32 55.83L176.18 50.17L183.27 44.76L190.56 39.62L198.06 34.76L205.75 30.18L213.63 25.9L221.68 21.91L229.91 18.23L238.3 14.87L246.85 11.83L255.55 9.12L264.39 6.74L273.37 4.72L282.47 3.04L291.69 1.72L301.03 0.77L310.47 0.19L320 0L329.53 0.19L338.97 0.77ZM262.44 553.29L261.27 553.36L260.11 553.48L258.97 553.64L257.84 553.85L256.73 554.1L255.63 554.4L254.55 554.73L253.49 555.11L252.45 555.53L251.43 555.98L250.43 556.48L249.46 557.01L248.5 557.58L247.57 558.18L246.67 558.82L245.79 559.49L244.94 560.19L244.11 560.92L243.32 561.69L242.55 562.48L241.82 563.31L241.12 564.16L240.45 565.04L239.81 565.94L239.2 566.87L238.64 567.83L238.11 568.8L237.61 569.8L237.16 570.82L236.74 571.86L236.36 572.92L236.03 574L235.73 575.1L235.48 576.21L235.27 577.34L235.11 578.48L234.99 579.64L234.92 580.81L234.89 581.99L234.89 599.36L405.11 599.36L405.11 581.99L405.08 580.81L405.01 579.64L404.89 578.48L404.73 577.34L404.52 576.21L404.27 575.1L403.97 574L403.64 572.92L403.26 571.86L402.84 570.82L402.39 569.8L401.89 568.8L401.36 567.83L400.8 566.87L400.19 565.94L399.56 565.04L398.88 564.16L398.18 563.31L397.45 562.48L396.68 561.69L395.89 560.92L395.06 560.19L394.21 559.49L393.33 558.82L392.43 558.18L391.5 557.58L390.54 557.01L389.57 556.48L388.57 555.98L387.55 555.53L386.51 555.11L385.45 554.73L384.37 554.4L383.27 554.1L382.16 553.85L381.03 553.64L379.89 553.48L378.73 553.36L377.56 553.29L376.38 553.26L263.63 553.26L262.44 553.29ZM304.36 41.28L296.66 42.06L289.06 43.15L281.55 44.53L274.15 46.2L266.86 48.16L259.69 50.4L252.64 52.91L245.72 55.68L238.93 58.71L232.29 62L225.79 65.53L219.45 69.3L213.27 73.31L207.26 77.55L201.42 82.01L195.75 86.68L190.27 91.57L184.99 96.66L179.9 101.94L175.02 107.42L170.34 113.08L165.88 118.92L161.64 124.94L157.64 131.12L153.86 137.46L150.33 143.96L147.04 150.6L144.01 157.38L141.24 164.3L138.73 171.35L136.49 178.53L134.54 185.82L132.86 193.22L131.48 200.72L130.39 208.33L129.61 216.02L129.14 223.81L128.98 231.67L129.14 239.53L129.61 247.31L130.39 255.01L131.48 262.61L132.86 270.12L134.54 277.52L136.49 284.81L138.73 291.98L141.24 299.03L144.01 305.95L147.04 312.74L150.33 319.38L153.86 325.87L157.64 332.22L161.64 338.4L165.88 344.41L170.34 350.25L175.02 355.92L179.9 361.39L184.99 366.68L190.27 371.77L195.75 376.65L201.42 381.33L207.26 385.79L213.27 390.02L219.45 394.03L225.79 397.81L232.29 401.34L238.93 404.62L245.72 407.66L252.64 410.43L259.69 412.94L266.86 415.17L274.15 417.13L281.55 418.8L289.06 420.19L296.66 421.27L304.36 422.06L312.14 422.53L320 422.69L327.86 422.53L335.64 422.06L343.34 421.27L350.94 420.19L358.45 418.8L365.85 417.13L373.14 415.17L380.31 412.94L387.36 410.43L394.28 407.66L401.07 404.62L407.71 401.34L414.21 397.81L420.55 394.03L426.73 390.02L432.74 385.79L438.58 381.33L444.25 376.65L449.73 371.77L455.01 366.68L460.1 361.39L464.98 355.92L469.66 350.25L474.12 344.41L478.36 338.4L482.36 332.22L486.14 325.87L489.67 319.38L492.96 312.74L495.99 305.95L498.76 299.03L501.27 291.98L503.51 284.81L505.46 277.52L507.14 270.12L508.52 262.61L509.61 255.01L510.39 247.31L510.86 239.53L511.02 231.67L510.86 223.81L510.39 216.02L509.61 208.33L508.52 200.72L507.14 193.22L505.46 185.82L503.51 178.53L501.27 171.35L498.76 164.3L495.99 157.38L492.96 150.6L489.67 143.96L486.14 137.46L482.36 131.12L478.36 124.94L474.12 118.92L469.66 113.08L464.98 107.42L460.1 101.94L455.01 96.66L449.73 91.57L444.25 86.68L438.58 82.01L432.74 77.55L426.73 73.31L420.55 69.3L414.21 65.53L407.71 62L401.07 58.71L394.28 55.68L387.36 52.91L380.31 50.4L373.14 48.16L365.85 46.2L358.45 44.53L350.94 43.15L343.34 42.06L335.64 41.28L327.86 40.8L320 40.64L312.14 40.8L304.36 41.28Z" id="e14JBxhZvU"></path><path d="M280.92 267.27C272.35 257.87 267.13 245.38 267.13 231.67C267.13 217.95 272.35 205.46 280.92 196.07C275.07 194.96 228.29 186.08 222.45 184.98C207.43 182.12 193.52 193.64 193.52 208.93C193.52 213.48 193.52 249.86 193.52 254.4C193.52 269.69 207.43 281.21 222.45 278.36C234.14 276.14 275.07 268.38 280.92 267.27Z" id="a8e44n5zQ"></path><path d="M359.09 267.27C364.93 268.38 411.71 277.25 417.56 278.36C432.58 281.21 446.48 269.69 446.48 254.4C446.48 249.86 446.48 213.48 446.48 208.93C446.48 193.64 432.58 182.13 417.56 184.98C411.71 186.08 364.93 194.96 359.09 196.07C367.65 205.46 372.87 217.95 372.87 231.67C372.87 245.38 367.65 257.87 359.09 267.27Z" id="cbdTTssvr"></path><path d="M286.58 190.71C295.69 183.27 307.32 178.8 320 178.8C332.68 178.8 344.31 183.27 353.42 190.71C354.15 189.05 354.72 187.29 355.07 185.45C356.23 179.32 365.53 130.32 366.69 124.2C369.54 109.18 358.02 95.27 342.74 95.27C338.19 95.27 301.81 95.27 297.26 95.27C281.98 95.27 270.46 109.18 273.31 124.2C274.08 128.28 277.96 148.7 284.93 185.45C285.54 187.85 286.09 189.6 286.58 190.71Z" id="b3YAwZyo5"></path><path d="M353.42 272.63C344.31 280.07 332.68 284.54 320 284.54C307.32 284.54 295.69 280.07 286.58 272.63C285.85 274.29 285.28 276.04 284.93 277.89C283.77 284.01 274.47 333.01 273.31 339.14C270.46 354.16 281.98 368.07 297.27 368.07C301.81 368.07 338.19 368.07 342.74 368.07C358.03 368.07 369.54 354.16 366.69 339.14C365.92 335.05 362.05 314.64 355.07 277.89C354.46 275.49 353.91 273.73 353.42 272.63Z" id="ai6plHikM"></path><path d="M320 196.6C300.63 196.6 284.93 212.3 284.93 231.67C284.93 251.04 300.63 266.74 320 266.74C339.37 266.74 355.07 251.04 355.07 231.67C355.07 212.3 339.37 196.6 320 196.6Z" id="bpKK8hrts"></path></defs><g><g><g><use xlink:href="#e14JBxhZvU" opacity="1" fill="#000000" fill-opacity="1"></use><g><use xlink:href="#e14JBxhZvU" opacity="1" fill-opacity="0" stroke="#000000" stroke-width="1" stroke-opacity="0"></use></g></g><g><use xlink:href="#a8e44n5zQ" opacity="1" fill="#000000" fill-opacity="1"></use><g><use xlink:href="#a8e44n5zQ" opacity="1" fill-opacity="0" stroke="#000000" stroke-width="1" stroke-opacity="0"></use></g></g><g><use xlink:href="#cbdTTssvr" opacity="1" fill="#000000" fill-opacity="1"></use><g><use xlink:href="#cbdTTssvr" opacity="1" fill-opacity="0" stroke="#000000" stroke-width="1" stroke-opacity="0"></use></g></g><g><use xlink:href="#b3YAwZyo5" opacity="1" fill="#000000" fill-opacity="1"></use><g><use xlink:href="#b3YAwZyo5" opacity="1" fill-opacity="0" stroke="#000000" stroke-width="1" stroke-opacity="0"></use></g></g><g><use xlink:href="#ai6plHikM" opacity="1" fill="#000000" fill-opacity="1"></use><g><use xlink:href="#ai6plHikM" opacity="1" fill-opacity="0" stroke="#000000" stroke-width="1" stroke-opacity="0"></use></g></g><g><use xlink:href="#bpKK8hrts" opacity="1" fill="#000000" fill-opacity="1"></use><g><use xlink:href="#bpKK8hrts" opacity="1" fill-opacity="0" stroke="#000000" stroke-width="1" stroke-opacity="0"></use></g></g></g></g></svg>