<?xml version="1.0" encoding="UTF-8" standalone="no"?>
<!DOCTYPE svg PUBLIC "-//W3C//DTD SVG 1.1//EN" "http://www.w3.org/Graphics/SVG/1.1/DTD/svg11.dtd">
<svg version="1.1" xmlns="http://www.w3.org/2000/svg" xmlns:xlink="http://www.w3.org/1999/xlink" preserveAspectRatio="xMidYMid meet" viewBox="0 0 48 48" width="48" height="48"><defs><path d="M30.44 8.93C28.26 8.93 26.52 7.17 26.52 4.96C26.52 2.76 28.26 1 30.44 1C31.71 1 41.82 1 43.08 1C45.26 1 47 2.76 47 4.96C47 7.17 45.26 8.93 43.08 8.93C40.55 8.93 31.71 8.93 30.44 8.93Z" id="a6ljDYSQD"></path><path d="M1.25 43.29C1.25 42.01 1.25 31.79 1.25 30.51C1.25 28.31 2.99 26.55 5.17 26.55C7.35 26.55 9.09 28.31 9.09 30.51C9.09 31.79 9.09 42.01 9.09 43.29C9.09 45.49 7.35 47.25 5.17 47.25C2.99 47.25 1.25 45.49 1.25 43.29Z" id="k2tbwc7zFu"></path><path d="M16.06 41.96C15.59 40.77 11.75 31.26 11.27 30.07C10.4 28.09 11.49 25.67 13.45 24.79C15.41 23.9 17.81 25.01 18.68 26.99C19.16 28.18 22.99 37.69 23.47 38.88C24.34 40.86 23.25 43.29 21.29 44.17C20.64 44.17 20.2 44.39 19.77 44.39C18.24 44.39 16.72 43.51 16.06 41.96Z" id="bt1FCyPSy"></path><path d="M29.14 34.92C28.24 34.01 21.1 26.79 20.2 25.89C18.68 24.35 18.68 21.92 20.2 20.16C21.73 18.62 24.34 18.62 25.87 20.16C26.76 21.06 33.91 28.29 34.8 29.19C36.33 30.73 36.33 33.37 34.8 34.92C33.93 35.58 33.06 36.02 31.97 36.02C30.88 36.02 30.01 35.58 29.14 34.92Z" id="bwxh3EXYc"></path><path d="M38.72 23.46C37.55 22.98 28.13 19.1 26.96 18.62C25 17.74 23.91 15.54 24.78 13.33C25.65 11.35 27.83 10.25 30.01 11.13C31.18 11.62 40.6 15.49 41.77 15.98C43.73 16.86 44.82 19.06 43.95 21.26C43.08 22.8 41.77 23.68 40.25 23.68C39.81 23.68 39.16 23.68 38.72 23.46Z" id="a1xlXNqJ3z"></path></defs><g><g><g><use xlink:href="#a6ljDYSQD" opacity="1" fill="#000000" fill-opacity="0.5"></use><g><use xlink:href="#a6ljDYSQD" opacity="1" fill-opacity="0" stroke="#000000" stroke-width="1" stroke-opacity="0"></use></g></g><g><use xlink:href="#k2tbwc7zFu" opacity="1" fill="#000000" fill-opacity="0.5"></use><g><use xlink:href="#k2tbwc7zFu" opacity="1" fill-opacity="0" stroke="#000000" stroke-width="1" stroke-opacity="0"></use></g></g><g><use xlink:href="#bt1FCyPSy" opacity="1" fill="#000000" fill-opacity="1"></use><g><use xlink:href="#bt1FCyPSy" opacity="1" fill-opacity="0" stroke="#000000" stroke-width="1" stroke-opacity="0"></use></g></g><g><use xlink:href="#bwxh3EXYc" opacity="1" fill="#000000" fill-opacity="0.5"></use><g><use xlink:href="#bwxh3EXYc" opacity="1" fill-opacity="0" stroke="#000000" stroke-width="1" stroke-opacity="0"></use></g></g><g><use xlink:href="#a1xlXNqJ3z" opacity="1" fill="#000000" fill-opacity="0.5"></use><g><use xlink:href="#a1xlXNqJ3z" opacity="1" fill-opacity="0" stroke="#000000" stroke-width="1" stroke-opacity="0"></use></g></g></g></g></svg>