<?xml version="1.0" encoding="UTF-8" standalone="no"?>
<!DOCTYPE svg PUBLIC "-//W3C//DTD SVG 1.1//EN" "http://www.w3.org/Graphics/SVG/1.1/DTD/svg11.dtd">
<svg version="1.1" xmlns="http://www.w3.org/2000/svg" xmlns:xlink="http://www.w3.org/1999/xlink" preserveAspectRatio="xMidYMid meet" viewBox="0 0 48 48" width="48" height="48"><defs><path d="M23.06 1.71L23.08 2.11L23.12 2.5L23.17 2.89L23.24 3.26L23.32 3.63L23.41 3.99L23.52 4.34L23.64 4.69L23.79 5.03L23.95 5.37L24.12 5.7L24.32 6.03L24.53 6.35L24.77 6.67L25.02 6.99L25.3 7.3L25.59 7.62L25.91 7.93L26.25 8.24L26.61 8.56L26.99 8.87L27.4 9.18L27.84 9.49L28.29 9.81L28.78 10.12L29.29 10.44L29.82 10.77L30.39 11.09L30.98 11.42L31.48 11.73L31.93 12.08L32.33 12.46L32.69 12.88L33.01 13.33L33.29 13.8L33.53 14.3L33.73 14.82L33.9 15.35L34.04 15.9L34.15 16.46L34.23 17.03L34.28 17.6L34.32 18.17L34.33 18.74L34.33 19.31L34.31 19.87L34.28 20.41L34.23 20.94L34.18 21.45L34.12 21.94L34.05 22.41L33.99 22.85L33.92 23.25L33.85 23.62L33.79 23.96L33.73 24.25L33.69 24.5L33.65 24.71L33.63 24.86L33.62 24.96L33.63 24.96L33.65 24.94L33.7 24.9L33.76 24.83L33.85 24.75L33.94 24.65L34.06 24.53L34.19 24.4L34.34 24.27L34.51 24.12L34.7 23.97L34.9 23.82L35.11 23.67L35.34 23.52L35.59 23.37L35.86 23.23L36.14 23.1L36.43 22.98L36.74 22.87L37.06 22.78L37.4 22.71L37.76 22.65L38.12 22.62L38.5 22.61L38.9 22.64L39.31 22.69L39.73 22.77L40.17 22.88L40.62 23.04L41.08 23.23L41.55 23.46L41.52 23.46L41.47 23.48L41.39 23.53L41.29 23.59L41.17 23.67L41.02 23.78L40.86 23.9L40.69 24.04L40.5 24.21L40.29 24.39L40.08 24.59L39.86 24.81L39.63 25.05L39.39 25.31L39.15 25.59L38.91 25.88L38.67 26.2L38.43 26.53L38.2 26.88L37.97 27.25L37.74 27.64L37.53 28.04L37.32 28.47L37.13 28.91L36.95 29.37L36.79 29.84L36.64 30.34L36.52 30.85L36.41 31.38L36.33 31.92L36.27 32.48L36.03 34.32L35.64 36.04L35.1 37.62L34.42 39.08L33.63 40.41L32.72 41.6L31.72 42.67L30.63 43.61L29.47 44.42L28.25 45.1L26.97 45.64L25.67 46.05L24.33 46.33L22.98 46.48L21.64 46.49L20.3 46.36L18.99 46.1L17.71 45.71L16.48 45.18L15.31 44.51L14.21 43.7L13.2 42.76L12.28 41.68L11.47 40.46L10.77 39.1L10.22 37.6L9.8 35.96L9.54 34.17L9.45 32.25L9.55 30.18L9.83 27.97L9.84 27.99L9.87 28.05L9.92 28.14L9.98 28.25L10.07 28.4L10.17 28.56L10.28 28.74L10.41 28.94L10.55 29.15L10.71 29.37L10.87 29.6L11.05 29.84L11.23 30.07L11.43 30.3L11.63 30.53L11.84 30.74L12.05 30.95L12.27 31.14L12.5 31.32L12.72 31.47L12.95 31.61L13.18 31.71L13.41 31.79L13.63 31.83L13.86 31.84L14.08 31.81L14.3 31.74L14.51 31.62L14.72 31.46L14.92 31.24L15.12 30.98L15.33 30.58L15.5 30.18L15.6 29.77L15.66 29.36L15.68 28.93L15.65 28.5L15.59 28.06L15.5 27.62L15.37 27.16L15.23 26.7L15.06 26.24L14.88 25.76L14.68 25.29L14.48 24.8L14.27 24.31L14.06 23.82L13.86 23.32L13.67 22.81L13.49 22.31L13.32 21.79L13.18 21.28L13.06 20.75L12.97 20.23L12.91 19.7L12.89 19.17L12.92 18.64L12.98 18.1L13.1 17.56L13.27 17.02L13.5 16.48L13.79 15.93L13.9 15.75L14.02 15.58L14.14 15.4L14.28 15.23L14.41 15.07L14.55 14.91L14.7 14.75L14.85 14.6L15.01 14.46L15.17 14.31L15.34 14.18L15.51 14.05L15.68 13.92L15.86 13.81L16.04 13.69L16.22 13.59L16.4 13.49L16.59 13.4L16.78 13.31L16.97 13.23L17.16 13.16L17.35 13.1L17.55 13.05L17.74 13L17.93 12.96L18.13 12.93L18.32 12.91L18.51 12.9L18.7 12.9L18.89 12.91L19.08 12.92L19.02 13.07L18.97 13.24L18.91 13.43L18.86 13.65L18.81 13.88L18.77 14.13L18.74 14.39L18.71 14.67L18.69 14.95L18.67 15.25L18.67 15.55L18.67 15.86L18.69 16.18L18.72 16.49L18.76 16.81L18.81 17.13L18.88 17.44L18.96 17.74L19.06 18.04L19.17 18.34L19.3 18.62L19.45 18.88L19.62 19.14L19.8 19.38L20.01 19.6L20.24 19.8L20.49 19.98L20.76 20.13L21.06 20.27L21.38 20.37L21.72 20.45L21.94 20.47L22.14 20.46L22.34 20.43L22.54 20.38L22.73 20.29L22.9 20.19L23.07 20.05L23.23 19.9L23.38 19.72L23.51 19.52L23.63 19.3L23.74 19.06L23.83 18.8L23.91 18.52L23.96 18.22L24 17.9L24.02 17.57L24.02 17.21L24 16.85L23.96 16.46L23.89 16.06L23.8 15.65L23.68 15.23L23.54 14.79L23.37 14.34L23.17 13.88L22.94 13.4L22.69 12.92L22.4 12.43L22.08 11.93L21.72 11.42L21.51 11.08L21.32 10.72L21.18 10.34L21.06 9.94L20.98 9.53L20.92 9.11L20.9 8.68L20.89 8.24L20.91 7.8L20.96 7.36L21.02 6.91L21.09 6.46L21.18 6.02L21.29 5.58L21.4 5.15L21.52 4.73L21.65 4.31L21.79 3.92L21.93 3.53L22.06 3.17L22.2 2.82L22.33 2.5L22.46 2.2L22.58 1.92L22.69 1.67L22.79 1.46L22.88 1.27L22.95 1.12L23 1L23.04 0.92L23.05 0.89L23.05 1.3L23.06 1.71ZM22.08 30.1L21.7 30.88L21.1 31.58L20.39 32.28L19.68 33.05L19.08 33.99L18.72 35.02L18.51 36.36L18.59 37.84L19.09 39.27L20.13 40.48L21.85 41.28L24.37 41.51L26.39 41.05L27.81 39.96L28.67 38.43L29 36.6L28.81 34.63L28.14 32.71L27.01 30.97L26.08 30.05L25.08 29.33L24.08 28.79L23.17 28.41L22.43 28.16L21.92 28.02L21.73 27.97L22.12 29.15L22.08 30.1Z" id="c1kJnlPDCb"></path></defs><g><g><g><use xlink:href="#c1kJnlPDCb" opacity="1" fill="#000000" fill-opacity="1"></use><g><use xlink:href="#c1kJnlPDCb" opacity="1" fill-opacity="0" stroke="#000000" stroke-width="1" stroke-opacity="0"></use></g></g></g></g></svg>