<?xml version="1.0"?>
<!--Icons from directory ""-->
<svg xmlns="http://www.w3.org/2000/svg" width="50" height="1066" viewBox="0 0 50 1066"><svg xmlns:xlink="http://www.w3.org/1999/xlink" height="48" width="48" version="1.1" preserveAspectRatio="xMidYMid meet" viewBox="0 0 640 640" id="auto" y="0"><defs><path id="auto-b3fI1lgOZK" d="m507.6 474.66c-1.32 1.73-2.67 3.44-4.05 5.13-20.58 25.18-48.3 45.63-82.51 60.84-0.17 0.07-0.34 0.15-0.5 0.23-53.98 25.76-117.12 29.28-177.69 9.95-53.18-17.31-96.44-50.83-128.6-99.63-23.89-38.3-36.41-79.93-37.3-123.83-0.02-1.07-0.02-2.14-0.03-3.21h25.17c9.47 0 14.21-11.44 7.52-18.14-4.58-4.57-41.16-41.15-45.73-45.72-4.15-4.15-10.87-4.15-15.02 0-4.58 4.57-41.16 41.15-45.73 45.72-6.69 6.7-1.95 18.14 7.51 18.14h25.21c0.33 52.97 15.03 103.07 43.72 148.99 0.09 0.14 0.18 0.27 0.26 0.4 37.42 56.88 87.99 96.01 150.43 116.34 29.92 9.54 60.4 14.29 90.42 14.29 40.81 0 80.77-8.77 117.28-26.15 42.77-19.05 77.19-45.47 102.31-78.52 6.86-9.02 5.1-21.9-3.92-28.75-9.02-6.86-21.9-5.1-28.75 3.92z"/><path id="auto-b4jyjmJov" d="m604.15 319.92c0-5.63-0.17-11.32-0.5-16.91-2.62-44.34-15.82-87.99-38.19-126.25-21.81-37.31-52.38-69.67-88.4-93.6-36.63-24.33-79.03-39.98-122.63-45.25-48.46-5.86-97.74 0.79-142.52 19.22-43.91 18.08-82.97 47.22-112.95 84.3-7.13 8.8-5.76 21.73 3.05 28.85 8.81 7.13 21.73 5.76 28.86-3.05 1.53-1.89 3.09-3.76 4.68-5.61 25-29.07 56.66-52 91.98-66.54 38.3-15.76 80.47-21.44 121.97-16.43 37.28 4.51 73.53 17.89 104.85 38.69 30.84 20.49 57.01 48.2 75.68 80.13 19.13 32.71 30.42 70.04 32.66 107.96 0.14 2.41 0.24 4.84 0.32 7.27 0.07 2.41 0.1 4.82 0.1 7.22h-25.2c-9.47 0-14.21 11.44-7.51 18.13 4.57 4.58 41.15 41.16 45.72 45.73 4.15 4.15 10.88 4.15 15.03 0 4.57-4.57 41.15-41.15 45.72-45.73 6.69-6.69 1.95-18.13-7.51-18.13h-25.21z"/></defs><use xlink:href="#auto-b3fI1lgOZK" fill="#000000"/><use stroke-opacity="0" fill-opacity="0" xlink:href="#auto-b3fI1lgOZK" stroke="#000000"/><use xlink:href="#auto-b4jyjmJov" fill="#000000"/><use stroke-opacity="0" fill-opacity="0" xlink:href="#auto-b4jyjmJov" stroke="#000000"/></svg><svg xmlns:xlink="http://www.w3.org/1999/xlink" height="48" width="48" version="1.1" preserveAspectRatio="xMidYMid meet" viewBox="0 0 48 48" id="cool" y="48"><defs><path id="cool-c11DioQEMZ" d="m39.61 37.85l0.01 0.08 0.01 0.08 0.01 0.08v0.07 0.08 0.08l-0.01 0.07-0.01 0.08-0.01 0.07-0.02 0.07-0.02 0.08-0.02 0.07-0.02 0.07-0.03 0.07-0.03 0.07-0.04 0.07-0.04 0.06-0.04 0.07-0.04 0.06-0.04 0.06-0.05 0.06-0.05 0.06-0.05 0.06-0.06 0.05-0.06 0.06-0.06 0.05-0.06 0.05-0.06 0.05-0.07 0.04-0.07 0.04-0.07 0.05-0.07 0.03-0.08 0.04-0.08 0.03-0.08 0.03-0.08 0.03-0.08 0.03-0.09 0.02h-0.01-0.01l-0.02 0.01h-0.01-0.02l-0.01 0.01h-0.01-0.02l-0.01 0.01h-0.02-0.01-0.01l-0.02 0.01h-0.01-0.01-0.02-0.01l-0.02 0.01h-0.01-0.01-0.02-0.01-0.02-0.01l-0.01 0.01h-0.02-0.01-0.02-0.01-0.01-0.02-0.01-0.01-0.02-0.01-0.02-0.01-0.01l-0.02 0.01h-0.01l-0.07-0.01h-0.07-0.07l-0.07-0.01-0.07-0.01-0.07-0.01-0.07-0.02-0.06-0.01-0.07-0.02-0.07-0.02-0.06-0.02-0.07-0.02-0.06-0.03-0.06-0.02-0.06-0.03-0.06-0.03-0.06-0.03-0.06-0.04-0.06-0.03-0.05-0.04-0.06-0.04-0.05-0.04-0.05-0.04-0.05-0.04-0.05-0.05-0.05-0.04-0.04-0.05-0.05-0.05-0.04-0.05-0.04-0.05-0.04-0.05-0.04-0.06-0.03-0.06-0.03-0.05-0.03-0.06-0.03-0.06-0.03-0.06-0.02-0.06-0.03-0.07-0.02-0.06-2.46-8.31-3.51-1.83-3.33 1.73v3.7l6.74 6.09 0.06 0.05 0.06 0.06 0.05 0.06 0.05 0.06 0.05 0.07 0.05 0.06 0.04 0.07 0.04 0.07 0.03 0.07 0.04 0.07 0.03 0.07 0.02 0.07 0.03 0.07 0.02 0.07 0.01 0.07 0.02 0.08 0.01 0.07 0.01 0.07v0.08 0.07 0.08 0.07l-0.01 0.08-0.01 0.07-0.02 0.07-0.01 0.08-0.02 0.07-0.03 0.07-0.02 0.07-0.03 0.07-0.04 0.07-0.03 0.07-0.04 0.07-0.04 0.06-0.05 0.07-0.05 0.06-0.05 0.06-0.05 0.06-0.06 0.06-0.06 0.06-0.04 0.03-0.03 0.03-0.03 0.02-0.03 0.03-0.04 0.02-0.03 0.03-0.03 0.02-0.04 0.02-0.03 0.03-0.04 0.02-0.04 0.02-0.03 0.02-0.04 0.02-0.03 0.02-0.04 0.02-0.04 0.01-0.04 0.02-0.03 0.02-0.04 0.01-0.04 0.01-0.04 0.02-0.04 0.01-0.04 0.01-0.04 0.02-0.04 0.01-0.04 0.01-0.04 0.01-0.04 0.01h-0.04l-0.04 0.01-0.04 0.01h-0.04l-0.04 0.01h-0.04l-0.04 0.01h-0.04-0.04-0.05l-0.04 0.01h-0.04-0.04l-0.04-0.01h-0.04-0.04-0.04l-0.04-0.01h-0.05l-0.04-0.01h-0.04l-0.04-0.01-0.04-0.01h-0.04l-0.04-0.01-0.04-0.01-0.04-0.01-0.04-0.01-0.04-0.02-0.04-0.01-0.04-0.01-0.03-0.02-0.04-0.01-0.04-0.01-0.04-0.02-0.04-0.02-0.03-0.01-0.04-0.02-0.04-0.02-0.03-0.02-0.04-0.02-0.04-0.02-0.03-0.02-0.04-0.03-0.03-0.02-0.04-0.02-0.03-0.03-0.03-0.02-0.04-0.03-0.03-0.02-0.03-0.03-0.03-0.03-3.71-3.35v4.86 0.08l-0.01 0.08-0.01 0.08-0.01 0.08-0.01 0.07-0.02 0.08-0.03 0.07-0.02 0.07-0.03 0.08-0.03 0.07-0.03 0.06-0.04 0.07-0.04 0.07-0.04 0.06-0.05 0.06-0.04 0.07-0.05 0.05-0.06 0.06-0.05 0.06-0.06 0.05-0.06 0.05-0.06 0.05-0.06 0.05-0.07 0.04-0.07 0.05-0.07 0.04-0.07 0.04-0.07 0.03-0.07 0.03-0.08 0.03-0.08 0.03-0.08 0.03-0.08 0.02-0.08 0.02-0.08 0.02-0.09 0.01-0.08 0.01-0.09 0.01h-0.09l-0.08 0.01-0.09-0.01h-0.09l-0.09-0.01-0.08-0.01-0.08-0.01-0.09-0.02-0.08-0.02-0.08-0.02-0.08-0.03-0.08-0.03-0.07-0.03-0.08-0.03-0.07-0.03-0.07-0.04-0.07-0.04-0.07-0.05-0.06-0.04-0.07-0.05-0.06-0.05-0.06-0.05-0.05-0.05-0.06-0.06-0.05-0.06-0.05-0.05-0.05-0.07-0.04-0.06-0.05-0.06-0.04-0.07-0.03-0.07-0.04-0.06-0.03-0.07-0.03-0.08-0.02-0.07-0.02-0.07-0.02-0.08-0.02-0.07-0.01-0.08-0.01-0.08v-0.08l-0.01-0.08v-4.83l-3.68 3.32-0.03 0.03-0.03 0.03-0.03 0.02-0.04 0.03-0.03 0.02-0.03 0.03-0.04 0.02-0.03 0.02-0.04 0.03-0.03 0.02-0.04 0.02-0.04 0.02-0.03 0.02-0.04 0.02-0.04 0.02-0.03 0.01-0.04 0.02-0.04 0.02-0.04 0.01-0.04 0.01-0.03 0.02-0.04 0.01-0.04 0.01-0.04 0.02-0.04 0.01-0.04 0.01-0.04 0.01-0.04 0.01h-0.04l-0.04 0.01-0.04 0.01h-0.04l-0.04 0.01h-0.05l-0.04 0.01h-0.04-0.04-0.04l-0.04 0.01h-0.04-0.04l-0.04-0.01h-0.05-0.04-0.04l-0.04-0.01h-0.04l-0.04-0.01h-0.04l-0.04-0.01-0.04-0.01h-0.04l-0.04-0.01-0.04-0.01-0.04-0.01-0.04-0.01-0.04-0.02-0.04-0.01-0.04-0.01-0.04-0.02-0.04-0.01-0.03-0.01-0.04-0.02-0.04-0.02-0.04-0.01-0.03-0.02-0.04-0.02-0.04-0.02-0.03-0.02-0.04-0.02-0.04-0.02-0.03-0.03-0.04-0.02-0.03-0.02-0.03-0.03-0.04-0.02-0.03-0.03-0.03-0.02-0.03-0.03-0.04-0.03-0.06-0.06-0.06-0.06-0.05-0.06-0.05-0.06-0.05-0.06-0.05-0.07-0.04-0.06-0.04-0.07-0.03-0.07-0.04-0.07-0.03-0.07-0.02-0.07-0.03-0.07-0.02-0.08-0.01-0.07-0.02-0.07-0.01-0.08-0.01-0.07v-0.07-0.08-0.07-0.08l0.01-0.07 0.01-0.07 0.02-0.08 0.01-0.07 0.02-0.07 0.03-0.07 0.02-0.07 0.03-0.08 0.04-0.06 0.03-0.07 0.04-0.07 0.04-0.07 0.05-0.06 0.05-0.07 0.05-0.06 0.05-0.06 0.06-0.06 0.06-0.05 6.71-6.07v-3.73l-3.3-1.72-3.5 1.83-2.47 8.31-0.02 0.06-0.02 0.07-0.03 0.06-0.03 0.06-0.02 0.06-0.04 0.06-0.03 0.05-0.03 0.06-0.04 0.06-0.04 0.05-0.04 0.05-0.04 0.05-0.05 0.05-0.04 0.05-0.05 0.04-0.05 0.05-0.05 0.04-0.05 0.04-0.05 0.04-0.06 0.04-0.05 0.04-0.06 0.03-0.06 0.04-0.06 0.03-0.06 0.03-0.06 0.03-0.06 0.02-0.06 0.03-0.07 0.02-0.06 0.02-0.07 0.02-0.06 0.02-0.07 0.01-0.07 0.02-0.07 0.01-0.07 0.01-0.07 0.01h-0.07-0.07l-0.07 0.01h-0.01-0.02l-0.01-0.01h-0.01-0.02-0.01-0.01-0.02-0.01-0.02-0.01-0.01-0.02-0.01-0.02l-0.01-0.01h-0.01-0.02-0.01-0.02-0.01-0.01l-0.02-0.01h-0.01-0.01-0.02-0.01l-0.02-0.01h-0.01-0.01-0.02l-0.01-0.01h-0.02-0.01l-0.01-0.01h-0.02-0.01-0.02l-0.01-0.01h-0.01l-0.09-0.02-0.08-0.03-0.08-0.03-0.08-0.03-0.08-0.03-0.07-0.04-0.08-0.03-0.07-0.05-0.07-0.04-0.07-0.04-0.06-0.05-0.06-0.05-0.06-0.05-0.06-0.06-0.06-0.05-0.05-0.06-0.05-0.06-0.05-0.06-0.04-0.06-0.04-0.06-0.04-0.07-0.04-0.06-0.04-0.07-0.03-0.07-0.02-0.07-0.03-0.07-0.02-0.07-0.02-0.08-0.02-0.07-0.01-0.07-0.01-0.08-0.01-0.07v-0.08-0.08-0.07l0.01-0.08 0.01-0.08 0.01-0.08 0.02-0.07 0.02-0.08 1.36-4.58-4.66 2.43-0.03 0.02-0.02 0.01-0.03 0.01-0.03 0.01-0.02 0.01-0.03 0.02-0.02 0.01-0.03 0.01-0.03 0.01-0.02 0.01-0.03 0.01-0.03 0.01-0.02 0.01h-0.03l-0.02 0.01-0.03 0.01-0.03 0.01-0.03 0.01h-0.02l-0.03 0.01-0.03 0.01h-0.02l-0.03 0.01h-0.03l-0.02 0.01h-0.03l-0.03 0.01h-0.03-0.02l-0.03 0.01h-0.03-0.02-0.03l-0.03 0.01h-0.03-0.02-0.03-0.03-0.03-0.02-0.06-0.05-0.06l-0.05-0.01h-0.06l-0.05-0.01-0.06-0.01-0.05-0.01-0.06-0.01-0.05-0.01-0.05-0.01-0.06-0.02-0.05-0.01-0.05-0.02-0.05-0.02-0.05-0.02-0.05-0.02-0.05-0.02-0.05-0.02-0.05-0.03-0.05-0.02-0.04-0.03-0.05-0.03-0.05-0.03-0.04-0.03-0.05-0.03-0.04-0.03-0.04-0.03-0.04-0.04-0.05-0.03-0.04-0.04-0.03-0.03-0.04-0.04-0.04-0.04-0.04-0.04-0.03-0.05-0.03-0.04-0.04-0.04-0.03-0.05-0.03-0.04-0.04-0.07-0.04-0.08-0.04-0.07-0.03-0.07-0.03-0.07-0.02-0.08-0.02-0.07-0.02-0.07-0.02-0.08-0.01-0.07-0.01-0.08v-0.07l-0.01-0.08v-0.07l0.01-0.08 0.01-0.07 0.01-0.07 0.01-0.08 0.02-0.07 0.02-0.07 0.02-0.07 0.02-0.07 0.03-0.07 0.04-0.07 0.03-0.07 0.04-0.07 0.04-0.06 0.04-0.06 0.05-0.07 0.05-0.06 0.05-0.06 0.05-0.05 0.06-0.06 0.06-0.05 0.06-0.06 0.07-0.05 0.07-0.05 0.07-0.04 0.07-0.04 0.07-0.05 4.64-2.41-5.03-1.22-0.08-0.02-0.08-0.03-0.08-0.03-0.08-0.03-0.08-0.03-0.08-0.04-0.07-0.03-0.07-0.05-0.07-0.04-0.07-0.04-0.06-0.05-0.06-0.05-0.06-0.05-0.06-0.06-0.06-0.05-0.05-0.06-0.05-0.06-0.05-0.06-0.04-0.06-0.05-0.06-0.04-0.07-0.03-0.06-0.04-0.07-0.03-0.07-0.03-0.07-0.02-0.07-0.02-0.07-0.02-0.08-0.02-0.07-0.01-0.07-0.01-0.08-0.01-0.07v-0.08-0.08-0.07l0.01-0.08 0.01-0.08 0.01-0.08 0.02-0.07 0.02-0.08 0.02-0.08 0.03-0.07 0.03-0.08 0.04-0.07 0.03-0.07 0.04-0.06 0.05-0.07 0.04-0.06 0.05-0.07 0.05-0.06 0.05-0.06 0.06-0.05 0.05-0.06 0.06-0.05 0.06-0.05 0.07-0.05 0.06-0.04 0.07-0.04 0.07-0.04 0.07-0.04 0.07-0.04 0.08-0.03 0.07-0.03 0.08-0.03 0.07-0.03 0.08-0.02 0.08-0.02 0.08-0.02 0.08-0.01 0.09-0.01 0.08-0.01 0.08-0.01h0.09 0.08 0.09l0.08 0.01 0.09 0.01 0.08 0.01 0.09 0.01 0.08 0.02 9.17 2.22 3.53-1.84v-3.46l-3.49-1.81-9.21 2.23h-0.01l-0.02 0.01h-0.01-0.01l-0.02 0.01h-0.01-0.02-0.01l-0.01 0.01h-0.02-0.01-0.01l-0.02 0.01h-0.01-0.02-0.01-0.01l-0.02 0.01h-0.01-0.02-0.01-0.01-0.02l-0.01 0.01h-0.02-0.01-0.01-0.02-0.01-0.02-0.01-0.01-0.02-0.01l-0.01 0.01h-0.02-0.01-0.02-0.01-0.01-0.07l-0.07-0.01h-0.07l-0.07-0.01-0.07-0.01-0.07-0.01-0.07-0.01-0.07-0.02-0.06-0.02-0.07-0.02-0.06-0.02-0.07-0.02-0.06-0.02-0.06-0.03-0.07-0.03-0.06-0.03-0.06-0.03-0.05-0.03-0.06-0.04-0.06-0.04-0.05-0.04-0.05-0.04-0.05-0.04-0.05-0.04-0.05-0.04-0.05-0.05-0.05-0.05-0.04-0.05-0.04-0.05-0.04-0.05-0.04-0.05-0.04-0.06-0.03-0.05-0.04-0.06-0.03-0.06-0.03-0.06-0.02-0.06-0.03-0.06-0.02-0.06-0.02-0.07-0.02-0.08-0.02-0.07-0.01-0.08-0.01-0.08-0.01-0.07v-0.08-0.08-0.07l0.01-0.08 0.01-0.07 0.01-0.08 0.02-0.07 0.02-0.08 0.02-0.07 0.02-0.07 0.03-0.07 0.03-0.07 0.04-0.06 0.03-0.07 0.04-0.07 0.05-0.06 0.04-0.06 0.05-0.06 0.05-0.06 0.05-0.06 0.06-0.05 0.06-0.06 0.06-0.05 0.06-0.05 0.06-0.05 0.07-0.04 0.07-0.04 0.07-0.04 0.07-0.04 0.08-0.04 0.08-0.03 0.08-0.03 0.08-0.03 0.08-0.03 0.08-0.02 5.05-1.22-4.65-2.41-0.08-0.04-0.07-0.05-0.07-0.04-0.07-0.05-0.06-0.05-0.07-0.05-0.06-0.06-0.05-0.05-0.06-0.06-0.05-0.06-0.05-0.06-0.05-0.06-0.04-0.06-0.04-0.07-0.04-0.07-0.03-0.06-0.03-0.07-0.03-0.07-0.03-0.07-0.02-0.07-0.02-0.08-0.02-0.07-0.01-0.07-0.01-0.08-0.01-0.07-0.01-0.07v-0.08-0.07l0.01-0.08 0.01-0.07 0.01-0.08 0.02-0.07 0.01-0.08 0.03-0.07 0.02-0.07 0.03-0.08 0.03-0.07 0.04-0.07 0.03-0.07 0.05-0.07 0.04-0.07 0.05-0.07 0.05-0.06 0.05-0.06 0.06-0.06 0.06-0.06 0.06-0.05 0.06-0.05 0.06-0.05 0.07-0.05 0.07-0.04 0.06-0.05 0.07-0.04 0.08-0.03 0.07-0.04 0.07-0.03 0.08-0.03 0.08-0.02 0.08-0.03 0.07-0.02 0.08-0.01 0.08-0.02 0.09-0.01 0.08-0.01 0.08-0.01h0.08 0.08 0.09 0.08l0.08 0.01 0.09 0.01 0.08 0.01 0.08 0.02 0.08 0.02 0.08 0.02 0.09 0.03 0.08 0.03 0.08 0.03 0.07 0.04 0.08 0.03 4.66 2.42-1.35-4.56-0.02-0.08-0.02-0.07-0.01-0.08-0.01-0.08-0.01-0.07v-0.08-0.08-0.07l0.01-0.08 0.01-0.07 0.01-0.08 0.02-0.07 0.02-0.08 0.02-0.07 0.03-0.07 0.02-0.07 0.03-0.07 0.04-0.06 0.04-0.07 0.04-0.07 0.04-0.06 0.04-0.06 0.05-0.06 0.05-0.06 0.05-0.06 0.06-0.05 0.06-0.06 0.06-0.05 0.06-0.05 0.06-0.05 0.07-0.04 0.07-0.04 0.07-0.04 0.08-0.04 0.07-0.04 0.08-0.03 0.08-0.03 0.08-0.03 0.08-0.03 0.09-0.02 0.08-0.02 0.09-0.01 0.08-0.01 0.09-0.01 0.08-0.01h0.09 0.08 0.09l0.08 0.01 0.09 0.01 0.08 0.01 0.08 0.01 0.08 0.02 0.08 0.02 0.08 0.02 0.07 0.03 0.08 0.03 0.08 0.03 0.07 0.03 0.07 0.04 0.07 0.04 0.07 0.04 0.07 0.04 0.06 0.05 0.07 0.04 0.06 0.05 0.06 0.05 0.05 0.06 0.06 0.06 0.05 0.05 0.05 0.06 0.05 0.07 0.04 0.06 0.05 0.07 0.03 0.06 0.04 0.07 0.04 0.08 0.03 0.07 0.02 0.07 0.03 0.08 2.45 8.28 3.52 1.82 3.3-1.72v-3.69l-6.71-6.06-0.06-0.06-0.06-0.06-0.05-0.06-0.05-0.06-0.05-0.07-0.05-0.06-0.04-0.07-0.04-0.07-0.03-0.06-0.04-0.07-0.03-0.07-0.02-0.07-0.03-0.08-0.02-0.07-0.01-0.07-0.02-0.08-0.01-0.07-0.01-0.07v-0.08-0.07-0.08-0.07l0.01-0.07 0.01-0.08 0.02-0.07 0.01-0.07 0.02-0.08 0.03-0.07 0.02-0.07 0.03-0.07 0.04-0.07 0.03-0.07 0.04-0.06 0.04-0.07 0.05-0.07 0.05-0.06 0.05-0.06 0.05-0.06 0.06-0.06 0.06-0.06 0.07-0.05 0.06-0.06 0.07-0.05 0.07-0.04 0.07-0.05 0.07-0.04 0.08-0.04 0.07-0.03 0.08-0.03 0.07-0.03 0.08-0.03 0.08-0.03 0.08-0.02 0.08-0.01 0.08-0.02 0.08-0.01 0.08-0.01 0.08-0.01h0.09l0.08-0.01 0.08 0.01h0.08l0.08 0.01 0.09 0.01 0.08 0.01 0.08 0.02 0.08 0.01 0.08 0.02 0.08 0.03 0.07 0.03 0.08 0.03 0.08 0.03 0.07 0.03 0.07 0.04 0.08 0.04 0.07 0.05 0.07 0.04 0.06 0.05 0.07 0.06 0.06 0.05 3.68 3.33v-4.84l0.01-0.08v-0.08l0.01-0.08 0.01-0.08 0.02-0.07 0.02-0.08 0.02-0.07 0.02-0.07 0.03-0.07 0.03-0.07 0.04-0.07 0.03-0.07 0.04-0.07 0.05-0.06 0.04-0.06 0.05-0.06 0.05-0.06 0.05-0.06 0.06-0.06 0.05-0.05 0.06-0.05 0.06-0.05 0.07-0.05 0.06-0.04 0.07-0.05 0.07-0.04 0.07-0.03 0.07-0.04 0.08-0.03 0.07-0.03 0.08-0.03 0.08-0.03 0.08-0.02 0.08-0.02 0.09-0.02 0.08-0.01 0.08-0.01 0.09-0.01h0.09l0.09-0.01 0.08 0.01h0.09l0.09 0.01 0.08 0.01 0.09 0.01 0.08 0.02 0.08 0.02 0.08 0.02 0.08 0.03 0.08 0.03 0.08 0.03 0.07 0.03 0.07 0.04 0.07 0.03 0.07 0.04 0.07 0.05 0.07 0.04 0.06 0.05 0.06 0.05 0.06 0.05 0.06 0.05 0.05 0.06 0.06 0.06 0.05 0.06 0.04 0.06 0.05 0.06 0.04 0.06 0.04 0.07 0.04 0.07 0.03 0.07 0.03 0.07 0.03 0.07 0.02 0.07 0.03 0.07 0.02 0.08 0.01 0.07 0.01 0.08 0.01 0.08 0.01 0.08v0.08 4.86l3.71-3.35 0.06-0.05 0.07-0.06 0.06-0.05 0.07-0.04 0.07-0.05 0.08-0.04 0.07-0.04 0.07-0.03 0.08-0.03 0.08-0.03 0.07-0.03 0.08-0.03 0.08-0.02 0.08-0.01 0.08-0.02 0.08-0.01 0.09-0.01 0.08-0.01h0.08l0.08-0.01 0.08 0.01h0.09l0.08 0.01 0.08 0.01 0.08 0.01 0.08 0.02 0.08 0.01 0.08 0.02 0.08 0.03 0.08 0.03 0.07 0.03 0.08 0.03 0.08 0.03 0.07 0.04 0.07 0.04 0.07 0.05 0.07 0.04 0.07 0.05 0.06 0.06 0.07 0.05 0.06 0.06 0.06 0.06 0.05 0.06 0.05 0.06 0.05 0.06 0.05 0.07 0.04 0.07 0.04 0.06 0.03 0.07 0.04 0.07 0.03 0.07 0.02 0.07 0.03 0.07 0.02 0.08 0.01 0.07 0.02 0.07 0.01 0.08 0.01 0.07v0.07 0.08 0.07 0.08l-0.01 0.07-0.01 0.07-0.02 0.08-0.01 0.07-0.02 0.07-0.03 0.08-0.02 0.07-0.03 0.07-0.04 0.07-0.03 0.06-0.04 0.07-0.04 0.07-0.05 0.06-0.05 0.07-0.05 0.06-0.05 0.06-0.06 0.06-0.06 0.06-6.74 6.08v3.65l3.33 1.74 3.52-1.82 2.45-8.28 0.03-0.08 0.02-0.07 0.04-0.07 0.03-0.08 0.04-0.07 0.04-0.06 0.04-0.07 0.04-0.06 0.05-0.07 0.05-0.06 0.05-0.05 0.06-0.06 0.06-0.05 0.06-0.06 0.06-0.05 0.06-0.04 0.07-0.05 0.06-0.04 0.07-0.04 0.07-0.04 0.07-0.04 0.08-0.03 0.07-0.03 0.08-0.03 0.08-0.02 0.07-0.03 0.08-0.02 0.08-0.02 0.09-0.01 0.08-0.01 0.08-0.01 0.08-0.01h0.09 0.08 0.09l0.08 0.01 0.09 0.01 0.08 0.01 0.09 0.01 0.08 0.02 0.09 0.02 0.08 0.03 0.08 0.03 0.08 0.03 0.08 0.03 0.08 0.04 0.07 0.04 0.07 0.04 0.07 0.04 0.07 0.04 0.06 0.05 0.06 0.05 0.06 0.05 0.06 0.06 0.06 0.05 0.05 0.06 0.05 0.06 0.05 0.06 0.04 0.06 0.04 0.06 0.04 0.07 0.04 0.07 0.04 0.06 0.03 0.07 0.03 0.07 0.02 0.07 0.02 0.07 0.02 0.08 0.02 0.07 0.01 0.08 0.01 0.07 0.01 0.08v0.07 0.08 0.08l-0.01 0.07-0.01 0.08-0.01 0.08-0.02 0.07-0.02 0.08-1.35 4.56 4.66-2.42 0.08-0.03 0.07-0.04 0.08-0.03 0.08-0.03 0.08-0.03 0.09-0.02 0.08-0.02 0.08-0.02 0.08-0.01 0.09-0.01 0.08-0.01h0.08 0.08 0.09 0.08l0.08 0.01 0.08 0.01 0.08 0.01 0.08 0.02 0.08 0.01 0.08 0.02 0.08 0.03 0.08 0.02 0.07 0.03 0.08 0.03 0.07 0.04 0.07 0.04 0.07 0.03 0.07 0.05 0.07 0.04 0.07 0.05 0.06 0.05 0.06 0.05 0.06 0.05 0.06 0.06 0.05 0.06 0.06 0.06 0.05 0.06 0.05 0.07 0.04 0.07 0.04 0.07 0.04 0.07 0.04 0.07 0.03 0.07 0.03 0.08 0.02 0.07 0.03 0.07 0.01 0.08 0.02 0.07 0.01 0.08 0.01 0.07 0.01 0.08v0.07 0.08l-0.01 0.07-0.01 0.07-0.01 0.08-0.01 0.07-0.02 0.07-0.02 0.08-0.02 0.07-0.03 0.07-0.03 0.07-0.03 0.07-0.03 0.06-0.04 0.07-0.04 0.07-0.04 0.06-0.05 0.06-0.05 0.06-0.05 0.06-0.06 0.06-0.05 0.05-0.06 0.06-0.07 0.05-0.06 0.05-0.07 0.05-0.07 0.04-0.07 0.05-0.08 0.04-4.65 2.41 5.05 1.22 0.08 0.02 0.08 0.03 0.08 0.03 0.08 0.03 0.08 0.03 0.08 0.04 0.07 0.04 0.07 0.04 0.07 0.04 0.07 0.04 0.06 0.05 0.06 0.05 0.06 0.05 0.06 0.06 0.06 0.05 0.05 0.06 0.05 0.06 0.05 0.06 0.04 0.06 0.05 0.06 0.04 0.07 0.03 0.07 0.04 0.06 0.03 0.07 0.03 0.07 0.02 0.07 0.02 0.07 0.02 0.08 0.02 0.07 0.01 0.08 0.01 0.07 0.01 0.08v0.07 0.08 0.08l-0.01 0.07-0.01 0.08-0.01 0.08-0.02 0.07-0.02 0.08-0.02 0.07-0.02 0.06-0.03 0.06-0.02 0.06-0.03 0.06-0.03 0.06-0.04 0.06-0.03 0.05-0.04 0.06-0.04 0.05-0.04 0.05-0.04 0.05-0.04 0.05-0.05 0.05-0.05 0.05-0.05 0.04-0.05 0.04-0.05 0.04-0.05 0.04-0.05 0.04-0.06 0.04-0.06 0.04-0.05 0.03-0.06 0.03-0.06 0.03-0.07 0.03-0.06 0.03-0.06 0.02-0.07 0.02-0.06 0.02-0.07 0.02-0.06 0.02-0.07 0.02-0.07 0.01-0.07 0.01-0.07 0.01-0.07 0.01h-0.07l-0.07 0.01h-0.07-0.01-0.01-0.02-0.01-0.02l-0.01-0.01h-0.01-0.02-0.01-0.01-0.02-0.01-0.02-0.01-0.01-0.02l-0.01-0.01h-0.02-0.01-0.01-0.02-0.01l-0.02-0.01h-0.01-0.01-0.02-0.01l-0.01-0.01h-0.02-0.01-0.02l-0.01-0.01h-0.01-0.02-0.01l-0.02-0.01h-0.01-0.01l-0.02-0.01h-0.01l-9.21-2.23-3.49 1.81v3.46l3.53 1.84 9.17-2.22 0.08-0.02 0.09-0.01 0.09-0.02h0.08l0.09-0.01h0.08 0.09 0.08l0.08 0.01 0.09 0.01 0.08 0.01 0.08 0.01 0.08 0.02 0.08 0.02 0.08 0.02 0.08 0.03 0.07 0.03 0.08 0.03 0.07 0.03 0.07 0.04 0.07 0.04 0.07 0.04 0.07 0.04 0.06 0.04 0.07 0.05 0.06 0.05 0.06 0.05 0.06 0.06 0.05 0.05 0.05 0.06 0.05 0.06 0.05 0.07 0.05 0.06 0.04 0.07 0.04 0.06 0.03 0.07 0.04 0.07 0.03 0.08 0.03 0.07 0.02 0.08 0.02 0.08 0.02 0.07 0.01 0.08 0.01 0.08 0.01 0.08v0.07 0.08 0.08l-0.01 0.07-0.01 0.08-0.01 0.07-0.02 0.07-0.01 0.08-0.03 0.07-0.02 0.07-0.03 0.07-0.03 0.07-0.04 0.07-0.03 0.06-0.04 0.07-0.05 0.06-0.04 0.06-0.05 0.06-0.05 0.06-0.05 0.06-0.06 0.05-0.05 0.06-0.06 0.05-0.07 0.05-0.06 0.05-0.07 0.04-0.07 0.04-0.07 0.05-0.07 0.03-0.08 0.04-0.08 0.03-0.08 0.03-0.08 0.03-0.08 0.03-0.08 0.02-5.03 1.22 4.64 2.41 0.07 0.04 0.07 0.05 0.08 0.04 0.06 0.05 0.07 0.05 0.06 0.05 0.06 0.06 0.06 0.05 0.05 0.06 0.05 0.06 0.05 0.06 0.05 0.07 0.04 0.06 0.04 0.06 0.04 0.07 0.04 0.07 0.03 0.07 0.03 0.07 0.02 0.07 0.02 0.07 0.02 0.07 0.02 0.07 0.01 0.08 0.01 0.07 0.01 0.07 0.01 0.08v0.07 0.08l-0.01 0.07-0.01 0.08-0.01 0.07-0.02 0.08-0.01 0.07-0.03 0.07-0.02 0.08-0.03 0.07-0.03 0.07-0.04 0.07-0.04 0.08-0.04 0.07-0.03 0.04-0.03 0.05-0.04 0.04-0.03 0.04-0.03 0.05-0.04 0.04-0.04 0.04-0.03 0.03-0.04 0.04-0.04 0.04-0.04 0.03-0.05 0.04-0.04 0.03-0.04 0.03-0.05 0.03-0.04 0.03-0.05 0.03-0.04 0.03-0.05 0.03-0.05 0.02-0.05 0.03-0.05 0.02-0.05 0.02-0.05 0.02-0.05 0.02-0.05 0.02-0.05 0.02-0.05 0.01-0.06 0.02-0.05 0.01-0.05 0.01-0.06 0.01-0.05 0.01-0.06 0.01-0.05 0.01h-0.06l-0.05 0.01h-0.06-0.05-0.06-0.02-0.03-0.03-0.03-0.02-0.03l-0.03-0.01h-0.02-0.03-0.03l-0.03-0.01h-0.02-0.03l-0.03-0.01h-0.03l-0.02-0.01h-0.03l-0.03-0.01h-0.02l-0.03-0.01-0.03-0.01h-0.02l-0.03-0.01-0.03-0.01-0.02-0.01-0.03-0.01h-0.03l-0.02-0.01-0.03-0.01-0.03-0.01-0.02-0.01-0.03-0.01-0.03-0.01-0.02-0.01-0.03-0.02-0.02-0.01-0.03-0.01-0.02-0.01-0.03-0.01-0.03-0.02-4.66-2.43 1.36 4.58 0.02 0.08 0.02 0.07zm-18.92-12.64l3.31 1.73 3.32-1.73v-3.46l-3.32-1.73-3.32 1.73 0.01 3.46z"/></defs><use xlink:href="#cool-c11DioQEMZ" fill="#000000"/><use stroke-opacity="0" fill-opacity="0" xlink:href="#cool-c11DioQEMZ" stroke="#000000"/></svg><svg xmlns:xlink="http://www.w3.org/1999/xlink" height="48" width="48" version="1.1" preserveAspectRatio="xMidYMid meet" viewBox="0 0 48 48" id="down" y="96"><defs><path id="down-bcQzNX4jx" d="m21.13 23.86c0.02-2.16 1.25-3.93 2.9-4.17 1.55-0.07 2.86 1.71 2.85 3.88-0.01 1.27-0.06 11.43-0.07 12.69-0.01 2.17-1.34 4.09-2.9 4.17-0.77-0.11-1.43-0.39-1.97-1.13-0.55-0.75-0.77-1.67-0.87-2.74 0.01-1.28 0.06-11.43 0.06-12.7z"/><path id="down-c3HIH300n8" d="m17.06 11.03c0.01-4.66 2.65-8.47 6.22-8.96 3.34-0.14 6.19 3.74 6.19 8.42-0.01 2.73-0.05 24.66-0.06 27.39 0 4.68-2.87 8.81-6.22 8.96-1.66-0.26-3.09-0.86-4.28-2.48s-1.66-3.6-1.9-5.92c0.01-2.76 0.06-24.66 0.05-27.41z"/></defs><use xlink:href="#down-bcQzNX4jx" fill-opacity="0" fill="#000000"/><use stroke-opacity="0" fill-opacity="0" xlink:href="#down-bcQzNX4jx" stroke="#000000"/><use xlink:href="#down-c3HIH300n8" fill="#000000"/><use stroke-opacity="0" fill-opacity="0" xlink:href="#down-c3HIH300n8" stroke="#000000"/></svg><svg xmlns:xlink="http://www.w3.org/1999/xlink" height="48" width="48" version="1.1" preserveAspectRatio="xMidYMid meet" viewBox="0 0 48 48" id="dry" y="144"><defs><path id="dry-aL2FlU6UR" d="m36.18 0.03l0.16 0.03 0.16 0.05 0.15 0.06 0.15 0.07 0.14 0.08 0.13 0.1 0.13 0.1 0.11 0.12 0.11 0.12 0.09 0.13 0.09 0.14 0.08 0.15 0.06 0.16 6.35 18.09 0.17 0.55 0.14 0.54 0.1 0.55 0.06 0.55 0.03 0.56v0.54l-0.04 0.55-0.08 0.54-0.11 0.54-0.15 0.53-0.18 0.52-0.21 0.51-0.25 0.5-0.28 0.49-0.31 0.48-0.35 0.45-0.37 0.43-0.39 0.4-0.41 0.37-0.43 0.35-0.45 0.31-0.47 0.28-0.49 0.25-0.5 0.22-0.52 0.19-0.53 0.15-0.54 0.13-0.55 0.08-0.56 0.06-0.57 0.01-0.57-0.01-0.57-0.06-0.55-0.08-0.54-0.13-0.53-0.15-0.51-0.19-0.51-0.22-0.48-0.25-0.47-0.28-0.45-0.31-0.44-0.35-0.41-0.37-0.39-0.4-0.37-0.43-0.34-0.45-0.32-0.48-0.28-0.49-0.25-0.5-0.21-0.51-0.18-0.52-0.15-0.53-0.11-0.54-0.07-0.54-0.04-0.55-0.01-0.54 0.03-0.56 0.06-0.55 0.1-0.55 0.14-0.54 0.17-0.55 6.36-18.09 0.06-0.16 0.07-0.15 0.09-0.14 0.09-0.13 0.11-0.12 0.12-0.12 0.12-0.1 0.13-0.1 0.14-0.08 0.15-0.07 0.15-0.06 0.16-0.05 0.16-0.03 0.17-0.02 0.17-0.01 0.17 0.01 0.16 0.02zm-4.95 21.28l-0.09 0.56-0.03 0.56 0.05 0.55 0.11 0.55 0.17 0.53 0.24 0.51 0.31 0.49 0.36 0.45 0.4 0.4 0.44 0.34 0.48 0.28 0.51 0.23 0.53 0.16 0.56 0.1 0.58 0.04 0.57-0.04 0.56-0.1 0.53-0.16 0.51-0.23 0.48-0.28 0.44-0.34 0.4-0.4 0.36-0.45 0.31-0.49 0.24-0.51 0.18-0.53 0.11-0.55 0.04-0.55-0.02-0.56-0.09-0.56-0.16-0.55-4.46-12.7-4.46 12.7-0.16 0.55z"/><path id="dry-a1u3LfaDOF" d="m20.91 21.53l0.13 0.04 0.14 0.05 0.14 0.07 0.15 0.09 0.14 0.1 0.15 0.12 0.15 0.14 0.15 0.15 0.16 0.17 0.15 0.18 0.16 0.2 5.28 15.04 0.17 0.54 0.13 0.55 0.08 0.55 0.05 0.55v0.56l-0.04 0.55-0.07 0.55-0.12 0.54-0.16 0.53-0.19 0.52-0.23 0.51-0.28 0.49-0.31 0.47-0.34 0.45-0.37 0.42-0.4 0.39-0.43 0.36-0.45 0.32-0.47 0.29-0.5 0.25-0.51 0.22-0.52 0.18-0.54 0.14-0.55 0.11-0.55 0.06-0.57 0.02-0.56-0.02-0.56-0.06-0.55-0.11-0.54-0.14-0.52-0.18-0.51-0.22-0.49-0.25-0.48-0.29-0.45-0.32-0.42-0.36-0.4-0.39-0.38-0.42-0.34-0.45-0.31-0.47-0.27-0.49-0.24-0.51-0.19-0.52-0.16-0.53-0.11-0.54-0.08-0.55-0.04-0.55 0.01-0.56 0.04-0.55 0.08-0.55 0.13-0.55 0.17-0.54 5.28-15.04 0.07-0.18 0.09-0.17 0.11-0.16 0.11-0.15 0.13-0.14 0.15-0.12 0.15-0.11 0.16-0.09 0.17-0.08 0.18-0.06 0.19-0.05 0.19-0.03h0.19 0.13l0.14 0.03zm-3.81 18.24l-0.06 0.56 0.04 0.57 0.12 0.55 0.21 0.53 0.3 0.49 0.37 0.45 0.43 0.38 0.48 0.29 0.52 0.22 0.55 0.14 0.58 0.04 0.58-0.04 0.55-0.14 0.52-0.22 0.48-0.29 0.43-0.38 0.37-0.45 0.3-0.49 0.21-0.53 0.12-0.55 0.04-0.57-0.06-0.56-0.15-0.56-3.39-9.66-3.39 9.66-0.15 0.56z"/><path id="dry-aq24dUoky" d="m10.03 3.09l0.23 0.08 0.22 0.1 0.21 0.13 0.19 0.15 0.17 0.18 0.15 0.19 0.12 0.22 0.1 0.23 3.89 11.07 0.17 0.57 0.11 0.58 0.06 0.58v0.58l-0.05 0.58-0.11 0.57-0.16 0.55-0.22 0.55-0.26 0.52-0.32 0.5-0.37 0.46-0.4 0.43-0.44 0.38-0.47 0.34-0.51 0.29-0.52 0.24-0.55 0.19-0.57 0.14-0.58 0.08-0.59 0.03-0.59-0.03-0.58-0.08-0.57-0.14-0.55-0.19-0.52-0.24-0.5-0.29-0.48-0.34-0.44-0.38-0.4-0.43-0.37-0.46-0.32-0.5-0.26-0.52-0.22-0.55-0.16-0.55-0.11-0.57-0.05-0.58v-0.58l0.06-0.58 0.11-0.58 0.17-0.57 3.89-11.07 0.1-0.23 0.12-0.22 0.15-0.19 0.17-0.18 0.19-0.15 0.21-0.13 0.22-0.1 0.23-0.08 0.25-0.05 0.25-0.01 0.25 0.01 0.25 0.05zm-2.61 14.18l0.01 0.5 0.13 0.48 0.24 0.45 0.34 0.38 0.42 0.28 0.46 0.17 0.51 0.06 0.51-0.06 0.46-0.17 0.42-0.28 0.34-0.38 0.24-0.45 0.13-0.48 0.01-0.5-0.11-0.5-2-5.69-2 5.69-0.11 0.5z"/></defs><use xlink:href="#dry-aL2FlU6UR" fill="#000000"/><use stroke-opacity="0" fill-opacity="0" xlink:href="#dry-aL2FlU6UR" stroke="#000000"/><use xlink:href="#dry-a1u3LfaDOF" fill="#000000"/><use stroke-opacity="0" fill-opacity="0" xlink:href="#dry-a1u3LfaDOF" stroke="#000000"/><use xlink:href="#dry-aq24dUoky" fill="#000000"/><use stroke-opacity="0" fill-opacity="0" xlink:href="#dry-aq24dUoky" stroke="#000000"/></svg><svg xmlns:xlink="http://www.w3.org/1999/xlink" height="48" width="48" version="1.1" preserveAspectRatio="xMidYMid meet" viewBox="0 0 640 640" id="fan" y="192"><defs><path id="fan-e14JBxhZvU" d="m338.97 0.77l9.34 0.95 9.22 1.32 9.1 1.68 8.98 2.02 8.84 2.38 8.7 2.71 8.55 3.04 8.39 3.36 8.23 3.68 8.05 3.99 7.88 4.28 7.69 4.58 7.5 4.86 7.29 5.14 7.09 5.41 6.86 5.66 6.65 5.93 6.41 6.17 6.17 6.41 5.92 6.64 5.67 6.87 5.41 7.09 5.14 7.29 4.86 7.5 4.58 7.69 4.28 7.87 3.99 8.06 3.67 8.23 3.37 8.39 3.04 8.55 2.71 8.7 2.37 8.84 2.03 8.98 1.68 9.1 1.32 9.22 0.95 9.33 0.57 9.44 0.2 9.54-0.18 9.11-0.53 9.02-0.86 8.93-1.21 8.83-1.53 8.72-1.86 8.6-2.17 8.49-2.49 8.36-2.78 8.22-3.09 8.08-3.37 7.94-3.66 7.78-3.94 7.62-4.2 7.46-4.47 7.28-4.73 7.1-4.98 6.92-5.22 6.72-5.46 6.53-5.69 6.32-5.92 6.1-6.13 5.89-6.35 5.66-6.55 5.43-6.75 5.19-6.94 4.94-7.13 4.69-7.3 4.44-7.48 4.17-7.65 3.89-7.8 3.62-7.96 3.34-8.1 3.04-8.24 2.75-8.38 2.44-8.5 2.13-8.62 1.82-8.73 1.49-8.85 1.16-8.94 0.82v49.91h39.44l2.86 0.06 2.83 0.17 2.79 0.29 2.76 0.39 2.73 0.5 2.69 0.61 2.64 0.71 2.61 0.81 2.56 0.91 2.51 1.01 2.47 1.1 2.41 1.2 2.36 1.28 2.3 1.37 2.25 1.46 2.18 1.53 2.12 1.62 2.06 1.7 1.99 1.78 1.92 1.84 1.84 1.92 1.78 1.99 1.7 2.06 1.62 2.12 1.53 2.18 1.46 2.25 1.37 2.3 1.28 2.36 1.2 2.41 1.1 2.47 1.01 2.51 0.91 2.56 0.81 2.61 0.71 2.64 0.61 2.69 0.5 2.73 0.39 2.76 0.29 2.79 0.17 2.83 0.06 2.85v37.69l-0.02 0.84-0.05 0.83-0.08 0.81-0.12 0.81-0.14 0.8-0.18 0.79-0.21 0.78-0.24 0.76-0.26 0.75-0.3 0.74-0.32 0.72-0.35 0.71-0.38 0.69-0.4 0.67-0.42 0.66-0.45 0.64-0.48 0.62-0.49 0.6-0.52 0.59-0.54 0.56-0.57 0.54-0.58 0.52-0.6 0.5-0.62 0.47-0.64 0.45-0.66 0.43-0.67 0.4-0.69 0.37-0.71 0.35-0.72 0.32-0.74 0.3-0.75 0.26-0.76 0.24-0.78 0.21-0.79 0.18-0.8 0.14-0.81 0.12-0.82 0.08-0.83 0.05-0.83 0.02h-210.86l-0.83-0.02-0.83-0.05-0.82-0.08-0.81-0.12-0.8-0.14-0.79-0.18-0.78-0.21-0.76-0.24-0.75-0.26-0.74-0.3-0.72-0.32-0.71-0.35-0.69-0.37-0.67-0.4-0.66-0.43-0.64-0.45-0.62-0.47-0.6-0.5-0.58-0.52-0.57-0.54-0.54-0.56-0.52-0.59-0.49-0.6-0.48-0.62-0.45-0.64-0.42-0.66-0.4-0.67-0.38-0.69-0.35-0.71-0.32-0.72-0.3-0.74-0.26-0.75-0.24-0.76-0.21-0.78-0.18-0.79-0.14-0.8-0.12-0.81-0.08-0.81-0.05-0.83-0.02-0.84v-37.69l0.06-2.85 0.17-2.83 0.29-2.79 0.39-2.76 0.5-2.73 0.61-2.69 0.71-2.64 0.81-2.61 0.91-2.56 1.01-2.51 1.1-2.47 1.2-2.41 1.28-2.36 1.37-2.3 1.46-2.25 1.53-2.18 1.62-2.12 1.7-2.06 1.78-1.99 1.84-1.92 1.92-1.84 1.99-1.78 2.06-1.7 2.12-1.62 2.18-1.53 2.25-1.46 2.3-1.37 2.36-1.28 2.41-1.2 2.47-1.1 2.51-1.01 2.56-0.91 2.61-0.81 2.64-0.71 2.69-0.61 2.73-0.5 2.76-0.39 2.79-0.29 2.83-0.17 2.86-0.06h32.66v-50.49l-8.7-1.05-8.6-1.38-8.49-1.69-8.38-1.99-8.26-2.3-8.13-2.59-8-2.88-7.86-3.17-7.72-3.44-7.56-3.71-7.41-3.97-7.25-4.23-7.08-4.49-6.9-4.73-6.72-4.96-6.53-5.2-6.34-5.43-6.14-5.65-5.93-5.87-5.72-6.07-5.5-6.27-5.28-6.47-5.04-6.66-4.81-6.84-4.57-7.02-4.31-7.2-4.06-7.35-3.8-7.52-3.52-7.67-3.26-7.81-2.97-7.96-2.69-8.09-2.39-8.22-2.1-8.34-1.79-8.45-1.47-8.57-1.16-8.66-0.84-8.77-0.51-8.85-0.17-8.94 0.2-9.54 0.57-9.44 0.95-9.33 1.32-9.22 1.68-9.1 2.03-8.98 2.37-8.84 2.71-8.7 3.04-8.55 3.37-8.39 3.67-8.23 3.99-8.06 4.28-7.87 4.58-7.69 4.86-7.5 5.14-7.29 5.41-7.09 5.67-6.87 5.92-6.64 6.17-6.41 6.41-6.17 6.65-5.93 6.86-5.66 7.09-5.41 7.29-5.14 7.5-4.86 7.69-4.58 7.88-4.28 8.05-3.99 8.23-3.68 8.39-3.36 8.55-3.04 8.7-2.71 8.84-2.38 8.98-2.02 9.1-1.68 9.22-1.32 9.34-0.95 9.44-0.58 9.53-0.19 9.53 0.19 9.44 0.58zm-76.53 552.52l-1.17 0.07-1.16 0.12-1.14 0.16-1.13 0.21-1.11 0.25-1.1 0.3-1.08 0.33-1.06 0.38-1.04 0.42-1.02 0.45-1 0.5-0.97 0.53-0.96 0.57-0.93 0.6-0.9 0.64-0.88 0.67-0.85 0.7-0.83 0.73-0.79 0.77-0.77 0.79-0.73 0.83-0.7 0.85-0.67 0.88-0.64 0.9-0.61 0.93-0.56 0.96-0.53 0.97-0.5 1-0.45 1.02-0.42 1.04-0.38 1.06-0.33 1.08-0.3 1.1-0.25 1.11-0.21 1.13-0.16 1.14-0.12 1.16-0.07 1.17-0.03 1.18v17.37h170.22v-17.37l-0.03-1.18-0.07-1.17-0.12-1.16-0.16-1.14-0.21-1.13-0.25-1.11-0.3-1.1-0.33-1.08-0.38-1.06-0.42-1.04-0.45-1.02-0.5-1-0.53-0.97-0.56-0.96-0.61-0.93-0.63-0.9-0.68-0.88-0.7-0.85-0.73-0.83-0.77-0.79-0.79-0.77-0.83-0.73-0.85-0.7-0.88-0.67-0.9-0.64-0.93-0.6-0.96-0.57-0.97-0.53-1-0.5-1.02-0.45-1.04-0.42-1.06-0.38-1.08-0.33-1.1-0.3-1.11-0.25-1.13-0.21-1.14-0.16-1.16-0.12-1.17-0.07-1.18-0.03h-112.75l-1.19 0.03zm41.92-512.01l-7.7 0.78-7.6 1.09-7.51 1.38-7.4 1.67-7.29 1.96-7.17 2.24-7.05 2.51-6.92 2.77-6.79 3.03-6.64 3.29-6.5 3.53-6.34 3.77-6.18 4.01-6.01 4.24-5.84 4.46-5.67 4.67-5.48 4.89-5.28 5.09-5.09 5.28-4.88 5.48-4.68 5.66-4.46 5.84-4.24 6.02-4 6.18-3.78 6.34-3.53 6.5-3.29 6.64-3.03 6.78-2.77 6.92-2.51 7.05-2.24 7.18-1.95 7.29-1.68 7.4-1.38 7.5-1.09 7.61-0.78 7.69-0.47 7.79-0.16 7.86 0.16 7.86 0.47 7.78 0.78 7.7 1.09 7.6 1.38 7.51 1.68 7.4 1.95 7.29 2.24 7.17 2.51 7.05 2.77 6.92 3.03 6.79 3.29 6.64 3.53 6.49 3.78 6.35 4 6.18 4.24 6.01 4.46 5.84 4.68 5.67 4.88 5.47 5.09 5.29 5.28 5.09 5.48 4.88 5.67 4.68 5.84 4.46 6.01 4.23 6.18 4.01 6.34 3.78 6.5 3.53 6.64 3.28 6.79 3.04 6.92 2.77 7.05 2.51 7.17 2.23 7.29 1.96 7.4 1.67 7.51 1.39 7.6 1.08 7.7 0.79 7.78 0.47 7.86 0.16 7.86-0.16 7.78-0.47 7.7-0.79 7.6-1.08 7.51-1.39 7.4-1.67 7.29-1.96 7.17-2.23 7.05-2.51 6.92-2.77 6.79-3.04 6.64-3.28 6.5-3.53 6.34-3.78 6.18-4.01 6.01-4.23 5.84-4.46 5.67-4.68 5.48-4.88 5.28-5.09 5.09-5.29 4.88-5.47 4.68-5.67 4.46-5.84 4.24-6.01 4-6.18 3.78-6.35 3.53-6.49 3.29-6.64 3.03-6.79 2.77-6.92 2.51-7.05 2.24-7.17 1.95-7.29 1.68-7.4 1.38-7.51 1.09-7.6 0.78-7.7 0.47-7.78 0.16-7.86-0.16-7.86-0.47-7.79-0.78-7.69-1.09-7.61-1.38-7.5-1.68-7.4-1.95-7.29-2.24-7.18-2.51-7.05-2.77-6.92-3.03-6.78-3.29-6.64-3.53-6.5-3.78-6.34-4-6.18-4.24-6.02-4.46-5.84-4.68-5.66-4.88-5.48-5.09-5.28-5.28-5.09-5.48-4.89-5.67-4.67-5.84-4.46-6.01-4.24-6.18-4.01-6.34-3.77-6.5-3.53-6.64-3.29-6.79-3.03-6.92-2.77-7.05-2.51-7.17-2.24-7.29-1.96-7.4-1.67-7.51-1.38-7.6-1.09-7.7-0.78-7.78-0.48-7.86-0.16-7.86 0.16-7.78 0.48z"/><path id="fan-a8e44n5zQ" d="m280.92 267.27c-8.57-9.4-13.79-21.89-13.79-35.6 0-13.72 5.22-26.21 13.79-35.6-5.85-1.11-52.63-9.99-58.47-11.09-15.02-2.86-28.93 8.66-28.93 23.95v45.47c0 15.29 13.91 26.81 28.93 23.96 11.69-2.22 52.62-9.98 58.47-11.09z"/><path id="fan-cbdTTssvr" d="m359.09 267.27c5.84 1.11 52.62 9.98 58.47 11.09 15.02 2.85 28.92-8.67 28.92-23.96v-45.47c0-15.29-13.9-26.8-28.92-23.95-5.85 1.1-52.63 9.98-58.47 11.09 8.56 9.39 13.78 21.88 13.78 35.6 0 13.71-5.22 26.2-13.78 35.6z"/><path id="fan-b3YAwZyo5" d="m286.58 190.71c9.11-7.44 20.74-11.91 33.42-11.91s24.31 4.47 33.42 11.91c0.73-1.66 1.3-3.42 1.65-5.26 1.16-6.13 10.46-55.13 11.62-61.25 2.85-15.02-8.67-28.93-23.95-28.93h-45.48c-15.28 0-26.8 13.91-23.95 28.93 0.77 4.08 4.65 24.5 11.62 61.25 0.61 2.4 1.16 4.15 1.65 5.26z"/><path id="fan-ai6plHikM" d="m353.42 272.63c-9.11 7.44-20.74 11.91-33.42 11.91s-24.31-4.47-33.42-11.91c-0.73 1.66-1.3 3.41-1.65 5.26-1.16 6.12-10.46 55.12-11.62 61.25-2.85 15.02 8.67 28.93 23.96 28.93h45.47c15.29 0 26.8-13.91 23.95-28.93-0.77-4.09-4.64-24.5-11.62-61.25-0.61-2.4-1.16-4.16-1.65-5.26z"/><path id="fan-bpKK8hrts" d="m320 196.6c-19.37 0-35.07 15.7-35.07 35.07s15.7 35.07 35.07 35.07 35.07-15.7 35.07-35.07-15.7-35.07-35.07-35.07z"/></defs><use xlink:href="#fan-e14JBxhZvU" fill="#000000"/><use stroke-opacity="0" fill-opacity="0" xlink:href="#fan-e14JBxhZvU" stroke="#000000"/><use xlink:href="#fan-a8e44n5zQ" fill="#000000"/><use stroke-opacity="0" fill-opacity="0" xlink:href="#fan-a8e44n5zQ" stroke="#000000"/><use xlink:href="#fan-cbdTTssvr" fill="#000000"/><use stroke-opacity="0" fill-opacity="0" xlink:href="#fan-cbdTTssvr" stroke="#000000"/><use xlink:href="#fan-b3YAwZyo5" fill="#000000"/><use stroke-opacity="0" fill-opacity="0" xlink:href="#fan-b3YAwZyo5" stroke="#000000"/><use xlink:href="#fan-ai6plHikM" fill="#000000"/><use stroke-opacity="0" fill-opacity="0" xlink:href="#fan-ai6plHikM" stroke="#000000"/><use xlink:href="#fan-bpKK8hrts" fill="#000000"/><use stroke-opacity="0" fill-opacity="0" xlink:href="#fan-bpKK8hrts" stroke="#000000"/></svg><svg xmlns:xlink="http://www.w3.org/1999/xlink" height="48" width="48" version="1.1" preserveAspectRatio="xMidYMid meet" viewBox="0 0 48 48" id="fiveoffive" y="240"><defs><path id="fiveoffive-a6ljDYSQD" d="m30.44 8.93c-2.18 0-3.92-1.76-3.92-3.97 0-2.2 1.74-3.96 3.92-3.96h12.64c2.18 0 3.92 1.76 3.92 3.96 0 2.21-1.74 3.97-3.92 3.97h-12.64z"/><path id="fiveoffive-d3gFhn50SD" d="m1.25 43.29v-12.78c0-2.2 1.74-3.96 3.92-3.96s3.92 1.76 3.92 3.96v12.78c0 2.2-1.74 3.96-3.92 3.96s-3.92-1.76-3.92-3.96z"/><path id="fiveoffive-bxYwksdUy" d="m16.06 41.96c-0.47-1.19-4.31-10.7-4.79-11.89-0.87-1.98 0.22-4.4 2.18-5.28 1.96-0.89 4.36 0.22 5.23 2.2 0.48 1.19 4.31 10.7 4.79 11.89 0.87 1.98-0.22 4.41-2.18 5.29-0.65 0-1.09 0.22-1.52 0.22-1.53 0-3.05-0.88-3.71-2.43z"/><path id="fiveoffive-bwxh3EXYc" d="m29.14 34.92c-0.9-0.91-8.04-8.13-8.94-9.03-1.52-1.54-1.52-3.97 0-5.73 1.53-1.54 4.14-1.54 5.67 0 0.89 0.9 8.04 8.13 8.93 9.03 1.53 1.54 1.53 4.18 0 5.73-0.87 0.66-1.74 1.1-2.83 1.1s-1.96-0.44-2.83-1.1z"/><path id="fiveoffive-a1xlXNqJ3z" d="m38.72 23.46c-1.17-0.48-10.59-4.36-11.76-4.84-1.96-0.88-3.05-3.08-2.18-5.29 0.87-1.98 3.05-3.08 5.23-2.2 1.17 0.49 10.59 4.36 11.76 4.85 1.96 0.88 3.05 3.08 2.18 5.28-0.87 1.54-2.18 2.42-3.7 2.42-0.44 0-1.09 0-1.53-0.22z"/></defs><use xlink:href="#fiveoffive-a6ljDYSQD" fill-opacity=".5" fill="#000000"/><use stroke-opacity="0" fill-opacity="0" xlink:href="#fiveoffive-a6ljDYSQD" stroke="#000000"/><use xlink:href="#fiveoffive-d3gFhn50SD" fill="#000000"/><use stroke-opacity="0" fill-opacity="0" xlink:href="#fiveoffive-d3gFhn50SD" stroke="#000000"/><use xlink:href="#fiveoffive-bxYwksdUy" fill-opacity=".5" fill="#000000"/><use stroke-opacity="0" fill-opacity="0" xlink:href="#fiveoffive-bxYwksdUy" stroke="#000000"/><use xlink:href="#fiveoffive-bwxh3EXYc" fill-opacity=".5" fill="#000000"/><use stroke-opacity="0" fill-opacity="0" xlink:href="#fiveoffive-bwxh3EXYc" stroke="#000000"/><use xlink:href="#fiveoffive-a1xlXNqJ3z" fill-opacity=".5" fill="#000000"/><use stroke-opacity="0" fill-opacity="0" xlink:href="#fiveoffive-a1xlXNqJ3z" stroke="#000000"/></svg><svg xmlns:xlink="http://www.w3.org/1999/xlink" height="48" width="48" version="1.1" preserveAspectRatio="xMidYMid meet" viewBox="0 0 48 48" id="fouroffive" y="288"><defs><path id="fouroffive-a6ljDYSQD" d="m30.44 8.93c-2.18 0-3.92-1.76-3.92-3.97 0-2.2 1.74-3.96 3.92-3.96h12.64c2.18 0 3.92 1.76 3.92 3.96 0 2.21-1.74 3.97-3.92 3.97h-12.64z"/><path id="fouroffive-k2tbwc7zFu" d="m1.25 43.29v-12.78c0-2.2 1.74-3.96 3.92-3.96s3.92 1.76 3.92 3.96v12.78c0 2.2-1.74 3.96-3.92 3.96s-3.92-1.76-3.92-3.96z"/><path id="fouroffive-bt1FCyPSy" d="m16.06 41.96c-0.47-1.19-4.31-10.7-4.79-11.89-0.87-1.98 0.22-4.4 2.18-5.28 1.96-0.89 4.36 0.22 5.23 2.2 0.48 1.19 4.31 10.7 4.79 11.89 0.87 1.98-0.22 4.41-2.18 5.29-0.65 0-1.09 0.22-1.52 0.22-1.53 0-3.05-0.88-3.71-2.43z"/><path id="fouroffive-bwxh3EXYc" d="m29.14 34.92c-0.9-0.91-8.04-8.13-8.94-9.03-1.52-1.54-1.52-3.97 0-5.73 1.53-1.54 4.14-1.54 5.67 0 0.89 0.9 8.04 8.13 8.93 9.03 1.53 1.54 1.53 4.18 0 5.73-0.87 0.66-1.74 1.1-2.83 1.1s-1.96-0.44-2.83-1.1z"/><path id="fouroffive-a1xlXNqJ3z" d="m38.72 23.46c-1.17-0.48-10.59-4.36-11.76-4.84-1.96-0.88-3.05-3.08-2.18-5.29 0.87-1.98 3.05-3.08 5.23-2.2 1.17 0.49 10.59 4.36 11.76 4.85 1.96 0.88 3.05 3.08 2.18 5.28-0.87 1.54-2.18 2.42-3.7 2.42-0.44 0-1.09 0-1.53-0.22z"/></defs><use xlink:href="#fouroffive-a6ljDYSQD" fill-opacity=".5" fill="#000000"/><use stroke-opacity="0" fill-opacity="0" xlink:href="#fouroffive-a6ljDYSQD" stroke="#000000"/><use xlink:href="#fouroffive-k2tbwc7zFu" fill-opacity=".5" fill="#000000"/><use stroke-opacity="0" fill-opacity="0" xlink:href="#fouroffive-k2tbwc7zFu" stroke="#000000"/><use xlink:href="#fouroffive-bt1FCyPSy" fill="#000000"/><use stroke-opacity="0" fill-opacity="0" xlink:href="#fouroffive-bt1FCyPSy" stroke="#000000"/><use xlink:href="#fouroffive-bwxh3EXYc" fill-opacity=".5" fill="#000000"/><use stroke-opacity="0" fill-opacity="0" xlink:href="#fouroffive-bwxh3EXYc" stroke="#000000"/><use xlink:href="#fouroffive-a1xlXNqJ3z" fill-opacity=".5" fill="#000000"/><use stroke-opacity="0" fill-opacity="0" xlink:href="#fouroffive-a1xlXNqJ3z" stroke="#000000"/></svg><svg xmlns:xlink="http://www.w3.org/1999/xlink" height="50" width="50" version="1.1" preserveAspectRatio="xMidYMid meet" viewBox="0 0 640 640" id="fouroffour" y="336"><defs><path id="fouroffour-a8krJj5cc" d="m2.46 602.4h637.54v34.95h-637.54v-34.95z"/><path id="fouroffour-b6dceQrScM" d="m2.46 347.53h136.04v221.99h-136.04v-221.99z"/><path id="fouroffour-b2wNzQQ9Er" d="m168.73 224.2h136.04v345.32h-136.04v-345.32z"/><path id="fouroffour-aOKkwYduS" d="m337.66 109.1h136.04v460.42h-136.04v-460.42z"/><path id="fouroffour-b4EUssvd7q" d="m503.96 2.22h136.04v567.3h-136.04v-567.3z"/></defs><use xlink:href="#fouroffour-a8krJj5cc" fill="#000000"/><use xlink:href="#fouroffour-b6dceQrScM" fill="#000000"/><use xlink:href="#fouroffour-b2wNzQQ9Er" fill="#000000"/><use xlink:href="#fouroffour-aOKkwYduS" fill="#000000"/><use xlink:href="#fouroffour-b4EUssvd7q" fill="#000000"/></svg><svg xmlns:xlink="http://www.w3.org/1999/xlink" height="48" width="48" version="1.1" preserveAspectRatio="xMidYMid meet" viewBox="0 0 48 48" id="heat" y="386"><defs><path id="heat-c1kJnlPDCb" d="m23.06 1.71l0.02 0.4 0.04 0.39 0.05 0.39 0.07 0.37 0.08 0.37 0.09 0.36 0.11 0.35 0.12 0.35 0.15 0.34 0.16 0.34 0.17 0.33 0.2 0.33 0.21 0.32 0.24 0.32 0.25 0.32 0.28 0.31 0.29 0.32 0.32 0.31 0.34 0.31 0.36 0.32 0.38 0.31 0.41 0.31 0.44 0.31 0.45 0.32 0.49 0.31 0.51 0.32 0.53 0.33 0.57 0.32 0.59 0.33 0.5 0.31 0.45 0.35 0.4 0.38 0.36 0.42 0.32 0.45 0.28 0.47 0.24 0.5 0.2 0.52 0.17 0.53 0.14 0.55 0.11 0.56 0.08 0.57 0.05 0.57 0.04 0.57 0.01 0.57v0.57l-0.02 0.56-0.03 0.54-0.05 0.53-0.05 0.51-0.06 0.49-0.07 0.47-0.06 0.44-0.07 0.4-0.07 0.37-0.06 0.34-0.06 0.29-0.04 0.25-0.04 0.21-0.02 0.15-0.01 0.1h0.01l0.02-0.02 0.05-0.04 0.06-0.07 0.09-0.08 0.09-0.1 0.12-0.12 0.13-0.13 0.15-0.13 0.17-0.15 0.19-0.15 0.2-0.15 0.21-0.15 0.23-0.15 0.25-0.15 0.27-0.14 0.28-0.13 0.29-0.12 0.31-0.11 0.32-0.09 0.34-0.07 0.36-0.06 0.36-0.03 0.38-0.01 0.4 0.03 0.41 0.05 0.42 0.08 0.44 0.11 0.45 0.16 0.46 0.19 0.47 0.23h-0.03l-0.05 0.02-0.08 0.05-0.1 0.06-0.12 0.08-0.15 0.11-0.16 0.12-0.17 0.14-0.19 0.17-0.21 0.18-0.21 0.2-0.22 0.22-0.23 0.24-0.24 0.26-0.24 0.28-0.24 0.29-0.24 0.32-0.24 0.33-0.23 0.35-0.23 0.37-0.23 0.39-0.21 0.4-0.21 0.43-0.19 0.44-0.18 0.46-0.16 0.47-0.15 0.5-0.12 0.51-0.11 0.53-0.08 0.54-0.06 0.56-0.24 1.84-0.39 1.72-0.54 1.58-0.68 1.46-0.79 1.33-0.91 1.19-1 1.07-1.09 0.94-1.16 0.81-1.22 0.68-1.28 0.54-1.3 0.41-1.34 0.28-1.35 0.15-1.34 0.01-1.34-0.13-1.31-0.26-1.28-0.39-1.23-0.53-1.17-0.67-1.1-0.81-1.01-0.94-0.92-1.08-0.81-1.22-0.7-1.36-0.55-1.5-0.42-1.64-0.26-1.79-0.09-1.92 0.1-2.07 0.28-2.21 0.01 0.02 0.03 0.06 0.05 0.09 0.06 0.11 0.09 0.15 0.1 0.16 0.11 0.18 0.13 0.2 0.14 0.21 0.16 0.22 0.16 0.23 0.18 0.24 0.18 0.23 0.2 0.23 0.2 0.23 0.21 0.21 0.21 0.21 0.22 0.19 0.23 0.18 0.22 0.15 0.23 0.14 0.23 0.1 0.23 0.08 0.22 0.04 0.23 0.01 0.22-0.03 0.22-0.07 0.21-0.12 0.21-0.16 0.2-0.22 0.2-0.26 0.21-0.4 0.17-0.4 0.1-0.41 0.06-0.41 0.02-0.43-0.03-0.43-0.06-0.44-0.09-0.44-0.13-0.46-0.14-0.46-0.17-0.46-0.18-0.48-0.2-0.47-0.2-0.49-0.21-0.49-0.21-0.49-0.2-0.5-0.19-0.51-0.18-0.5-0.17-0.52-0.14-0.51-0.12-0.53-0.09-0.52-0.06-0.53-0.02-0.53 0.03-0.53 0.06-0.54 0.12-0.54 0.17-0.54 0.23-0.54 0.29-0.55 0.11-0.18 0.12-0.17 0.12-0.18 0.14-0.17 0.13-0.16 0.14-0.16 0.15-0.16 0.15-0.15 0.16-0.14 0.16-0.15 0.17-0.13 0.17-0.13 0.17-0.13 0.18-0.11 0.18-0.12 0.18-0.1 0.18-0.1 0.19-0.09 0.19-0.09 0.19-0.08 0.19-0.07 0.19-0.06 0.2-0.05 0.19-0.05 0.19-0.04 0.2-0.03 0.19-0.02 0.19-0.01h0.19l0.19 0.01 0.19 0.01-0.06 0.15-0.05 0.17-0.06 0.19-0.05 0.22-0.05 0.23-0.04 0.25-0.03 0.26-0.03 0.28-0.02 0.28-0.02 0.3v0.3 0.31l0.02 0.32 0.03 0.31 0.04 0.32 0.05 0.32 0.07 0.31 0.08 0.3 0.1 0.3 0.11 0.3 0.13 0.28 0.15 0.26 0.17 0.26 0.18 0.24 0.21 0.22 0.23 0.2 0.25 0.18 0.27 0.15 0.3 0.14 0.32 0.1 0.34 0.08 0.22 0.02 0.2-0.01 0.2-0.03 0.2-0.05 0.19-0.09 0.17-0.1 0.17-0.14 0.16-0.15 0.15-0.18 0.13-0.2 0.12-0.22 0.11-0.24 0.09-0.26 0.08-0.28 0.05-0.3 0.04-0.32 0.02-0.33v-0.36l-0.02-0.36-0.04-0.39-0.07-0.4-0.09-0.41-0.12-0.42-0.14-0.44-0.17-0.45-0.2-0.46-0.23-0.48-0.25-0.48-0.29-0.49-0.32-0.5-0.36-0.51-0.21-0.34-0.19-0.36-0.14-0.38-0.12-0.4-0.08-0.41-0.06-0.42-0.02-0.43-0.01-0.44 0.02-0.44 0.05-0.44 0.06-0.45 0.07-0.45 0.09-0.44 0.11-0.44 0.11-0.43 0.12-0.42 0.13-0.42 0.14-0.39 0.14-0.39 0.13-0.36 0.14-0.35 0.13-0.32 0.13-0.3 0.12-0.28 0.11-0.25 0.1-0.21 0.09-0.19 0.07-0.15 0.05-0.12 0.04-0.08 0.01-0.03v0.41l0.01 0.41zm-0.98 28.39l-0.38 0.78-0.6 0.7-0.71 0.7-0.71 0.77-0.6 0.94-0.36 1.03-0.21 1.34 0.08 1.48 0.5 1.43 1.04 1.21 1.72 0.8 2.52 0.23 2.02-0.46 1.42-1.09 0.86-1.53 0.33-1.83-0.19-1.97-0.67-1.92-1.13-1.74-0.93-0.92-1-0.72-1-0.54-0.91-0.38-0.74-0.25-0.51-0.14-0.19-0.05 0.39 1.18-0.04 0.95z"/></defs><use xlink:href="#heat-c1kJnlPDCb" fill="#000000"/><use stroke-opacity="0" fill-opacity="0" xlink:href="#heat-c1kJnlPDCb" stroke="#000000"/></svg><svg xmlns:xlink="http://www.w3.org/1999/xlink" height="48" width="48" version="1.1" preserveAspectRatio="xMidYMid meet" viewBox="0 0 48 48" id="left" y="434"><defs><path id="left-abm2Sh8OZ" d="m29.48 3.6c2.68 2.6 2.64 6.92-0.07 9.71-1.58 1.63-14.18 14.62-15.76 16.25-2.71 2.79-7.02 2.95-9.7 0.34-2.67-2.6-2.64-6.92 0.07-9.71 1.58-1.63 14.19-14.62 15.76-16.25 2.72-2.79 7.02-2.95 9.7-0.34z"/><path id="left-d2sZMITtg7" d="m29.48 3.6c2.68 2.6 2.64 6.92-0.07 9.71-1.58 1.63-14.18 14.62-15.76 16.25-2.71 2.79-7.02 2.95-9.7 0.34-2.67-2.6-2.64-6.92 0.07-9.71 1.58-1.63 14.19-14.62 15.76-16.25 2.72-2.79 7.02-2.95 9.7-0.34z"/><path id="left-g12HVpY2Uw" d="m29.48 3.6c2.68 2.6 2.64 6.92-0.07 9.71-1.58 1.63-14.18 14.62-15.76 16.25-2.71 2.79-7.02 2.95-9.7 0.34-2.67-2.6-2.64-6.92 0.07-9.71 1.58-1.63 14.19-14.62 15.76-16.25 2.72-2.79 7.02-2.95 9.7-0.34z"/><path id="left-b1RpbxdaO1" d="m29.48 3.6c2.68 2.6 2.64 6.92-0.07 9.71-1.58 1.63-14.18 14.62-15.76 16.25-2.71 2.79-7.02 2.95-9.7 0.34-2.67-2.6-2.64-6.92 0.07-9.71 1.58-1.63 14.19-14.62 15.76-16.25 2.72-2.79 7.02-2.95 9.7-0.34z"/><path id="left-bVM6nOmMw" d="m41.82 11.25c3.5 1.22 5.08 5.49 3.7 9.05-0.88 2.09-7.9 18.75-8.78 20.84-1.37 3.55-5.71 5.34-9.2 4.11-0.8-0.77-1.61-1.02-2.14-1.53-1.88-1.83-2.66-4.77-1.55-7.52 0.89-2.08 7.9-18.75 8.78-20.84 1.37-3.56 5.69-5.33 9.19-4.11z"/></defs><use xlink:href="#left-abm2Sh8OZ" fill="#000000"/><use stroke-opacity="0" fill-opacity="0" xlink:href="#left-abm2Sh8OZ" stroke="#000000"/><use xlink:href="#left-d2sZMITtg7" fill-opacity="0" fill="#000000"/><use stroke-opacity="0" fill-opacity="0" xlink:href="#left-d2sZMITtg7" stroke="#000000"/><use xlink:href="#left-g12HVpY2Uw" fill-opacity="0" fill="#000000"/><use stroke-opacity="0" fill-opacity="0" xlink:href="#left-g12HVpY2Uw" stroke="#000000"/><use xlink:href="#left-b1RpbxdaO1" fill-opacity="0" fill="#000000"/><use stroke-opacity="0" fill-opacity="0" xlink:href="#left-b1RpbxdaO1" stroke="#000000"/><use xlink:href="#left-bVM6nOmMw" fill-opacity=".5" fill="#000000"/><use stroke-opacity="0" fill-opacity="0" xlink:href="#left-bVM6nOmMw" stroke="#000000"/></svg><svg xmlns:xlink="http://www.w3.org/1999/xlink" height="48" width="48" version="1.1" preserveAspectRatio="xMidYMid meet" viewBox="0 0 48 48" id="leftleft" y="482"><defs><path id="leftleft-e2MtqmABFG" d="m19.78 3.94c2.72-2.79 7.02-2.95 9.7-0.34 2.68 2.6 2.64 6.92-0.07 9.71-1.58 1.63-14.18 14.62-15.76 16.25-2.71 2.79-7.02 2.95-9.7 0.34-2.67-2.6-2.64-6.92 0.07-9.71 1.58-1.63 14.19-14.62 15.76-16.25z"/><path id="leftleft-k6Bz6DDmi" d="m19.78 3.94c2.72-2.79 7.02-2.95 9.7-0.34 2.68 2.6 2.64 6.92-0.07 9.71-1.58 1.63-14.18 14.62-15.76 16.25-2.71 2.79-7.02 2.95-9.7 0.34-2.67-2.6-2.64-6.92 0.07-9.71 1.58-1.63 14.19-14.62 15.76-16.25z"/><path id="leftleft-a18HJKaSPd" d="m32.63 15.36c1.37-3.56 5.69-5.33 9.19-4.11s5.08 5.49 3.7 9.05c-0.88 2.09-7.9 18.75-8.78 20.84-1.37 3.55-5.71 5.34-9.2 4.11-0.8-0.77-1.61-1.02-2.14-1.53-1.88-1.83-2.66-4.77-1.55-7.52 0.89-2.08 7.9-18.75 8.78-20.84z"/><path id="leftleft-e1ljqZj6CB" d="m32.63 15.36c1.37-3.56 5.69-5.33 9.19-4.11s5.08 5.49 3.7 9.05c-0.88 2.09-7.9 18.75-8.78 20.84-1.37 3.55-5.71 5.34-9.2 4.11-0.8-0.77-1.61-1.02-2.14-1.53-1.88-1.83-2.66-4.77-1.55-7.52 0.89-2.08 7.9-18.75 8.78-20.84z"/></defs><use xlink:href="#leftleft-e2MtqmABFG" fill="#000000"/><use stroke-opacity="0" fill-opacity="0" xlink:href="#leftleft-e2MtqmABFG" stroke="#000000"/><use xlink:href="#leftleft-k6Bz6DDmi" fill-opacity="0" fill="#000000"/><use stroke-opacity="0" fill-opacity="0" xlink:href="#leftleft-k6Bz6DDmi" stroke="#000000"/><use xlink:href="#leftleft-a18HJKaSPd" fill="#000000"/><use stroke-opacity="0" fill-opacity="0" xlink:href="#leftleft-a18HJKaSPd" stroke="#000000"/><use xlink:href="#leftleft-e1ljqZj6CB" fill-opacity="0" fill="#000000"/><use stroke-opacity="0" fill-opacity="0" xlink:href="#leftleft-e1ljqZj6CB" stroke="#000000"/></svg><svg xmlns:xlink="http://www.w3.org/1999/xlink" height="48" width="48" version="1.1" preserveAspectRatio="xMidYMid meet" viewBox="0 0 48 48" id="leftright" y="530"><defs><path id="leftright-b8OLpNvNv6" d="m21.84 3.76c2.47 2.71 2.9 8.18 0.99 12.28-1.12 2.4-10.04 21.52-11.15 23.92-1.92 4.1-5.43 5.23-7.91 2.51-2.46-2.72-2.9-8.18-0.98-12.29 1.11-2.4 10.04-21.51 11.15-23.91 1.92-4.11 5.43-5.23 7.9-2.51z"/><path id="leftright-a3FxbeVsH" d="m45 42.47c2.47-2.71 2.91-8.18 0.99-12.29-1.12-2.4-10.03-21.51-11.15-23.91-1.92-4.11-5.43-5.23-7.9-2.51-2.47 2.71-2.91 8.18-0.99 12.28 1.12 2.4 10.04 21.52 11.15 23.92 1.93 4.11 5.43 5.23 7.9 2.51z"/></defs><use xlink:href="#leftright-b8OLpNvNv6" fill="#000000"/><use stroke-opacity="0" fill-opacity="0" xlink:href="#leftright-b8OLpNvNv6" stroke="#000000"/><use xlink:href="#leftright-a3FxbeVsH" fill="#000000"/><use stroke-opacity="0" fill-opacity="0" xlink:href="#leftright-a3FxbeVsH" stroke="#000000"/></svg><svg xmlns:xlink="http://www.w3.org/1999/xlink" height="48" width="48" version="1.1" preserveAspectRatio="xMidYMid meet" viewBox="0 0 48 48" id="oneoffive" y="578"><defs><path id="oneoffive-cvdF57Rac" d="m30.44 8.93c-2.18 0-3.92-1.76-3.92-3.97 0-2.2 1.74-3.96 3.92-3.96h12.64c2.18 0 3.92 1.76 3.92 3.96 0 2.21-1.74 3.97-3.92 3.97h-12.64z"/><path id="oneoffive-bEJQwRpxn" d="m1.25 43.29v-12.78c0-2.2 1.74-3.96 3.92-3.96s3.92 1.76 3.92 3.96v12.78c0 2.2-1.74 3.96-3.92 3.96s-3.92-1.76-3.92-3.96z"/><path id="oneoffive-bhqFIYgiv" d="m16.06 41.96c-0.47-1.19-4.31-10.7-4.79-11.89-0.87-1.98 0.22-4.4 2.18-5.28 1.96-0.89 4.36 0.22 5.23 2.2 0.48 1.19 4.31 10.7 4.79 11.89 0.87 1.98-0.22 4.41-2.18 5.29-0.65 0-1.09 0.22-1.52 0.22-1.53 0-3.05-0.88-3.71-2.43z"/><path id="oneoffive-blqPfqZtH" d="m29.14 34.92c-0.9-0.91-8.04-8.13-8.94-9.03-1.52-1.54-1.52-3.97 0-5.73 1.53-1.54 4.14-1.54 5.67 0 0.89 0.9 8.04 8.13 8.93 9.03 1.53 1.54 1.53 4.18 0 5.73-0.87 0.66-1.74 1.1-2.83 1.1s-1.96-0.44-2.83-1.1z"/><path id="oneoffive-b13Lv5ZdbX" d="m38.72 23.46c-1.17-0.48-10.59-4.36-11.76-4.84-1.96-0.88-3.05-3.08-2.18-5.29 0.87-1.98 3.05-3.08 5.23-2.2 1.17 0.49 10.59 4.36 11.76 4.85 1.96 0.88 3.05 3.08 2.18 5.28-0.87 1.54-2.18 2.42-3.7 2.42-0.44 0-1.09 0-1.53-0.22z"/></defs><use xlink:href="#oneoffive-cvdF57Rac" fill="#000000"/><use stroke-opacity="0" fill-opacity="0" xlink:href="#oneoffive-cvdF57Rac" stroke="#000000"/><use xlink:href="#oneoffive-bEJQwRpxn" fill-opacity=".5" fill="#000000"/><use stroke-opacity="0" fill-opacity="0" xlink:href="#oneoffive-bEJQwRpxn" stroke="#000000"/><use xlink:href="#oneoffive-bhqFIYgiv" fill-opacity=".5" fill="#000000"/><use stroke-opacity="0" fill-opacity="0" xlink:href="#oneoffive-bhqFIYgiv" stroke="#000000"/><use xlink:href="#oneoffive-blqPfqZtH" fill-opacity=".5" fill="#000000"/><use stroke-opacity="0" fill-opacity="0" xlink:href="#oneoffive-blqPfqZtH" stroke="#000000"/><use xlink:href="#oneoffive-b13Lv5ZdbX" fill-opacity=".5" fill="#000000"/><use stroke-opacity="0" fill-opacity="0" xlink:href="#oneoffive-b13Lv5ZdbX" stroke="#000000"/></svg><svg xmlns:xlink="http://www.w3.org/1999/xlink" height="50" width="50" version="1.1" preserveAspectRatio="xMidYMid meet" viewBox="0 0 640 640" id="oneoffour" y="626"><defs><path id="oneoffour-a8krJj5cc" d="m2.46 602.4h637.54v34.95h-637.54v-34.95z"/><path id="oneoffour-b6dceQrScM" d="m2.46 347.53h136.04v221.99h-136.04v-221.99z"/></defs><use xlink:href="#oneoffour-a8krJj5cc" fill="#000000"/><use xlink:href="#oneoffour-b6dceQrScM" fill="#000000"/></svg><svg xmlns:xlink="http://www.w3.org/1999/xlink" height="48" width="48" version="1.1" preserveAspectRatio="xMidYMid meet" viewBox="0 0 48 48" id="right" y="676"><defs><path id="right-a189DSXskZ" d="m18.5 3.6c-2.68 2.6-2.64 6.92 0.07 9.71 1.58 1.63 14.18 14.62 15.76 16.25 2.71 2.79 7.02 2.95 9.7 0.34 2.67-2.6 2.64-6.92-0.07-9.71-1.58-1.63-14.19-14.62-15.76-16.25-2.72-2.79-7.02-2.95-9.7-0.34z"/><path id="right-a1dNnEMpEC" d="m18.5 3.6c-2.68 2.6-2.64 6.92 0.07 9.71 1.58 1.63 14.18 14.62 15.76 16.25 2.71 2.79 7.02 2.95 9.7 0.34 2.67-2.6 2.64-6.92-0.07-9.71-1.58-1.63-14.19-14.62-15.76-16.25-2.72-2.79-7.02-2.95-9.7-0.34z"/><path id="right-b2y7f4G5SB" d="m18.5 3.6c-2.68 2.6-2.64 6.92 0.07 9.71 1.58 1.63 14.18 14.62 15.76 16.25 2.71 2.79 7.02 2.95 9.7 0.34 2.67-2.6 2.64-6.92-0.07-9.71-1.58-1.63-14.19-14.62-15.76-16.25-2.72-2.79-7.02-2.95-9.7-0.34z"/><path id="right-c3RdLMUh0z" d="m18.5 3.6c-2.68 2.6-2.64 6.92 0.07 9.71 1.58 1.63 14.18 14.62 15.76 16.25 2.71 2.79 7.02 2.95 9.7 0.34 2.67-2.6 2.64-6.92-0.07-9.71-1.58-1.63-14.19-14.62-15.76-16.25-2.72-2.79-7.02-2.95-9.7-0.34z"/><path id="right-ds0vBgHTR" d="m6.16 11.25c-3.5 1.22-5.08 5.49-3.7 9.05 0.88 2.09 7.9 18.75 8.78 20.84 1.37 3.55 5.71 5.34 9.2 4.11 0.8-0.77 1.61-1.02 2.14-1.53 1.88-1.83 2.66-4.77 1.55-7.52-0.89-2.08-7.9-18.75-8.78-20.84-1.37-3.56-5.69-5.33-9.19-4.11z"/></defs><use xlink:href="#right-a189DSXskZ" fill="#000000"/><use stroke-opacity="0" fill-opacity="0" xlink:href="#right-a189DSXskZ" stroke="#000000"/><use xlink:href="#right-a1dNnEMpEC" fill-opacity="0" fill="#000000"/><use stroke-opacity="0" fill-opacity="0" xlink:href="#right-a1dNnEMpEC" stroke="#000000"/><use xlink:href="#right-b2y7f4G5SB" fill-opacity="0" fill="#000000"/><use stroke-opacity="0" fill-opacity="0" xlink:href="#right-b2y7f4G5SB" stroke="#000000"/><use xlink:href="#right-c3RdLMUh0z" fill-opacity="0" fill="#000000"/><use stroke-opacity="0" fill-opacity="0" xlink:href="#right-c3RdLMUh0z" stroke="#000000"/><use xlink:href="#right-ds0vBgHTR" fill-opacity=".5" fill="#000000"/><use stroke-opacity="0" fill-opacity="0" xlink:href="#right-ds0vBgHTR" stroke="#000000"/></svg><svg xmlns:xlink="http://www.w3.org/1999/xlink" height="48" width="48" version="1.1" preserveAspectRatio="xMidYMid meet" viewBox="0 0 48 48" id="rightright" y="724"><defs><path id="rightright-a1S04XfAtw" d="m18.5 3.6c-2.68 2.6-2.64 6.92 0.07 9.71 1.58 1.63 14.18 14.62 15.76 16.25 2.71 2.79 7.02 2.95 9.7 0.34 2.67-2.6 2.64-6.92-0.07-9.71-1.58-1.63-14.19-14.62-15.76-16.25-2.72-2.79-7.02-2.95-9.7-0.34z"/><path id="rightright-a9FGHnhMv" d="m18.5 3.6c-2.68 2.6-2.64 6.92 0.07 9.71 1.58 1.63 14.18 14.62 15.76 16.25 2.71 2.79 7.02 2.95 9.7 0.34 2.67-2.6 2.64-6.92-0.07-9.71-1.58-1.63-14.19-14.62-15.76-16.25-2.72-2.79-7.02-2.95-9.7-0.34z"/><path id="rightright-a2ehmDOR2u" d="m18.5 3.6c-2.68 2.6-2.64 6.92 0.07 9.71 1.58 1.63 14.18 14.62 15.76 16.25 2.71 2.79 7.02 2.95 9.7 0.34 2.67-2.6 2.64-6.92-0.07-9.71-1.58-1.63-14.19-14.62-15.76-16.25-2.72-2.79-7.02-2.95-9.7-0.34z"/><path id="rightright-a3YiATwVKx" d="m18.5 3.6c-2.68 2.6-2.64 6.92 0.07 9.71 1.58 1.63 14.18 14.62 15.76 16.25 2.71 2.79 7.02 2.95 9.7 0.34 2.67-2.6 2.64-6.92-0.07-9.71-1.58-1.63-14.19-14.62-15.76-16.25-2.72-2.79-7.02-2.95-9.7-0.34z"/><path id="rightright-a4eLFlm1UK" d="m6.16 11.25c-3.5 1.22-5.08 5.49-3.7 9.05 0.88 2.09 7.9 18.75 8.78 20.84 1.37 3.55 5.71 5.34 9.2 4.11 0.8-0.77 1.61-1.02 2.14-1.53 1.88-1.83 2.66-4.77 1.55-7.52-0.89-2.08-7.9-18.75-8.78-20.84-1.37-3.56-5.69-5.33-9.19-4.11z"/><path id="rightright-fcWmbMxO2" d="m6.16 11.25c-3.5 1.22-5.08 5.49-3.7 9.05 0.88 2.09 7.9 18.75 8.78 20.84 1.37 3.55 5.71 5.34 9.2 4.11 0.8-0.77 1.61-1.02 2.14-1.53 1.88-1.83 2.66-4.77 1.55-7.52-0.89-2.08-7.9-18.75-8.78-20.84-1.37-3.56-5.69-5.33-9.19-4.11z"/><path id="rightright-cuQJ8nfFU" d="m6.16 11.25c-3.5 1.22-5.08 5.49-3.7 9.05 0.88 2.09 7.9 18.75 8.78 20.84 1.37 3.55 5.71 5.34 9.2 4.11 0.8-0.77 1.61-1.02 2.14-1.53 1.88-1.83 2.66-4.77 1.55-7.52-0.89-2.08-7.9-18.75-8.78-20.84-1.37-3.56-5.69-5.33-9.19-4.11z"/><path id="rightright-f1Sx5giXzb" d="m6.16 11.25c-3.5 1.22-5.08 5.49-3.7 9.05 0.88 2.09 7.9 18.75 8.78 20.84 1.37 3.55 5.71 5.34 9.2 4.11 0.8-0.77 1.61-1.02 2.14-1.53 1.88-1.83 2.66-4.77 1.55-7.52-0.89-2.08-7.9-18.75-8.78-20.84-1.37-3.56-5.69-5.33-9.19-4.11z"/></defs><use xlink:href="#rightright-a1S04XfAtw" fill="#000000"/><use stroke-opacity="0" fill-opacity="0" xlink:href="#rightright-a1S04XfAtw" stroke="#000000"/><use xlink:href="#rightright-a9FGHnhMv" fill-opacity="0" fill="#000000"/><use stroke-opacity="0" fill-opacity="0" xlink:href="#rightright-a9FGHnhMv" stroke="#000000"/><use xlink:href="#rightright-a2ehmDOR2u" fill-opacity="0" fill="#000000"/><use stroke-opacity="0" fill-opacity="0" xlink:href="#rightright-a2ehmDOR2u" stroke="#000000"/><use xlink:href="#rightright-a3YiATwVKx" fill-opacity="0" fill="#000000"/><use stroke-opacity="0" fill-opacity="0" xlink:href="#rightright-a3YiATwVKx" stroke="#000000"/><use xlink:href="#rightright-a4eLFlm1UK" fill="#000000"/><use stroke-opacity="0" fill-opacity="0" xlink:href="#rightright-a4eLFlm1UK" stroke="#000000"/><use xlink:href="#rightright-fcWmbMxO2" fill-opacity="0" fill="#000000"/><use stroke-opacity="0" fill-opacity="0" xlink:href="#rightright-fcWmbMxO2" stroke="#000000"/><use xlink:href="#rightright-cuQJ8nfFU" fill-opacity="0" fill="#000000"/><use stroke-opacity="0" fill-opacity="0" xlink:href="#rightright-cuQJ8nfFU" stroke="#000000"/><use xlink:href="#rightright-f1Sx5giXzb" fill-opacity="0" fill="#000000"/><use stroke-opacity="0" fill-opacity="0" xlink:href="#rightright-f1Sx5giXzb" stroke="#000000"/></svg><svg xmlns:xlink="http://www.w3.org/1999/xlink" height="48" width="48" version="1.1" preserveAspectRatio="xMidYMid meet" viewBox="0 0 640 640" id="swing" y="772"><defs><path id="swing-gAHbIzzjR" d="m503.01 363.48c-10.83-10.84-28.45-9.53-37.98 1.3-10.83 10.83-9.52 28.45 1.31 37.98 5.04 4.52 30.27 27.14 75.69 67.86h-41.76c-181.92 0-329.91-147.99-329.91-329.91v-43.06c40.72 45.41 63.34 70.64 67.86 75.69 10.84 10.83 27.15 10.83 37.98 1.3 10.83-10.83 10.83-27.14 1.3-37.97-11.53-12.77-103.82-114.87-115.36-127.63-9.52-10.83-29.88-10.83-39.41 0-11.52 12.77-103.71 114.98-115.23 127.76-10.83 10.83-9.53 28.45 1.31 37.97 14.22 11.49 32.75 6.92 39.41-1.3 4.52-5.05 27.14-30.28 67.86-75.69v43.06c0 211.8 171.08 382.89 382.88 382.89h44.63c-46.27 41.58-71.98 64.67-77.12 69.29-10.83 10.84-10.83 27.15-1.31 37.98 14.36 13.31 32.5 7.57 37.98 1.3 12.76-11.26 114.86-101.35 127.63-112.62 12.26-9.91 12.39-28.58-0.13-40.84-25.53-23.08-114.87-103.83-127.63-115.36z"/></defs><use xlink:href="#swing-gAHbIzzjR" fill="#000000"/><use stroke-opacity="0" fill-opacity="0" xlink:href="#swing-gAHbIzzjR" stroke="#000000"/></svg><svg xmlns:xlink="http://www.w3.org/1999/xlink" height="48" width="48" version="1.1" preserveAspectRatio="xMidYMid meet" viewBox="0 0 48 48" id="threeoffive" y="820"><defs><path id="threeoffive-a6ljDYSQD" d="m30.44 8.93c-2.18 0-3.92-1.76-3.92-3.97 0-2.2 1.74-3.96 3.92-3.96h12.64c2.18 0 3.92 1.76 3.92 3.96 0 2.21-1.74 3.97-3.92 3.97h-12.64z"/><path id="threeoffive-e1ObuGBj6c" d="m1.25 43.29v-12.78c0-2.2 1.74-3.96 3.92-3.96s3.92 1.76 3.92 3.96v12.78c0 2.2-1.74 3.96-3.92 3.96s-3.92-1.76-3.92-3.96z"/><path id="threeoffive-a3ltmhjEYv" d="m16.06 41.96c-0.47-1.19-4.31-10.7-4.79-11.89-0.87-1.98 0.22-4.4 2.18-5.28 1.96-0.89 4.36 0.22 5.23 2.2 0.48 1.19 4.31 10.7 4.79 11.89 0.87 1.98-0.22 4.41-2.18 5.29-0.65 0-1.09 0.22-1.52 0.22-1.53 0-3.05-0.88-3.71-2.43z"/><path id="threeoffive-a3M7dzwmfC" d="m29.14 34.92c-0.9-0.91-8.04-8.13-8.94-9.03-1.52-1.54-1.52-3.97 0-5.73 1.53-1.54 4.14-1.54 5.67 0 0.89 0.9 8.04 8.13 8.93 9.03 1.53 1.54 1.53 4.18 0 5.73-0.87 0.66-1.74 1.1-2.83 1.1s-1.96-0.44-2.83-1.1z"/><path id="threeoffive-a1xlXNqJ3z" d="m38.72 23.46c-1.17-0.48-10.59-4.36-11.76-4.84-1.96-0.88-3.05-3.08-2.18-5.29 0.87-1.98 3.05-3.08 5.23-2.2 1.17 0.49 10.59 4.36 11.76 4.85 1.96 0.88 3.05 3.08 2.18 5.28-0.87 1.54-2.18 2.42-3.7 2.42-0.44 0-1.09 0-1.53-0.22z"/></defs><use xlink:href="#threeoffive-a6ljDYSQD" fill-opacity=".5" fill="#000000"/><use stroke-opacity="0" fill-opacity="0" xlink:href="#threeoffive-a6ljDYSQD" stroke="#000000"/><use xlink:href="#threeoffive-e1ObuGBj6c" fill-opacity=".5" fill="#000000"/><use stroke-opacity="0" fill-opacity="0" xlink:href="#threeoffive-e1ObuGBj6c" stroke="#000000"/><use xlink:href="#threeoffive-a3ltmhjEYv" fill-opacity=".5" fill="#000000"/><use stroke-opacity="0" fill-opacity="0" xlink:href="#threeoffive-a3ltmhjEYv" stroke="#000000"/><use xlink:href="#threeoffive-a3M7dzwmfC" fill="#000000"/><use stroke-opacity="0" fill-opacity="0" xlink:href="#threeoffive-a3M7dzwmfC" stroke="#000000"/><use xlink:href="#threeoffive-a1xlXNqJ3z" fill-opacity=".5" fill="#000000"/><use stroke-opacity="0" fill-opacity="0" xlink:href="#threeoffive-a1xlXNqJ3z" stroke="#000000"/></svg><svg xmlns:xlink="http://www.w3.org/1999/xlink" height="50" width="50" version="1.1" preserveAspectRatio="xMidYMid meet" viewBox="0 0 640 640" id="threeoffour" y="868"><defs><path id="threeoffour-a8krJj5cc" d="m2.46 602.4h637.54v34.95h-637.54v-34.95z"/><path id="threeoffour-b6dceQrScM" d="m2.46 347.53h136.04v221.99h-136.04v-221.99z"/><path id="threeoffour-b2wNzQQ9Er" d="m168.73 224.2h136.04v345.32h-136.04v-345.32z"/><path id="threeoffour-aOKkwYduS" d="m337.66 109.1h136.04v460.42h-136.04v-460.42z"/></defs><use xlink:href="#threeoffour-a8krJj5cc" fill="#000000"/><use xlink:href="#threeoffour-b6dceQrScM" fill="#000000"/><use xlink:href="#threeoffour-b2wNzQQ9Er" fill="#000000"/><use xlink:href="#threeoffour-aOKkwYduS" fill="#000000"/></svg><svg xmlns:xlink="http://www.w3.org/1999/xlink" height="48" width="48" version="1.1" preserveAspectRatio="xMidYMid meet" viewBox="0 0 48 48" id="twooffive" y="918"><defs><path id="twooffive-a6ljDYSQD" d="m30.44 8.93c-2.18 0-3.92-1.76-3.92-3.97 0-2.2 1.74-3.96 3.92-3.96h12.64c2.18 0 3.92 1.76 3.92 3.96 0 2.21-1.74 3.97-3.92 3.97h-12.64z"/><path id="twooffive-ax6ad7Ws" d="m1.25 43.29v-12.78c0-2.2 1.74-3.96 3.92-3.96s3.92 1.76 3.92 3.96v12.78c0 2.2-1.74 3.96-3.92 3.96s-3.92-1.76-3.92-3.96z"/><path id="twooffive-a3HyDJxP8" d="m16.06 41.96c-0.47-1.19-4.31-10.7-4.79-11.89-0.87-1.98 0.22-4.4 2.18-5.28 1.96-0.89 4.36 0.22 5.23 2.2 0.48 1.19 4.31 10.7 4.79 11.89 0.87 1.98-0.22 4.41-2.18 5.29-0.65 0-1.09 0.22-1.52 0.22-1.53 0-3.05-0.88-3.71-2.43z"/><path id="twooffive-b4g4qZhpO" d="m29.14 34.92c-0.9-0.91-8.04-8.13-8.94-9.03-1.52-1.54-1.52-3.97 0-5.73 1.53-1.54 4.14-1.54 5.67 0 0.89 0.9 8.04 8.13 8.93 9.03 1.53 1.54 1.53 4.18 0 5.73-0.87 0.66-1.74 1.1-2.83 1.1s-1.96-0.44-2.83-1.1z"/><path id="twooffive-d1zYTmXUF" d="m38.72 23.46c-1.17-0.48-10.59-4.36-11.76-4.84-1.96-0.88-3.05-3.08-2.18-5.29 0.87-1.98 3.05-3.08 5.23-2.2 1.17 0.49 10.59 4.36 11.76 4.85 1.96 0.88 3.05 3.08 2.18 5.28-0.87 1.54-2.18 2.42-3.7 2.42-0.44 0-1.09 0-1.53-0.22z"/></defs><use xlink:href="#twooffive-a6ljDYSQD" fill-opacity=".5" fill="#000000"/><use stroke-opacity="0" fill-opacity="0" xlink:href="#twooffive-a6ljDYSQD" stroke="#000000"/><use xlink:href="#twooffive-ax6ad7Ws" fill-opacity=".5" fill="#000000"/><use stroke-opacity="0" fill-opacity="0" xlink:href="#twooffive-ax6ad7Ws" stroke="#000000"/><use xlink:href="#twooffive-a3HyDJxP8" fill-opacity=".5" fill="#000000"/><use stroke-opacity="0" fill-opacity="0" xlink:href="#twooffive-a3HyDJxP8" stroke="#000000"/><use xlink:href="#twooffive-b4g4qZhpO" fill-opacity=".5" fill="#000000"/><use stroke-opacity="0" fill-opacity="0" xlink:href="#twooffive-b4g4qZhpO" stroke="#000000"/><use xlink:href="#twooffive-d1zYTmXUF" fill="#000000"/><use stroke-opacity="0" fill-opacity="0" xlink:href="#twooffive-d1zYTmXUF" stroke="#000000"/></svg><svg xmlns:xlink="http://www.w3.org/1999/xlink" height="50" width="50" version="1.1" preserveAspectRatio="xMidYMid meet" viewBox="0 0 640 640" id="twooffour" y="966"><defs><path id="twooffour-a8krJj5cc" d="m2.46 602.4h637.54v34.95h-637.54v-34.95z"/><path id="twooffour-b6dceQrScM" d="m2.46 347.53h136.04v221.99h-136.04v-221.99z"/><path id="twooffour-b2wNzQQ9Er" d="m168.73 224.2h136.04v345.32h-136.04v-345.32z"/></defs><use xlink:href="#twooffour-a8krJj5cc" fill="#000000"/><use xlink:href="#twooffour-b6dceQrScM" fill="#000000"/><use xlink:href="#twooffour-b2wNzQQ9Er" fill="#000000"/></svg><svg xmlns:xlink="http://www.w3.org/1999/xlink" height="50" width="50" version="1.1" preserveAspectRatio="xMidYMid meet" viewBox="0 0 50 50" id="zerooffour" y="1016"><defs><path id="zerooffour-acqUh1p2S" d="m50 47.06v2.73h-49.81v-2.73h49.81z"/></defs><use xlink:href="#zerooffour-acqUh1p2S" fill="#000000"/><use stroke-opacity="0" fill-opacity="0" xlink:href="#zerooffour-acqUh1p2S" stroke="#000000"/></svg></svg>
