<?xml version="1.0" encoding="UTF-8" standalone="no"?>
<!DOCTYPE svg PUBLIC "-//W3C//DTD SVG 1.1//EN" "http://www.w3.org/Graphics/SVG/1.1/DTD/svg11.dtd">
<svg version="1.1" xmlns="http://www.w3.org/2000/svg" xmlns:xlink="http://www.w3.org/1999/xlink" preserveAspectRatio="xMidYMid meet" viewBox="0 0 48 48" width="48" height="48"><defs><path d="M21.84 3.76C24.31 6.47 24.74 11.94 22.83 16.04C21.71 18.44 12.79 37.56 11.68 39.96C9.76 44.06 6.25 45.19 3.77 42.47C1.31 39.75 0.87 34.29 2.79 30.18C3.9 27.78 12.83 8.67 13.94 6.27C15.86 2.16 19.37 1.04 21.84 3.76Z" id="b8OLpNvNv6"></path><path d="M45 42.47C47.47 39.76 47.91 34.29 45.99 30.18C44.87 27.78 35.96 8.67 34.84 6.27C32.92 2.16 29.41 1.04 26.94 3.76C24.47 6.47 24.03 11.94 25.95 16.04C27.07 18.44 35.99 37.56 37.1 39.96C39.03 44.07 42.53 45.19 45 42.47Z" id="a3FxbeVsH"></path></defs><g><g><g><use xlink:href="#b8OLpNvNv6" opacity="1" fill="#000000" fill-opacity="1"></use><g><use xlink:href="#b8OLpNvNv6" opacity="1" fill-opacity="0" stroke="#000000" stroke-width="1" stroke-opacity="0"></use></g></g><g><use xlink:href="#a3FxbeVsH" opacity="1" fill="#000000" fill-opacity="1"></use><g><use xlink:href="#a3FxbeVsH" opacity="1" fill-opacity="0" stroke="#000000" stroke-width="1" stroke-opacity="0"></use></g></g></g></g></svg>