<?xml version="1.0" encoding="UTF-8" standalone="no"?>
<!DOCTYPE svg PUBLIC "-//W3C//DTD SVG 1.1//EN" "http://www.w3.org/Graphics/SVG/1.1/DTD/svg11.dtd">
<svg version="1.1" xmlns="http://www.w3.org/2000/svg" xmlns:xlink="http://www.w3.org/1999/xlink" preserveAspectRatio="xMidYMid meet" viewBox="0 0 48 48" width="48" height="48"><defs><path d="M19.78 3.94C22.5 1.15 26.8 0.99 29.48 3.6C32.16 6.2 32.12 10.52 29.41 13.31C27.83 14.94 15.23 27.93 13.65 29.56C10.94 32.35 6.63 32.51 3.95 29.9C1.28 27.3 1.31 22.98 4.02 20.19C5.6 18.56 18.21 5.57 19.78 3.94Z" id="e2MtqmABFG"></path><path d="M19.78 3.94C22.5 1.15 26.8 0.99 29.48 3.6C32.16 6.2 32.12 10.52 29.41 13.31C27.83 14.94 15.23 27.93 13.65 29.56C10.94 32.35 6.63 32.51 3.95 29.9C1.28 27.3 1.31 22.98 4.02 20.19C5.6 18.56 18.21 5.57 19.78 3.94Z" id="k6Bz6DDmi"></path><path d="M32.63 15.36C34 11.8 38.32 10.03 41.82 11.25C45.32 12.47 46.9 16.74 45.52 20.3C44.64 22.39 37.62 39.05 36.74 41.14C35.37 44.69 31.03 46.48 27.54 45.25C26.74 44.48 25.93 44.23 25.4 43.72C23.52 41.89 22.74 38.95 23.85 36.2C24.74 34.12 31.75 17.45 32.63 15.36Z" id="a18HJKaSPd"></path><path d="M32.63 15.36C34 11.8 38.32 10.03 41.82 11.25C45.32 12.47 46.9 16.74 45.52 20.3C44.64 22.39 37.62 39.05 36.74 41.14C35.37 44.69 31.03 46.48 27.54 45.25C26.74 44.48 25.93 44.23 25.4 43.72C23.52 41.89 22.74 38.95 23.85 36.2C24.74 34.12 31.75 17.45 32.63 15.36Z" id="e1ljqZj6CB"></path></defs><g><g><g><use xlink:href="#e2MtqmABFG" opacity="1" fill="#000000" fill-opacity="1"></use><g><use xlink:href="#e2MtqmABFG" opacity="1" fill-opacity="0" stroke="#000000" stroke-width="1" stroke-opacity="0"></use></g></g><g><use xlink:href="#k6Bz6DDmi" opacity="1" fill="#000000" fill-opacity="0"></use><g><use xlink:href="#k6Bz6DDmi" opacity="1" fill-opacity="0" stroke="#000000" stroke-width="1" stroke-opacity="0"></use></g></g><g><use xlink:href="#a18HJKaSPd" opacity="1" fill="#000000" fill-opacity="1"></use><g><use xlink:href="#a18HJKaSPd" opacity="1" fill-opacity="0" stroke="#000000" stroke-width="1" stroke-opacity="0"></use></g></g><g><use xlink:href="#e1ljqZj6CB" opacity="1" fill="#000000" fill-opacity="0"></use><g><use xlink:href="#e1ljqZj6CB" opacity="1" fill-opacity="0" stroke="#000000" stroke-width="1" stroke-opacity="0"></use></g></g></g></g></svg>