<?xml version="1.0" encoding="UTF-8" standalone="no"?>
<!DOCTYPE svg PUBLIC "-//W3C//DTD SVG 1.1//EN" "http://www.w3.org/Graphics/SVG/1.1/DTD/svg11.dtd">
<svg version="1.1" xmlns="http://www.w3.org/2000/svg" xmlns:xlink="http://www.w3.org/1999/xlink" preserveAspectRatio="xMidYMid meet" viewBox="0 0 48 48" width="48" height="48"><defs><path d="M18.5 3.6C15.82 6.2 15.86 10.52 18.57 13.31C20.15 14.94 32.75 27.93 34.33 29.56C37.04 32.35 41.35 32.51 44.03 29.9C46.7 27.3 46.67 22.98 43.96 20.19C42.38 18.56 29.77 5.57 28.2 3.94C25.48 1.15 21.18 0.99 18.5 3.6Z" id="a189DSXskZ"></path><path d="M18.5 3.6C15.82 6.2 15.86 10.52 18.57 13.31C20.15 14.94 32.75 27.93 34.33 29.56C37.04 32.35 41.35 32.51 44.03 29.9C46.7 27.3 46.67 22.98 43.96 20.19C42.38 18.56 29.77 5.57 28.2 3.94C25.48 1.15 21.18 0.99 18.5 3.6Z" id="a1dNnEMpEC"></path><path d="M18.5 3.6C15.82 6.2 15.86 10.52 18.57 13.31C20.15 14.94 32.75 27.93 34.33 29.56C37.04 32.35 41.35 32.51 44.03 29.9C46.7 27.3 46.67 22.98 43.96 20.19C42.38 18.56 29.77 5.57 28.2 3.94C25.48 1.15 21.18 0.99 18.5 3.6Z" id="b2y7f4G5SB"></path><path d="M18.5 3.6C15.82 6.2 15.86 10.52 18.57 13.31C20.15 14.94 32.75 27.93 34.33 29.56C37.04 32.35 41.35 32.51 44.03 29.9C46.7 27.3 46.67 22.98 43.96 20.19C42.38 18.56 29.77 5.57 28.2 3.94C25.48 1.15 21.18 0.99 18.5 3.6Z" id="c3RdLMUh0z"></path><path d="M6.16 11.25C2.66 12.47 1.08 16.74 2.46 20.3C3.34 22.39 10.36 39.05 11.24 41.14C12.61 44.69 16.95 46.48 20.44 45.25C21.24 44.48 22.05 44.23 22.58 43.72C24.46 41.89 25.24 38.95 24.13 36.2C23.24 34.12 16.23 17.45 15.35 15.36C13.98 11.8 9.66 10.03 6.16 11.25Z" id="ds0vBgHTR"></path></defs><g><g><g><use xlink:href="#a189DSXskZ" opacity="1" fill="#000000" fill-opacity="1"></use><g><use xlink:href="#a189DSXskZ" opacity="1" fill-opacity="0" stroke="#000000" stroke-width="1" stroke-opacity="0"></use></g></g><g><use xlink:href="#a1dNnEMpEC" opacity="1" fill="#000000" fill-opacity="0"></use><g><use xlink:href="#a1dNnEMpEC" opacity="1" fill-opacity="0" stroke="#000000" stroke-width="1" stroke-opacity="0"></use></g></g><g><use xlink:href="#b2y7f4G5SB" opacity="1" fill="#000000" fill-opacity="0"></use><g><use xlink:href="#b2y7f4G5SB" opacity="1" fill-opacity="0" stroke="#000000" stroke-width="1" stroke-opacity="0"></use></g></g><g><use xlink:href="#c3RdLMUh0z" opacity="1" fill="#000000" fill-opacity="0"></use><g><use xlink:href="#c3RdLMUh0z" opacity="1" fill-opacity="0" stroke="#000000" stroke-width="1" stroke-opacity="0"></use></g></g><g><use xlink:href="#ds0vBgHTR" opacity="1" fill="#000000" fill-opacity="0.5"></use><g><use xlink:href="#ds0vBgHTR" opacity="1" fill-opacity="0" stroke="#000000" stroke-width="1" stroke-opacity="0"></use></g></g></g></g></svg>