<?xml version="1.0" encoding="UTF-8" standalone="no"?>
<!DOCTYPE svg PUBLIC "-//W3C//DTD SVG 1.1//EN" "http://www.w3.org/Graphics/SVG/1.1/DTD/svg11.dtd">
<svg version="1.1" xmlns="http://www.w3.org/2000/svg" xmlns:xlink="http://www.w3.org/1999/xlink" preserveAspectRatio="xMidYMid meet" viewBox="0 0 640 640" width="48" height="48"><defs><path d="M503.01 363.48C492.18 352.64 474.56 353.95 465.03 364.78C454.2 375.61 455.51 393.23 466.34 402.76C471.38 407.28 496.61 429.9 542.03 470.62C516.97 470.62 503.05 470.62 500.27 470.62C318.35 470.62 170.36 322.63 170.36 140.71C170.36 137.84 170.36 123.49 170.36 97.65C211.08 143.06 233.7 168.29 238.22 173.34C249.06 184.17 265.37 184.17 276.2 174.64C287.03 163.81 287.03 147.5 277.5 136.67C265.97 123.9 173.68 21.8 162.14 9.04C152.62 -1.79 132.26 -1.79 122.73 9.04C111.21 21.81 19.02 124.02 7.5 136.8C-3.33 147.63 -2.03 165.25 8.81 174.77C23.03 186.26 41.56 181.69 48.22 173.47C52.74 168.42 75.36 143.19 116.08 97.78C116.08 123.62 116.08 137.97 116.08 140.84C116.08 352.64 287.16 523.73 498.96 523.73C501.94 523.73 516.81 523.73 543.59 523.73C497.32 565.31 471.61 588.4 466.47 593.02C455.64 603.86 455.64 620.17 465.16 631C479.52 644.31 497.66 638.57 503.14 632.3C515.9 621.04 618 530.95 630.77 519.68C643.03 509.77 643.16 491.1 630.64 478.84C605.11 455.76 515.77 375.01 503.01 363.48Z" id="gAHbIzzjR"></path></defs><g><g><g><use xlink:href="#gAHbIzzjR" opacity="1" fill="#000000" fill-opacity="1"></use><g><use xlink:href="#gAHbIzzjR" opacity="1" fill-opacity="0" stroke="#000000" stroke-width="1" stroke-opacity="0"></use></g></g></g></g></svg>